<?xml version="1.0" ?><!-- Uploaded to: SVG Repo, www.svgrepo.com, Generator: SVG Repo Mixer Tools -->
<svg width="800px" height="800px" viewBox="0 0 6.3499998 6.3499998" id="svg8" version="1.1" xmlns="http://www.w3.org/2000/svg" xmlns:cc="http://creativecommons.org/ns#" xmlns:dc="http://purl.org/dc/elements/1.1/" xmlns:rdf="http://www.w3.org/1999/02/22-rdf-syntax-ns#" xmlns:svg="http://www.w3.org/2000/svg"><defs id="defs2"/><path d="m 1.8520833,1.5874999 c -0.2885817,0 -0.5291667,0.2405849 -0.5291667,0.5291666 H 1.0583333 c -0.28858174,0 -0.52916665,0.2405849 -0.52916665,0.5291668 v 1.0583332 c 0,0.2885819 0.24058488,0.5291667 0.52916665,0.5291667 h 0.2645833 c 0,0.2885818 0.2405849,0.5291666 0.5291667,0.5291666 h 3.4395831 c 0.2885819,0 0.529167,-0.2405848 0.529167,-0.5291666 V 2.1166665 c 0,-0.2885817 -0.2405851,-0.5291666 -0.529167,-0.5291666 z m 0,0.5291666 H 5.2916664 V 4.2333332 H 1.8520833 V 3.96875 A 0.26460978,0.26460978 0 0 0 1.5875,3.7041665 H 1.0583333 V 2.6458333 H 1.5875 A 0.26460978,0.26460978 0 0 0 1.8520833,2.38125 Z" id="rect2224" style="color:#000000;font-style:normal;font-variant:normal;font-weight:normal;font-stretch:normal;font-size:medium;line-height:normal;font-family:sans-serif;font-variant-ligatures:normal;font-variant-position:normal;font-variant-caps:normal;font-variant-numeric:normal;font-variant-alternates:normal;font-feature-settings:normal;text-indent:0;text-align:start;text-decoration:none;text-decoration-line:none;text-decoration-style:solid;text-decoration-color:#000000;letter-spacing:normal;word-spacing:normal;text-transform:none;writing-mode:lr-tb;direction:ltr;text-orientation:mixed;dominant-baseline:auto;baseline-shift:baseline;text-anchor:start;white-space:normal;shape-padding:0;clip-rule:nonzero;display:inline;overflow:visible;visibility:visible;opacity:1;isolation:auto;mix-blend-mode:normal;color-interpolation:sRGB;color-interpolation-filters:linearRGB;solid-color:#000000;solid-opacity:1;vector-effect:none;fill:#ffffff;fill-opacity:1;fill-rule:nonzero;stroke:none;stroke-width:0.52916664;stroke-linecap:round;stroke-linejoin:round;stroke-miterlimit:4;stroke-dasharray:none;stroke-dashoffset:0;stroke-opacity:1;paint-order:markers fill stroke;color-rendering:auto;image-rendering:auto;shape-rendering:auto;text-rendering:auto;enable-background:accumulate"/><path d="m 3.9628907,2.3789062 a 0.26460978,0.26460978 0 0 0 -0.140625,0.046875 l -0.7949218,0.529297 a 0.26460978,0.26460978 0 0 0 -0.054688,0.390625 L 2.763672,3.484375 A 0.26460978,0.26460978 0 1 0 3.0566407,3.923828 L 3.8515625,3.3945311 a 0.26460978,0.26460978 0 0 0 0.054688,-0.390625 L 4.1152343,2.8652343 A 0.26460978,0.26460978 0 0 0 3.9628907,2.3789062 Z" id="path2234" style="color:#000000;font-style:normal;font-variant:normal;font-weight:normal;font-stretch:normal;font-size:medium;line-height:normal;font-family:sans-serif;font-variant-ligatures:normal;font-variant-position:normal;font-variant-caps:normal;font-variant-numeric:normal;font-variant-alternates:normal;font-feature-settings:normal;text-indent:0;text-align:start;text-decoration:none;text-decoration-line:none;text-decoration-style:solid;text-decoration-color:#000000;letter-spacing:normal;word-spacing:normal;text-transform:none;writing-mode:lr-tb;direction:ltr;text-orientation:mixed;dominant-baseline:auto;baseline-shift:baseline;text-anchor:start;white-space:normal;shape-padding:0;clip-rule:nonzero;display:inline;overflow:visible;visibility:visible;opacity:1;isolation:auto;mix-blend-mode:normal;color-interpolation:sRGB;color-interpolation-filters:linearRGB;solid-color:#000000;solid-opacity:1;vector-effect:none;fill:#ff2876;fill-opacity:1;fill-rule:nonzero;stroke:none;stroke-width:0.52916664;stroke-linecap:round;stroke-linejoin:round;stroke-miterlimit:4;stroke-dasharray:none;stroke-dashoffset:0;stroke-opacity:1;paint-order:markers fill stroke;color-rendering:auto;image-rendering:auto;shape-rendering:auto;text-rendering:auto;enable-background:accumulate"/></svg>