<?xml version="1.0" ?><!-- Uploaded to: SVG Repo, www.svgrepo.com, Generator: SVG Repo Mixer Tools -->
<svg width="800px" height="800px" viewBox="0 0 6.3499998 6.3499998" id="svg8" version="1.1" xmlns="http://www.w3.org/2000/svg" xmlns:cc="http://creativecommons.org/ns#" xmlns:dc="http://purl.org/dc/elements/1.1/" xmlns:rdf="http://www.w3.org/1999/02/22-rdf-syntax-ns#" xmlns:svg="http://www.w3.org/2000/svg"><defs id="defs2"/><path d="M 2.38125,0.52916665 A 0.26460978,0.26460978 0 0 0 2.144572,0.67541096 L 1.9533691,1.0583333 H 1.5957682 c -0.5862878,0 -1.06660155,0.4803138 -1.06660155,1.0666017 v 2.6292967 c 0,0.5862878 0.48031375,1.0666018 1.06660155,1.0666018 h 3.1584634 c 0.5862878,0 1.0666018,-0.480314 1.0666018,-1.0666018 V 2.124935 c 0,-0.586288 -0.480314,-1.0666017 -1.0666018,-1.0666017 H 4.3966308 L 4.2054278,0.67541096 A 0.26460978,0.26460978 0 0 0 3.9687502,0.52916665 Z M 2.5445475,1.0583333 h 1.2609048 l 0.191203,0.3829224 a 0.26460978,0.26460978 0 0 0 0.2366778,0.1462444 h 0.5208985 c 0.3021158,0 0.5374348,0.2353187 0.5374348,0.5374349 v 2.6292967 c 0,0.3021158 -0.235319,0.5374348 -0.5374348,0.5374348 H 1.5957682 c -0.302116,0 -0.5374349,-0.235319 -0.5374349,-0.5374348 V 2.124935 c 0,-0.3021162 0.2353188,-0.5374349 0.5374349,-0.5374349 H 2.1166666 A 0.26460978,0.26460978 0 0 0 2.3533447,1.4412557 Z" id="rect2164" style="color:#000000;font-style:normal;font-variant:normal;font-weight:normal;font-stretch:normal;font-size:medium;line-height:normal;font-family:sans-serif;font-variant-ligatures:normal;font-variant-position:normal;font-variant-caps:normal;font-variant-numeric:normal;font-variant-alternates:normal;font-feature-settings:normal;text-indent:0;text-align:start;text-decoration:none;text-decoration-line:none;text-decoration-style:solid;text-decoration-color:#000000;letter-spacing:normal;word-spacing:normal;text-transform:none;writing-mode:lr-tb;direction:ltr;text-orientation:mixed;dominant-baseline:auto;baseline-shift:baseline;text-anchor:start;white-space:normal;shape-padding:0;clip-rule:nonzero;display:inline;overflow:visible;visibility:visible;opacity:1;isolation:auto;mix-blend-mode:normal;color-interpolation:sRGB;color-interpolation-filters:linearRGB;solid-color:#000000;solid-opacity:1;vector-effect:none;fill:#ffffff;fill-opacity:1;fill-rule:nonzero;stroke:none;stroke-width:0.52916664;stroke-linecap:round;stroke-linejoin:round;stroke-miterlimit:4;stroke-dasharray:none;stroke-dashoffset:0;stroke-opacity:1;paint-order:markers fill stroke;color-rendering:auto;image-rendering:auto;shape-rendering:auto;text-rendering:auto;enable-background:accumulate"/><path d="m 3.1757813,2.3808595 c -0.5813674,0 -1.0585938,0.4772262 -1.0585938,1.0585936 0,0.5813676 0.4772264,1.0585939 1.0585938,1.0585939 0.5813676,-3e-7 1.0566406,-0.4772265 1.0566406,-1.0585939 0,-0.5813674 -0.475273,-1.0585936 -1.0566406,-1.0585936 z m 0,0.5292967 c 0.2953845,2e-7 0.5292968,0.2339125 0.5292968,0.5292969 0,0.2953845 -0.2339123,0.5292971 -0.5292968,0.5292971 -0.2953845,0 -0.5292969,-0.2339126 -0.5292969,-0.5292971 0,-0.2953846 0.2339124,-0.5292969 0.5292969,-0.5292969 z" id="path2166" style="color:#000000;font-style:normal;font-variant:normal;font-weight:normal;font-stretch:normal;font-size:medium;line-height:normal;font-family:sans-serif;font-variant-ligatures:normal;font-variant-position:normal;font-variant-caps:normal;font-variant-numeric:normal;font-variant-alternates:normal;font-feature-settings:normal;text-indent:0;text-align:start;text-decoration:none;text-decoration-line:none;text-decoration-style:solid;text-decoration-color:#000000;letter-spacing:normal;word-spacing:normal;text-transform:none;writing-mode:lr-tb;direction:ltr;text-orientation:mixed;dominant-baseline:auto;baseline-shift:baseline;text-anchor:start;white-space:normal;shape-padding:0;clip-rule:nonzero;display:inline;overflow:visible;visibility:visible;opacity:1;isolation:auto;mix-blend-mode:normal;color-interpolation:sRGB;color-interpolation-filters:linearRGB;solid-color:#000000;solid-opacity:1;vector-effect:none;fill:#ff2876;fill-opacity:1;fill-rule:nonzero;stroke:none;stroke-width:0.52916664;stroke-linecap:round;stroke-linejoin:round;stroke-miterlimit:4;stroke-dasharray:none;stroke-dashoffset:0;stroke-opacity:1;paint-order:markers fill stroke;color-rendering:auto;image-rendering:auto;shape-rendering:auto;text-rendering:auto;enable-background:accumulate"/></svg>