<?xml version="1.0" encoding="utf-8"?><!-- Uploaded to: SVG Repo, www.svgrepo.com, Generator: SVG Repo Mixer Tools -->
<svg width="800px" height="800px" viewBox="0 0 24 24" fill="none" xmlns="http://www.w3.org/2000/svg">
<path fill-rule="evenodd" clip-rule="evenodd" d="M6 5C5.44772 5 5 5.44772 5 6V13V18C5 18.5523 5.44772 19 6 19H18C18.5523 19 19 18.5523 19 18V13V6C19 5.44772 18.5523 5 18 5H6ZM3 6C3 4.34315 4.34315 3 6 3H18C19.6569 3 21 4.34315 21 6V13V18C21 19.6569 19.6569 21 18 21H6C4.34315 21 3 19.6569 3 18V13V6Z" fill="#000000"/>
</svg>