<?xml version="1.0" ?><!-- Uploaded to: SVG Repo, www.svgrepo.com, Generator: SVG Repo Mixer Tools -->
<svg width="800px" height="800px" viewBox="0 0 6.3499998 6.3499998" id="svg8" version="1.1" xmlns="http://www.w3.org/2000/svg" xmlns:cc="http://creativecommons.org/ns#" xmlns:dc="http://purl.org/dc/elements/1.1/" xmlns:rdf="http://www.w3.org/1999/02/22-rdf-syntax-ns#" xmlns:svg="http://www.w3.org/2000/svg"><defs id="defs2"/><path d="m 2.9104166,0.52916656 a 0.26460978,0.26460978 0 0 0 -0.1694987,0.061495 L 1.153418,1.9135783 A 0.26460978,0.26460978 0 0 0 1.058333,2.1166666 v 2.6458333 c 0,0.5817401 0.4765932,1.0583333 1.0583333,1.0583333 h 2.1166666 c 0.5817402,0 1.0583333,-0.4765932 1.0583333,-1.0583333 v -3.175 c 0,-0.5817401 -0.4765931,-1.05833334 -1.0583333,-1.05833334 z M 3.006018,1.0583332 h 1.2273154 c 0.2977349,0 0.5291664,0.2314318 0.5291664,0.5291667 v 3.175 c 0,0.2977348 -0.2314315,0.5291666 -0.5291664,0.5291666 H 2.1166666 C 1.8189318,5.2916665 1.5875,5.0602347 1.5875,4.7624999 V 2.2406901 Z" id="path1765" style="color:#000000;font-style:normal;font-variant:normal;font-weight:normal;font-stretch:normal;font-size:medium;line-height:normal;font-family:sans-serif;font-variant-ligatures:normal;font-variant-position:normal;font-variant-caps:normal;font-variant-numeric:normal;font-variant-alternates:normal;font-feature-settings:normal;text-indent:0;text-align:start;text-decoration:none;text-decoration-line:none;text-decoration-style:solid;text-decoration-color:#000000;letter-spacing:normal;word-spacing:normal;text-transform:none;writing-mode:lr-tb;direction:ltr;text-orientation:mixed;dominant-baseline:auto;baseline-shift:baseline;text-anchor:start;white-space:normal;shape-padding:0;clip-rule:nonzero;display:inline;overflow:visible;visibility:visible;opacity:1;isolation:auto;mix-blend-mode:normal;color-interpolation:sRGB;color-interpolation-filters:linearRGB;solid-color:#000000;solid-opacity:1;vector-effect:none;fill:#ffffff;fill-opacity:1;fill-rule:nonzero;stroke:none;stroke-width:0.52916664;stroke-linecap:round;stroke-linejoin:round;stroke-miterlimit:4;stroke-dasharray:none;stroke-dashoffset:204.09448242;stroke-opacity:1;paint-order:stroke fill markers;color-rendering:auto;image-rendering:auto;shape-rendering:auto;text-rendering:auto;enable-background:accumulate"/><path d="M 2.9023438,0.52929678 A 0.26460978,0.26460978 0 0 0 2.7402344,0.58984365 L 1.1542969,1.9140625 A 0.26460978,0.26460978 0 0 0 1.3222656,2.3808594 H 2.9101562 A 0.26460978,0.26460978 0 0 0 3.1757812,2.1171875 V 0.79296865 A 0.26460978,0.26460978 0 0 0 2.9023438,0.52929678 Z M 2.6464844,1.3574218 V 1.8515625 H 2.0546875 Z" id="path1735" style="color:#000000;font-style:normal;font-variant:normal;font-weight:normal;font-stretch:normal;font-size:medium;line-height:normal;font-family:sans-serif;font-variant-ligatures:normal;font-variant-position:normal;font-variant-caps:normal;font-variant-numeric:normal;font-variant-alternates:normal;font-feature-settings:normal;text-indent:0;text-align:start;text-decoration:none;text-decoration-line:none;text-decoration-style:solid;text-decoration-color:#000000;letter-spacing:normal;word-spacing:normal;text-transform:none;writing-mode:lr-tb;direction:ltr;text-orientation:mixed;dominant-baseline:auto;baseline-shift:baseline;text-anchor:start;white-space:normal;shape-padding:0;clip-rule:nonzero;display:inline;overflow:visible;visibility:visible;opacity:1;isolation:auto;mix-blend-mode:normal;color-interpolation:sRGB;color-interpolation-filters:linearRGB;solid-color:#000000;solid-opacity:1;vector-effect:none;fill:#ff2876;fill-opacity:1;fill-rule:nonzero;stroke:none;stroke-width:0.52916664;stroke-linecap:round;stroke-linejoin:round;stroke-miterlimit:4;stroke-dasharray:none;stroke-dashoffset:204.09448242;stroke-opacity:1;paint-order:stroke fill markers;color-rendering:auto;image-rendering:auto;shape-rendering:auto;text-rendering:auto;enable-background:accumulate"/></svg>