<?xml version="1.0" ?><!-- Uploaded to: SVG Repo, www.svgrepo.com, Generator: SVG Repo Mixer Tools -->
<svg width="800px" height="800px" viewBox="0 0 6.3499998 6.3499998" id="svg8" version="1.1" xmlns="http://www.w3.org/2000/svg" xmlns:cc="http://creativecommons.org/ns#" xmlns:dc="http://purl.org/dc/elements/1.1/" xmlns:rdf="http://www.w3.org/1999/02/22-rdf-syntax-ns#" xmlns:svg="http://www.w3.org/2000/svg"><defs id="defs2"/><path d="M 3.96875,2.1166665 A 0.26460978,0.26460978 0 0 0 3.7041666,2.3812499 v 1.0583333 c 0,0.1511557 -0.1134276,0.2645833 -0.2645833,0.2645833 H 2.38125 A 0.26460978,0.26460978 0 0 0 2.1166666,3.9687499 v 1.0583333 c 0,0.4351609 0.3585891,0.7937499 0.79375,0.7937499 h 2.1166667 c 0.4351609,0 0.7937499,-0.358589 0.7937499,-0.7937499 V 2.9104165 c 0,-0.4351609 -0.358589,-0.79375 -0.7937499,-0.79375 z m 0.2645833,0.5291667 h 0.79375 c 0.1511556,0 0.2645833,0.1134277 0.2645833,0.2645833 v 2.1166667 c 0,0.1511556 -0.1134277,0.2645833 -0.2645833,0.2645833 H 2.9104166 c -0.1511556,0 -0.2645833,-0.1134277 -0.2645833,-0.2645833 v -0.79375 h 0.79375 c 0.435161,0 0.79375,-0.358589 0.79375,-0.79375 z" id="rect1770" style="color:#000000;font-style:normal;font-variant:normal;font-weight:normal;font-stretch:normal;font-size:medium;line-height:normal;font-family:sans-serif;font-variant-ligatures:normal;font-variant-position:normal;font-variant-caps:normal;font-variant-numeric:normal;font-variant-alternates:normal;font-feature-settings:normal;text-indent:0;text-align:start;text-decoration:none;text-decoration-line:none;text-decoration-style:solid;text-decoration-color:#000000;letter-spacing:normal;word-spacing:normal;text-transform:none;writing-mode:lr-tb;direction:ltr;text-orientation:mixed;dominant-baseline:auto;baseline-shift:baseline;text-anchor:start;white-space:normal;shape-padding:0;clip-rule:nonzero;display:inline;overflow:visible;visibility:visible;opacity:1;isolation:auto;mix-blend-mode:normal;color-interpolation:sRGB;color-interpolation-filters:linearRGB;solid-color:#000000;solid-opacity:1;vector-effect:none;fill:#ff2876;fill-opacity:1;fill-rule:nonzero;stroke:none;stroke-width:0.52916664;stroke-linecap:round;stroke-linejoin:round;stroke-miterlimit:4;stroke-dasharray:none;stroke-dashoffset:204.09448242;stroke-opacity:1;paint-order:stroke fill markers;color-rendering:auto;image-rendering:auto;shape-rendering:auto;text-rendering:auto;enable-background:accumulate"/><path d="m 1.3222656,0.52929682 c -0.43516089,0 -0.79296873,0.35780783 -0.79296872,0.79296868 V 3.439453 c 0,0.435161 0.35780786,0.792969 0.79296872,0.792969 h 2.1171875 c 0.435161,0 0.792969,-0.357808 0.792969,-0.792969 V 1.3222655 c 0,-0.43516082 -0.357808,-0.79296869 -0.792969,-0.79296868 z m 0,0.52929698 h 2.1171875 c 0.1511557,0 0.265625,0.1125161 0.265625,0.2636717 V 3.439453 c 0,0.1511557 -0.1144693,0.265625 -0.265625,0.265625 H 1.3222656 c -0.1511557,0 -0.2636718,-0.1144693 -0.2636718,-0.265625 V 1.3222655 c 0,-0.1511556 0.1125161,-0.2636717 0.2636718,-0.2636717 z" id="rect1768" style="color:#000000;font-style:normal;font-variant:normal;font-weight:normal;font-stretch:normal;font-size:medium;line-height:normal;font-family:sans-serif;font-variant-ligatures:normal;font-variant-position:normal;font-variant-caps:normal;font-variant-numeric:normal;font-variant-alternates:normal;font-feature-settings:normal;text-indent:0;text-align:start;text-decoration:none;text-decoration-line:none;text-decoration-style:solid;text-decoration-color:#000000;letter-spacing:normal;word-spacing:normal;text-transform:none;writing-mode:lr-tb;direction:ltr;text-orientation:mixed;dominant-baseline:auto;baseline-shift:baseline;text-anchor:start;white-space:normal;shape-padding:0;clip-rule:nonzero;display:inline;overflow:visible;visibility:visible;opacity:1;isolation:auto;mix-blend-mode:normal;color-interpolation:sRGB;color-interpolation-filters:linearRGB;solid-color:#000000;solid-opacity:1;vector-effect:none;fill:#ffffff;fill-opacity:1;fill-rule:nonzero;stroke:none;stroke-width:0.52916664;stroke-linecap:round;stroke-linejoin:round;stroke-miterlimit:4;stroke-dasharray:none;stroke-dashoffset:204.09448242;stroke-opacity:1;paint-order:stroke fill markers;color-rendering:auto;image-rendering:auto;shape-rendering:auto;text-rendering:auto;enable-background:accumulate"/></svg>