<?xml version="1.0" ?><!-- Uploaded to: SVG Repo, www.svgrepo.com, Generator: SVG Repo Mixer Tools -->
<svg width="800px" height="800px" viewBox="0 0 6.3499998 6.3499998" id="svg8" version="1.1" xmlns="http://www.w3.org/2000/svg" xmlns:cc="http://creativecommons.org/ns#" xmlns:dc="http://purl.org/dc/elements/1.1/" xmlns:rdf="http://www.w3.org/1999/02/22-rdf-syntax-ns#" xmlns:svg="http://www.w3.org/2000/svg"><defs id="defs2"/><path d="M 3.1523438,0.52379555 A 0.25865846,0.270698 0 0 0 2.9433594,0.67301013 L 2.2675781,2.105879 0.75585938,2.336855 A 0.25865846,0.270698 0 0 0 0.61328125,2.798807 L 1.7070312,3.9128061 1.4492188,5.4887576 a 0.25865846,0.270698 0 0 0 0.375,0.2841209 l 1.3515624,-0.741985 1.3496094,0.741985 A 0.25865846,0.270698 0 0 0 4.9023438,5.4887576 L 4.642578,3.9128061 5.7363282,2.798807 A 0.25865846,0.270698 0 0 0 5.59375,2.336855 L 4.0820312,2.105879 3.40625,0.67301013 A 0.25865846,0.270698 0 0 0 3.1523438,0.52379555 Z m 0.023437,0.88097915 0.5039064,1.0690307 a 0.25865846,0.270698 0 0 0 0.1933593,0.1471705 l 1.126953,0.171699 -0.8144531,0.8319225 A 0.25865846,0.270698 0 0 0 4.111328,3.8637495 L 4.3046874,5.0390696 3.2949218,4.4851361 a 0.25865846,0.270698 0 0 0 -0.2402343,0 L 2.046875,5.0390696 2.2402344,3.8637495 A 0.25865846,0.270698 0 0 0 2.1640625,3.6245974 L 1.3496094,2.7926749 2.4765625,2.6209759 A 0.25865846,0.270698 0 0 0 2.671875,2.4738054 Z" id="path1860" style="color:#000000;font-style:normal;font-variant:normal;font-weight:normal;font-stretch:normal;font-size:medium;line-height:normal;font-family:sans-serif;font-variant-ligatures:normal;font-variant-position:normal;font-variant-caps:normal;font-variant-numeric:normal;font-variant-alternates:normal;font-feature-settings:normal;text-indent:0;text-align:start;text-decoration:none;text-decoration-line:none;text-decoration-style:solid;text-decoration-color:#000000;letter-spacing:normal;word-spacing:normal;text-transform:none;writing-mode:lr-tb;direction:ltr;text-orientation:mixed;dominant-baseline:auto;baseline-shift:baseline;text-anchor:start;white-space:normal;shape-padding:0;clip-rule:nonzero;display:inline;overflow:visible;visibility:visible;opacity:1;isolation:auto;mix-blend-mode:normal;color-interpolation:sRGB;color-interpolation-filters:linearRGB;solid-color:#000000;solid-opacity:1;vector-effect:none;fill:#ffffff;fill-opacity:1;fill-rule:nonzero;stroke:none;stroke-width:0.52916664;stroke-linecap:round;stroke-linejoin:round;stroke-miterlimit:4;stroke-dasharray:none;stroke-dashoffset:204.09448242;stroke-opacity:1;paint-order:stroke fill markers;color-rendering:auto;image-rendering:auto;shape-rendering:auto;text-rendering:auto;enable-background:accumulate"/></svg>