<?xml version="1.0" ?><!-- Uploaded to: SVG Repo, www.svgrepo.com, Generator: SVG Repo Mixer Tools -->
<svg width="800px" height="800px" viewBox="0 0 6.3499998 6.3499998" id="svg8" version="1.1" xmlns="http://www.w3.org/2000/svg" xmlns:cc="http://creativecommons.org/ns#" xmlns:dc="http://purl.org/dc/elements/1.1/" xmlns:inkscape="http://www.inkscape.org/namespaces/inkscape" xmlns:rdf="http://www.w3.org/1999/02/22-rdf-syntax-ns#" xmlns:sodipodi="http://sodipodi.sourceforge.net/DTD/sodipodi-0.dtd" xmlns:svg="http://www.w3.org/2000/svg"><defs id="defs2"/><path d="m 1.4121094,1.0585939 c -0.48410945,0 -0.88281252,0.3987031 -0.88281252,0.8828124 V 2.3808595 2.5566407 4.498047 c 0,0.4351609 0.3578078,0.7929686 0.79296872,0.7929686 h 3.7050783 c 0.435161,0 0.7929686,-0.3578077 0.7929686,-0.7929686 V 2.3808595 c 0,-0.435161 -0.3578079,-0.7929688 -0.7929686,-0.7929688 h -1.852344 c 0,-0.2649741 -0.2645833,-0.5292968 -0.609375,-0.5292968 z m 0,0.5292968 h 1.0136718 c 0.1819328,0 0.3209204,0.1275558 0.3457032,0.3007813 0.01801,0.1307996 0.1296852,0.2283071 0.2617187,0.2285156 h 1.9941408 c 0.1511556,0 0.2636718,0.1125162 0.2636718,0.2636719 V 4.498047 c 0,0.1511556 -0.1125162,0.2636721 -0.2636718,0.2636721 H 1.3222656 C 1.17111,4.7617191 1.0585937,4.6492026 1.0585938,4.498047 V 2.5566407 2.3808595 1.9414063 c 0,-0.1999242 0.1535914,-0.3535156 0.3535156,-0.3535156 z" id="rect1738" style="color:#000000;font-style:normal;font-variant:normal;font-weight:normal;font-stretch:normal;font-size:medium;line-height:normal;font-family:sans-serif;font-variant-ligatures:normal;font-variant-position:normal;font-variant-caps:normal;font-variant-numeric:normal;font-variant-alternates:normal;font-feature-settings:normal;text-indent:0;text-align:start;text-decoration:none;text-decoration-line:none;text-decoration-style:solid;text-decoration-color:#000000;letter-spacing:normal;word-spacing:normal;text-transform:none;writing-mode:lr-tb;direction:ltr;text-orientation:mixed;dominant-baseline:auto;baseline-shift:baseline;text-anchor:start;white-space:normal;shape-padding:0;clip-rule:nonzero;display:inline;overflow:visible;visibility:visible;opacity:1;isolation:auto;mix-blend-mode:normal;color-interpolation:sRGB;color-interpolation-filters:linearRGB;solid-color:#000000;solid-opacity:1;vector-effect:none;fill:#ffffff;fill-opacity:1;fill-rule:nonzero;stroke:none;stroke-width:0.52916664;stroke-linecap:round;stroke-linejoin:round;stroke-miterlimit:4;stroke-dasharray:none;stroke-dashoffset:204.09448242;stroke-opacity:1;paint-order:stroke fill markers;color-rendering:auto;image-rendering:auto;shape-rendering:auto;text-rendering:auto;enable-background:accumulate"/></svg>