<?xml version="1.0" ?><!-- Uploaded to: SVG Repo, www.svgrepo.com, Generator: SVG Repo Mixer Tools -->
<svg width="800px" height="800px" viewBox="0 0 6.3499998 6.3499998" id="svg8" version="1.1" xmlns="http://www.w3.org/2000/svg" xmlns:cc="http://creativecommons.org/ns#" xmlns:dc="http://purl.org/dc/elements/1.1/" xmlns:rdf="http://www.w3.org/1999/02/22-rdf-syntax-ns#" xmlns:svg="http://www.w3.org/2000/svg"><defs id="defs2"/><path d="m 3.1758117,1.7480468 c -0.500334,0 -0.9121094,0.4117754 -0.9121093,0.9121094 0,0.500334 0.4117754,0.9121093 0.9121093,0.9121093 0.5003342,2e-7 0.9101563,-0.4117752 0.9101563,-0.9121093 0,-0.500334 -0.4098221,-0.9121095 -0.9101563,-0.9121094 z m 0,0.529297 c 0.2143511,-2e-7 0.3808595,0.1684613 0.3808595,0.3828124 0,0.2143512 -0.1665084,0.3828126 -0.3808595,0.3828126 -0.2143511,-1e-7 -0.3828124,-0.1684614 -0.3828124,-0.3828126 -10e-8,-0.2143511 0.1684613,-0.3828124 0.3828124,-0.3828124 z" id="path1794-7" style="color:#000000;font-style:normal;font-variant:normal;font-weight:normal;font-stretch:normal;font-size:medium;line-height:normal;font-family:sans-serif;font-variant-ligatures:normal;font-variant-position:normal;font-variant-caps:normal;font-variant-numeric:normal;font-variant-alternates:normal;font-feature-settings:normal;text-indent:0;text-align:start;text-decoration:none;text-decoration-line:none;text-decoration-style:solid;text-decoration-color:#000000;letter-spacing:normal;word-spacing:normal;text-transform:none;writing-mode:lr-tb;direction:ltr;text-orientation:mixed;dominant-baseline:auto;baseline-shift:baseline;text-anchor:start;white-space:normal;shape-padding:0;clip-rule:nonzero;display:inline;overflow:visible;visibility:visible;opacity:1;isolation:auto;mix-blend-mode:normal;color-interpolation:sRGB;color-interpolation-filters:linearRGB;solid-color:#000000;solid-opacity:1;vector-effect:none;fill:#ff2876;fill-opacity:1;fill-rule:nonzero;stroke:none;stroke-width:0.52916664;stroke-linecap:round;stroke-linejoin:round;stroke-miterlimit:4;stroke-dasharray:none;stroke-dashoffset:0;stroke-opacity:1;paint-order:markers fill stroke;color-rendering:auto;image-rendering:auto;shape-rendering:auto;text-rendering:auto;enable-background:accumulate"/><path d="m 3.1758117,3.9101561 c -0.8011876,0 -1.4994565,0.5567899 -1.6777342,1.3378907 A 0.26460978,0.26460978 0 1 0 2.0137024,5.3652345 C 2.1376978,4.821965 2.6185717,4.4394532 3.1758117,4.4394532 c 0.5572617,0 1.0361821,0.3824848 1.1601564,0.9257813 A 0.26460978,0.26460978 0 1 0 4.8515931,5.2480468 C 4.6733459,4.4669077 3.9770298,3.9101563 3.1758117,3.9101561 Z" id="circle1796-6" style="color:#000000;font-style:normal;font-variant:normal;font-weight:normal;font-stretch:normal;font-size:medium;line-height:normal;font-family:sans-serif;font-variant-ligatures:normal;font-variant-position:normal;font-variant-caps:normal;font-variant-numeric:normal;font-variant-alternates:normal;font-feature-settings:normal;text-indent:0;text-align:start;text-decoration:none;text-decoration-line:none;text-decoration-style:solid;text-decoration-color:#000000;letter-spacing:normal;word-spacing:normal;text-transform:none;writing-mode:lr-tb;direction:ltr;text-orientation:mixed;dominant-baseline:auto;baseline-shift:baseline;text-anchor:start;white-space:normal;shape-padding:0;clip-rule:nonzero;display:inline;overflow:visible;visibility:visible;opacity:1;isolation:auto;mix-blend-mode:normal;color-interpolation:sRGB;color-interpolation-filters:linearRGB;solid-color:#000000;solid-opacity:1;vector-effect:none;fill:#ff2876;fill-opacity:1;fill-rule:nonzero;stroke:none;stroke-width:0.52916664;stroke-linecap:round;stroke-linejoin:round;stroke-miterlimit:4;stroke-dasharray:none;stroke-dashoffset:0;stroke-opacity:1;paint-order:markers fill stroke;color-rendering:auto;image-rendering:auto;shape-rendering:auto;text-rendering:auto;enable-background:accumulate"/><path d="m 1.4687806,0.79296866 c -0.50033399,1e-8 -0.91015626,0.41177544 -0.91015629,0.91210934 -5e-8,0.5003341 0.40982222,0.9121095 0.91015629,0.9121095 0.500334,0 0.9121093,-0.4117754 0.9121093,-0.9121095 -1e-7,-0.500334 -0.4117754,-0.91210939 -0.9121093,-0.91210934 z m 0,0.52929684 c 0.214351,0 0.3828124,0.1684614 0.3828124,0.3828125 0,0.2143513 -0.1684614,0.3828126 -0.3828124,0.3828126 -0.2143511,0 -0.3808594,-0.1684613 -0.3808594,-0.3828126 0,-0.2143511 0.1665083,-0.3828125 0.3808594,-0.3828125 z" id="circle2608" style="color:#000000;font-style:normal;font-variant:normal;font-weight:normal;font-stretch:normal;font-size:medium;line-height:normal;font-family:sans-serif;font-variant-ligatures:normal;font-variant-position:normal;font-variant-caps:normal;font-variant-numeric:normal;font-variant-alternates:normal;font-feature-settings:normal;text-indent:0;text-align:start;text-decoration:none;text-decoration-line:none;text-decoration-style:solid;text-decoration-color:#000000;letter-spacing:normal;word-spacing:normal;text-transform:none;writing-mode:lr-tb;direction:ltr;text-orientation:mixed;dominant-baseline:auto;baseline-shift:baseline;text-anchor:start;white-space:normal;shape-padding:0;clip-rule:nonzero;display:inline;overflow:visible;visibility:visible;opacity:1;isolation:auto;mix-blend-mode:normal;color-interpolation:sRGB;color-interpolation-filters:linearRGB;solid-color:#000000;solid-opacity:1;vector-effect:none;fill:#ffffff;fill-opacity:1;fill-rule:nonzero;stroke:none;stroke-width:0.52916664;stroke-linecap:round;stroke-linejoin:round;stroke-miterlimit:4;stroke-dasharray:none;stroke-dashoffset:0;stroke-opacity:1;paint-order:markers fill stroke;color-rendering:auto;image-rendering:auto;shape-rendering:auto;text-rendering:auto;enable-background:accumulate"/><path d="m 1.4697083,2.9553752 c -0.2786459,0 -0.55325163,0.067855 -0.79995119,0.197404 A 0.26466516,0.26466516 0 1 0 0.91573692,3.6214843 C 1.086569,3.5317757 1.2767545,3.4845418 1.4697083,3.4845418 c 0.1478605,0 0.29423,0.027484 0.4320149,0.081132 A 0.26460978,0.26460978 0 1 0 2.0939595,3.0726806 C 1.8949732,2.9952037 1.6832456,2.9553752 1.4697083,2.9553752 Z" id="path2660" style="color:#000000;font-style:normal;font-variant:normal;font-weight:normal;font-stretch:normal;font-size:medium;line-height:normal;font-family:sans-serif;font-variant-ligatures:normal;font-variant-position:normal;font-variant-caps:normal;font-variant-numeric:normal;font-variant-alternates:normal;font-feature-settings:normal;text-indent:0;text-align:start;text-decoration:none;text-decoration-line:none;text-decoration-style:solid;text-decoration-color:#000000;letter-spacing:normal;word-spacing:normal;text-transform:none;writing-mode:lr-tb;direction:ltr;text-orientation:mixed;dominant-baseline:auto;baseline-shift:baseline;text-anchor:start;white-space:normal;shape-padding:0;clip-rule:nonzero;display:inline;overflow:visible;visibility:visible;opacity:1;isolation:auto;mix-blend-mode:normal;color-interpolation:sRGB;color-interpolation-filters:linearRGB;solid-color:#000000;solid-opacity:1;vector-effect:none;fill:#ffffff;fill-opacity:1;fill-rule:nonzero;stroke:none;stroke-width:0.52916664;stroke-linecap:round;stroke-linejoin:round;stroke-miterlimit:4;stroke-dasharray:none;stroke-dashoffset:0;stroke-opacity:1;paint-order:markers fill stroke;color-rendering:auto;image-rendering:auto;shape-rendering:auto;text-rendering:auto;enable-background:accumulate"/><path d="m 4.9101866,0.79296866 c -0.5003337,3e-8 -0.9121092,0.41177544 -0.9121092,0.91210934 0,0.5003341 0.4117753,0.9121095 0.9121092,0.9121095 0.5003342,0 0.9101563,-0.4117754 0.9101563,-0.9121095 0,-0.500334 -0.4098221,-0.91210939 -0.9101563,-0.91210934 z m 0,0.52929684 c 0.2143514,0 0.3808595,0.1684614 0.3808595,0.3828125 0,0.2143513 -0.1665081,0.3828126 -0.3808595,0.3828126 -0.2143508,0 -0.3828124,-0.1684614 -0.3828124,-0.3828126 0,-0.2143511 0.1684616,-0.3828125 0.3828124,-0.3828125 z" id="circle2616" style="color:#000000;font-style:normal;font-variant:normal;font-weight:normal;font-stretch:normal;font-size:medium;line-height:normal;font-family:sans-serif;font-variant-ligatures:normal;font-variant-position:normal;font-variant-caps:normal;font-variant-numeric:normal;font-variant-alternates:normal;font-feature-settings:normal;text-indent:0;text-align:start;text-decoration:none;text-decoration-line:none;text-decoration-style:solid;text-decoration-color:#000000;letter-spacing:normal;word-spacing:normal;text-transform:none;writing-mode:lr-tb;direction:ltr;text-orientation:mixed;dominant-baseline:auto;baseline-shift:baseline;text-anchor:start;white-space:normal;shape-padding:0;clip-rule:nonzero;display:inline;overflow:visible;visibility:visible;opacity:1;isolation:auto;mix-blend-mode:normal;color-interpolation:sRGB;color-interpolation-filters:linearRGB;solid-color:#000000;solid-opacity:1;vector-effect:none;fill:#ffffff;fill-opacity:1;fill-rule:nonzero;stroke:none;stroke-width:0.52916664;stroke-linecap:round;stroke-linejoin:round;stroke-miterlimit:4;stroke-dasharray:none;stroke-dashoffset:0;stroke-opacity:1;paint-order:markers fill stroke;color-rendering:auto;image-rendering:auto;shape-rendering:auto;text-rendering:auto;enable-background:accumulate"/><path d="m 4.9092915,2.9553752 c -0.205418,0 -0.4090662,0.036685 -0.6015137,0.1085204 a 0.26473319,0.26473319 0 1 0 0.1850016,0.4960937 c 0.1332566,-0.049741 0.2742745,-0.075447 0.4165121,-0.075447 0.183855,0 0.3650176,0.042761 0.5296834,0.1245402 A 0.2646151,0.2646151 0 1 0 5.6746197,3.135209 C 5.4368212,3.0171093 5.1748014,2.9553752 4.9092915,2.9553752 Z" id="path2631" style="color:#000000;font-style:normal;font-variant:normal;font-weight:normal;font-stretch:normal;font-size:medium;line-height:normal;font-family:sans-serif;font-variant-ligatures:normal;font-variant-position:normal;font-variant-caps:normal;font-variant-numeric:normal;font-variant-alternates:normal;font-feature-settings:normal;text-indent:0;text-align:start;text-decoration:none;text-decoration-line:none;text-decoration-style:solid;text-decoration-color:#000000;letter-spacing:normal;word-spacing:normal;text-transform:none;writing-mode:lr-tb;direction:ltr;text-orientation:mixed;dominant-baseline:auto;baseline-shift:baseline;text-anchor:start;white-space:normal;shape-padding:0;clip-rule:nonzero;display:inline;overflow:visible;visibility:visible;opacity:1;isolation:auto;mix-blend-mode:normal;color-interpolation:sRGB;color-interpolation-filters:linearRGB;solid-color:#000000;solid-opacity:1;vector-effect:none;fill:#ffffff;fill-opacity:1;fill-rule:nonzero;stroke:none;stroke-width:0.52916664;stroke-linecap:round;stroke-linejoin:round;stroke-miterlimit:4;stroke-dasharray:none;stroke-dashoffset:0;stroke-opacity:1;paint-order:markers fill stroke;color-rendering:auto;image-rendering:auto;shape-rendering:auto;text-rendering:auto;enable-background:accumulate"/></svg>