<?xml version="1.0" ?><!-- Uploaded to: SVG Repo, www.svgrepo.com, Generator: SVG Repo Mixer Tools -->
<svg width="800px" height="800px" viewBox="0 0 6.3499998 6.3499998" id="svg8" version="1.1" xmlns="http://www.w3.org/2000/svg" xmlns:cc="http://creativecommons.org/ns#" xmlns:dc="http://purl.org/dc/elements/1.1/" xmlns:inkscape="http://www.inkscape.org/namespaces/inkscape" xmlns:rdf="http://www.w3.org/1999/02/22-rdf-syntax-ns#" xmlns:sodipodi="http://sodipodi.sourceforge.net/DTD/sodipodi-0.dtd" xmlns:svg="http://www.w3.org/2000/svg"><defs id="defs2"/><path d="m 1.9648439,2.0996095 a 0.26460978,0.26460978 0 0 0 -0.1132813,0.035156 l -1.1894532,0.6875 A 0.26460978,0.26460978 0 1 0 0.92578126,3.279297 L 1.9843751,2.6679689 4.1015625,3.890625 a 0.26460978,0.26460978 0 0 0 0.201172,0.027344 L 5.625,3.5625001 A 0.26483399,0.26483399 0 1 0 5.4882813,3.0507813 L 4.2714846,3.3769532 2.1171876,2.1347657 A 0.26460978,0.26460978 0 0 0 1.9648439,2.0996095 Z" id="path2556" style="color:#000000;font-style:normal;font-variant:normal;font-weight:normal;font-stretch:normal;font-size:medium;line-height:normal;font-family:sans-serif;font-variant-ligatures:normal;font-variant-position:normal;font-variant-caps:normal;font-variant-numeric:normal;font-variant-alternates:normal;font-feature-settings:normal;text-indent:0;text-align:start;text-decoration:none;text-decoration-line:none;text-decoration-style:solid;text-decoration-color:#000000;letter-spacing:normal;word-spacing:normal;text-transform:none;writing-mode:lr-tb;direction:ltr;text-orientation:mixed;dominant-baseline:auto;baseline-shift:baseline;text-anchor:start;white-space:normal;shape-padding:0;clip-rule:nonzero;display:inline;overflow:visible;visibility:visible;opacity:1;isolation:auto;mix-blend-mode:normal;color-interpolation:sRGB;color-interpolation-filters:linearRGB;solid-color:#000000;solid-opacity:1;vector-effect:none;fill:#ff2876;fill-opacity:1;fill-rule:nonzero;stroke:none;stroke-width:0.52916664;stroke-linecap:round;stroke-linejoin:round;stroke-miterlimit:4;stroke-dasharray:none;stroke-dashoffset:0;stroke-opacity:1;paint-order:markers fill stroke;color-rendering:auto;image-rendering:auto;shape-rendering:auto;text-rendering:auto;enable-background:accumulate"/><path d="m 4.3652344,1.7207032 c -0.3621794,0 -0.6601563,0.2979768 -0.6601563,0.6601563 0,0.3621794 0.2979769,0.6621094 0.6601563,0.6621094 0.3621794,0 0.6621094,-0.29993 0.6621094,-0.6621094 0,-0.3621795 -0.29993,-0.6601563 -0.6621094,-0.6601563 z m 0,0.5273438 c 0.076196,0 0.1328126,0.056616 0.1328126,0.1328125 0,0.076196 -0.056616,0.1328125 -0.1328126,0.1328125 -0.076197,0 -0.1328124,-0.056616 -0.1328124,-0.1328125 0,-0.076197 0.056616,-0.1328125 0.1328124,-0.1328125 z" id="path2558" style="color:#000000;font-style:normal;font-variant:normal;font-weight:normal;font-stretch:normal;font-size:medium;line-height:normal;font-family:sans-serif;font-variant-ligatures:normal;font-variant-position:normal;font-variant-caps:normal;font-variant-numeric:normal;font-variant-alternates:normal;font-feature-settings:normal;text-indent:0;text-align:start;text-decoration:none;text-decoration-line:none;text-decoration-style:solid;text-decoration-color:#000000;letter-spacing:normal;word-spacing:normal;text-transform:none;writing-mode:lr-tb;direction:ltr;text-orientation:mixed;dominant-baseline:auto;baseline-shift:baseline;text-anchor:start;white-space:normal;shape-padding:0;clip-rule:nonzero;display:inline;overflow:visible;visibility:visible;opacity:1;isolation:auto;mix-blend-mode:normal;color-interpolation:sRGB;color-interpolation-filters:linearRGB;solid-color:#000000;solid-opacity:1;vector-effect:none;fill:#ff2876;fill-opacity:1;fill-rule:nonzero;stroke:none;stroke-width:0.52916664;stroke-linecap:round;stroke-linejoin:round;stroke-miterlimit:4;stroke-dasharray:none;stroke-dashoffset:0;stroke-opacity:1;paint-order:markers fill stroke;color-rendering:auto;image-rendering:auto;shape-rendering:auto;text-rendering:auto;enable-background:accumulate"/><path d="m 1.4550781,1.0585939 c -0.50845045,-1e-7 -0.92578121,0.4173307 -0.9257812,0.9257812 v 2.3808595 c 0,0.5084503 0.41733075,0.925781 0.9257812,0.925781 h 3.4394531 c 0.5084506,0 0.9257813,-0.4173307 0.9257813,-0.925781 V 1.9843751 c 0,-0.5084505 -0.4173307,-0.9257812 -0.9257813,-0.9257812 z m 0,0.5292968 h 3.4394531 c 0.2244455,0 0.3964845,0.1720391 0.3964845,0.3964844 v 2.3808595 c 0,0.2244452 -0.172039,0.3964845 -0.3964845,0.3964845 H 1.4550781 c -0.2244453,0 -0.3964843,-0.1720393 -0.3964843,-0.3964845 V 1.9843751 c 0,-0.2244453 0.172039,-0.3964844 0.3964843,-0.3964844 z" id="rect2554" style="color:#000000;font-style:normal;font-variant:normal;font-weight:normal;font-stretch:normal;font-size:medium;line-height:normal;font-family:sans-serif;font-variant-ligatures:normal;font-variant-position:normal;font-variant-caps:normal;font-variant-numeric:normal;font-variant-alternates:normal;font-feature-settings:normal;text-indent:0;text-align:start;text-decoration:none;text-decoration-line:none;text-decoration-style:solid;text-decoration-color:#000000;letter-spacing:normal;word-spacing:normal;text-transform:none;writing-mode:lr-tb;direction:ltr;text-orientation:mixed;dominant-baseline:auto;baseline-shift:baseline;text-anchor:start;white-space:normal;shape-padding:0;clip-rule:nonzero;display:inline;overflow:visible;visibility:visible;opacity:1;isolation:auto;mix-blend-mode:normal;color-interpolation:sRGB;color-interpolation-filters:linearRGB;solid-color:#000000;solid-opacity:1;vector-effect:none;fill:#ffffff;fill-opacity:1;fill-rule:nonzero;stroke:none;stroke-width:0.52916664;stroke-linecap:round;stroke-linejoin:round;stroke-miterlimit:4;stroke-dasharray:none;stroke-dashoffset:0;stroke-opacity:1;paint-order:markers fill stroke;color-rendering:auto;image-rendering:auto;shape-rendering:auto;text-rendering:auto;enable-background:accumulate"/></svg>