<?xml version="1.0" ?><!-- Uploaded to: SVG Repo, www.svgrepo.com, Generator: SVG Repo Mixer Tools -->
<svg width="800px" height="800px" viewBox="0 0 6.3499998 6.3499998" id="svg8" version="1.1" xmlns="http://www.w3.org/2000/svg" xmlns:cc="http://creativecommons.org/ns#" xmlns:dc="http://purl.org/dc/elements/1.1/" xmlns:rdf="http://www.w3.org/1999/02/22-rdf-syntax-ns#" xmlns:svg="http://www.w3.org/2000/svg"><defs id="defs2"/><path d="m 1.4746094,0.52929682 c -0.51891292,-1e-8 -0.94531252,0.4263996 -0.94531252,0.94531258 v 3.4003905 c 0,0.5189129 0.4263996,0.9453125 0.94531252,0.9453125 H 4.875 c 0.5189129,0 0.9453125,-0.4263996 0.9453125,-0.9453125 V 1.4746094 C 5.8203125,0.95569642 5.3939129,0.52929681 4.875,0.52929682 Z m 0,0.52929698 H 4.875 c 0.2349076,0 0.4160157,0.1811079 0.4160157,0.4160156 v 3.4003905 c 0,0.2349076 -0.1811081,0.4160157 -0.4160157,0.4160157 H 1.4746094 c -0.2349077,0 -0.4160156,-0.1811081 -0.4160156,-0.4160157 V 1.4746094 c 0,-0.2349077 0.1811079,-0.4160158 0.4160156,-0.4160156 z" id="rect1063" style="color:#000000;font-style:normal;font-variant:normal;font-weight:normal;font-stretch:normal;font-size:medium;line-height:normal;font-family:sans-serif;font-variant-ligatures:normal;font-variant-position:normal;font-variant-caps:normal;font-variant-numeric:normal;font-variant-alternates:normal;font-feature-settings:normal;text-indent:0;text-align:start;text-decoration:none;text-decoration-line:none;text-decoration-style:solid;text-decoration-color:#000000;letter-spacing:normal;word-spacing:normal;text-transform:none;writing-mode:lr-tb;direction:ltr;text-orientation:mixed;dominant-baseline:auto;baseline-shift:baseline;text-anchor:start;white-space:normal;shape-padding:0;clip-rule:nonzero;display:inline;overflow:visible;visibility:visible;opacity:1;isolation:auto;mix-blend-mode:normal;color-interpolation:sRGB;color-interpolation-filters:linearRGB;solid-color:#000000;solid-opacity:1;vector-effect:none;fill:#ffffff;fill-opacity:1;fill-rule:nonzero;stroke:none;stroke-width:0.52916664;stroke-linecap:round;stroke-linejoin:round;stroke-miterlimit:4;stroke-dasharray:none;stroke-dashoffset:204.09448242;stroke-opacity:1;paint-order:stroke fill markers;color-rendering:auto;image-rendering:auto;shape-rendering:auto;text-rendering:auto;enable-background:accumulate"/><path d="m 2.9858642,1.3229165 c -0.330326,0 -0.6046142,0.2742883 -0.6046142,0.6046143 V 2.1166665 H 1.9275309 c -0.3303259,0 -0.6046143,0.2742884 -0.6046143,0.6046142 V 4.422469 c 0,0.3303259 0.2742883,0.6046142 0.6046143,0.6046142 h 2.4949382 c 0.3303259,0 0.6046142,-0.2742883 0.6046142,-0.6046142 V 2.7212807 c 0,-0.3303259 -0.2742883,-0.6046142 -0.6046142,-0.6046142 H 3.96875 V 1.9275308 c 0,-0.330326 -0.2742883,-0.6046143 -0.6046142,-0.6046143 z m 0,0.5291667 h 0.3782716 c 0.046584,0 0.075447,0.028863 0.075447,0.075448 v 0.4537187 a 0.26460978,0.26460978 0 0 0 0.2645833,0.2645833 h 0.7183024 c 0.046584,0 0.075448,0.028863 0.075448,0.075448 v 1.7011883 c 0,0.046584 -0.028863,0.075448 -0.075448,0.075448 H 1.9275309 c -0.046584,0 -0.075448,-0.028863 -0.075448,-0.075448 V 2.7212807 c 0,-0.046584 0.028863,-0.075448 0.075448,-0.075448 H 2.6458333 A 0.26460978,0.26460978 0 0 0 2.9104166,2.3812499 V 1.9275308 c 0,-0.046584 0.028863,-0.075448 0.075448,-0.075448 z" id="rect1065" style="color:#000000;font-style:normal;font-variant:normal;font-weight:normal;font-stretch:normal;font-size:medium;line-height:normal;font-family:sans-serif;font-variant-ligatures:normal;font-variant-position:normal;font-variant-caps:normal;font-variant-numeric:normal;font-variant-alternates:normal;font-feature-settings:normal;text-indent:0;text-align:start;text-decoration:none;text-decoration-line:none;text-decoration-style:solid;text-decoration-color:#000000;letter-spacing:normal;word-spacing:normal;text-transform:none;writing-mode:lr-tb;direction:ltr;text-orientation:mixed;dominant-baseline:auto;baseline-shift:baseline;text-anchor:start;white-space:normal;shape-padding:0;clip-rule:nonzero;display:inline;overflow:visible;visibility:visible;opacity:1;isolation:auto;mix-blend-mode:normal;color-interpolation:sRGB;color-interpolation-filters:linearRGB;solid-color:#000000;solid-opacity:1;vector-effect:none;fill:#ff2876;fill-opacity:1;fill-rule:nonzero;stroke:none;stroke-width:0.52916664;stroke-linecap:round;stroke-linejoin:round;stroke-miterlimit:4;stroke-dasharray:none;stroke-dashoffset:204.09448242;stroke-opacity:1;paint-order:stroke fill markers;color-rendering:auto;image-rendering:auto;shape-rendering:auto;text-rendering:auto;enable-background:accumulate"/><path d="m 1.5878906,1.3222655 a 0.26464847,0.26464847 0 1 0 0,0.5292969 h 0.2636719 a 0.26464845,0.26464845 0 1 0 0,-0.5292969 z" id="path1073" style="color:#000000;font-style:normal;font-variant:normal;font-weight:normal;font-stretch:normal;font-size:medium;line-height:normal;font-family:sans-serif;font-variant-ligatures:normal;font-variant-position:normal;font-variant-caps:normal;font-variant-numeric:normal;font-variant-alternates:normal;font-feature-settings:normal;text-indent:0;text-align:start;text-decoration:none;text-decoration-line:none;text-decoration-style:solid;text-decoration-color:#000000;letter-spacing:normal;word-spacing:normal;text-transform:none;writing-mode:lr-tb;direction:ltr;text-orientation:mixed;dominant-baseline:auto;baseline-shift:baseline;text-anchor:start;white-space:normal;shape-padding:0;clip-rule:nonzero;display:inline;overflow:visible;visibility:visible;opacity:1;isolation:auto;mix-blend-mode:normal;color-interpolation:sRGB;color-interpolation-filters:linearRGB;solid-color:#000000;solid-opacity:1;vector-effect:none;fill:#ffffff;fill-opacity:1;fill-rule:nonzero;stroke:none;stroke-width:0.52916664;stroke-linecap:round;stroke-linejoin:round;stroke-miterlimit:4;stroke-dasharray:none;stroke-dashoffset:204.09448242;stroke-opacity:1;paint-order:stroke fill markers;color-rendering:auto;image-rendering:auto;shape-rendering:auto;text-rendering:auto;enable-background:accumulate"/><path d="m 4.498047,1.3222655 a 0.26464847,0.26464847 0 1 0 0,0.5292969 h 0.2636719 a 0.26464845,0.26464845 0 1 0 0,-0.5292969 z" id="path1075" style="color:#000000;font-style:normal;font-variant:normal;font-weight:normal;font-stretch:normal;font-size:medium;line-height:normal;font-family:sans-serif;font-variant-ligatures:normal;font-variant-position:normal;font-variant-caps:normal;font-variant-numeric:normal;font-variant-alternates:normal;font-feature-settings:normal;text-indent:0;text-align:start;text-decoration:none;text-decoration-line:none;text-decoration-style:solid;text-decoration-color:#000000;letter-spacing:normal;word-spacing:normal;text-transform:none;writing-mode:lr-tb;direction:ltr;text-orientation:mixed;dominant-baseline:auto;baseline-shift:baseline;text-anchor:start;white-space:normal;shape-padding:0;clip-rule:nonzero;display:inline;overflow:visible;visibility:visible;opacity:1;isolation:auto;mix-blend-mode:normal;color-interpolation:sRGB;color-interpolation-filters:linearRGB;solid-color:#000000;solid-opacity:1;vector-effect:none;fill:#ffffff;fill-opacity:1;fill-rule:nonzero;stroke:none;stroke-width:0.52916664;stroke-linecap:round;stroke-linejoin:round;stroke-miterlimit:4;stroke-dasharray:none;stroke-dashoffset:204.09448242;stroke-opacity:1;paint-order:stroke fill markers;color-rendering:auto;image-rendering:auto;shape-rendering:auto;text-rendering:auto;enable-background:accumulate"/></svg>