<?xml version="1.0" ?><!-- Uploaded to: SVG Repo, www.svgrepo.com, Generator: SVG Repo Mixer Tools -->
<svg width="800px" height="800px" viewBox="0 0 6.3499998 6.3499998" id="svg8" version="1.1" xmlns="http://www.w3.org/2000/svg" xmlns:cc="http://creativecommons.org/ns#" xmlns:dc="http://purl.org/dc/elements/1.1/" xmlns:rdf="http://www.w3.org/1999/02/22-rdf-syntax-ns#" xmlns:svg="http://www.w3.org/2000/svg"><defs id="defs2"/><path d="m 5.2910158,1.8515626 c 0,-0.4351608 -0.357808,-0.7929687 -0.792969,-0.7929687 H 1.8515625 c -0.4351608,0 -0.7929687,0.3578079 -0.7929687,0.7929687 V 4.232422 A 0.26460981,0.26460981 0 0 0 1.3222656,4.498047 H 1.8515625 4.4980468 5.0273439 A 0.26460981,0.26460981 0 0 0 5.2910158,4.232422 Z m -0.5292969,0 V 3.9687501 H 4.4980468 1.8515625 1.5878906 V 1.8515626 c 0,-0.1511556 0.1125163,-0.2636719 0.2636719,-0.2636719 h 2.6464843 c 0.1511557,0 0.2636721,0.1125163 0.2636721,0.2636719 z" id="rect2258-6" style="color:#000000;font-style:normal;font-variant:normal;font-weight:normal;font-stretch:normal;font-size:medium;line-height:normal;font-family:sans-serif;font-variant-ligatures:normal;font-variant-position:normal;font-variant-caps:normal;font-variant-numeric:normal;font-variant-alternates:normal;font-feature-settings:normal;text-indent:0;text-align:start;text-decoration:none;text-decoration-line:none;text-decoration-style:solid;text-decoration-color:#000000;letter-spacing:normal;word-spacing:normal;text-transform:none;writing-mode:lr-tb;direction:ltr;text-orientation:mixed;dominant-baseline:auto;baseline-shift:baseline;text-anchor:start;white-space:normal;shape-padding:0;clip-rule:nonzero;display:inline;overflow:visible;visibility:visible;opacity:1;isolation:auto;mix-blend-mode:normal;color-interpolation:sRGB;color-interpolation-filters:linearRGB;solid-color:#000000;solid-opacity:1;vector-effect:none;fill:#ffffff;fill-opacity:1;fill-rule:nonzero;stroke:none;stroke-width:0.5291667;stroke-linecap:round;stroke-linejoin:round;stroke-miterlimit:4;stroke-dasharray:none;stroke-dashoffset:0;stroke-opacity:1;paint-order:markers fill stroke;color-rendering:auto;image-rendering:auto;shape-rendering:auto;text-rendering:auto;enable-background:accumulate"/><path d="M 0.79296875,3.9687501 A 0.26460978,0.26460978 0 0 0 0.52929688,4.232422 c -10e-9,0.1465791 -0.008886,0.3754847 0.0859375,0.6074219 0.0948231,0.2319372 0.35901601,0.4511717 0.70703122,0.4511717 h 3.7050783 c 0.3480152,0 0.612208,-0.2192345 0.7070312,-0.4511717 0.094823,-0.2319372 0.085937,-0.4608428 0.085937,-0.6074219 A 0.26460978,0.26460978 0 0 0 5.5566407,3.9687501 Z M 1.0898438,4.498047 h 4.1718749 c -0.00697,0.046544 -0.00254,0.1105685 -0.015626,0.1425781 -0.037469,0.091648 -0.037599,0.121094 -0.2187498,0.121094 H 1.3222656 c -0.1811514,0 -0.1793283,-0.029446 -0.2167968,-0.121094 -0.013079,-0.031992 -0.00866,-0.096065 -0.015625,-0.1425781 z" id="rect2305" style="color:#000000;font-style:normal;font-variant:normal;font-weight:normal;font-stretch:normal;font-size:medium;line-height:normal;font-family:sans-serif;font-variant-ligatures:normal;font-variant-position:normal;font-variant-caps:normal;font-variant-numeric:normal;font-variant-alternates:normal;font-feature-settings:normal;text-indent:0;text-align:start;text-decoration:none;text-decoration-line:none;text-decoration-style:solid;text-decoration-color:#000000;letter-spacing:normal;word-spacing:normal;text-transform:none;writing-mode:lr-tb;direction:ltr;text-orientation:mixed;dominant-baseline:auto;baseline-shift:baseline;text-anchor:start;white-space:normal;shape-padding:0;clip-rule:nonzero;display:inline;overflow:visible;visibility:visible;opacity:1;isolation:auto;mix-blend-mode:normal;color-interpolation:sRGB;color-interpolation-filters:linearRGB;solid-color:#000000;solid-opacity:1;vector-effect:none;fill:#ff2876;fill-opacity:1;fill-rule:nonzero;stroke:none;stroke-width:0.52916664;stroke-linecap:round;stroke-linejoin:round;stroke-miterlimit:4;stroke-dasharray:none;stroke-dashoffset:0;stroke-opacity:1;paint-order:markers fill stroke;color-rendering:auto;image-rendering:auto;shape-rendering:auto;text-rendering:auto;enable-background:accumulate"/></svg>