<?xml version="1.0" ?><!-- Uploaded to: SVG Repo, www.svgrepo.com, Generator: SVG Repo Mixer Tools -->
<svg width="800px" height="800px" viewBox="0 0 6.3499998 6.3499998" id="svg8" version="1.1" xmlns="http://www.w3.org/2000/svg" xmlns:cc="http://creativecommons.org/ns#" xmlns:dc="http://purl.org/dc/elements/1.1/" xmlns:rdf="http://www.w3.org/1999/02/22-rdf-syntax-ns#" xmlns:svg="http://www.w3.org/2000/svg"><defs id="defs2"/><path d="m 3.1757812,0.26367184 c -1.1658682,6e-8 -2.1171876,0.95131916 -2.1171874,2.11718746 0,0.7849302 0.4969305,1.652624 0.9707031,2.3632813 0.4737725,0.7106571 0.9472656,1.2499999 0.9472656,1.2499999 a 0.26460981,0.26460981 0 0 0 0.3847656,0.013671 c 0,0 0.4797541,-0.4783338 0.9570312,-1.1601563 0.4772771,-0.6818225 0.9726562,-1.5701539 0.9726562,-2.4667968 0,-1.1658672 -0.949366,-2.11718646 -2.1152343,-2.11718656 z m 0,0.52929688 c 0.8798855,0 1.5859378,0.70800518 1.5859378,1.58789058 0,0.690856 -0.4281893,1.5229726 -0.8769533,2.1640625 C 3.534083,5.0458955 3.3198241,5.2510111 3.1835938,5.3945312 3.0487931,5.2346961 2.8256176,4.986472 2.46875,4.4511718 2.0164815,3.7727706 1.5878907,2.9188448 1.5878906,2.3808593 1.5878905,1.5009739 2.2958959,0.79296877 3.1757812,0.79296872 Z" id="path1992" style="color:#000000;font-style:normal;font-variant:normal;font-weight:normal;font-stretch:normal;font-size:medium;line-height:normal;font-family:sans-serif;font-variant-ligatures:normal;font-variant-position:normal;font-variant-caps:normal;font-variant-numeric:normal;font-variant-alternates:normal;font-feature-settings:normal;text-indent:0;text-align:start;text-decoration:none;text-decoration-line:none;text-decoration-style:solid;text-decoration-color:#000000;letter-spacing:normal;word-spacing:normal;text-transform:none;writing-mode:lr-tb;direction:ltr;text-orientation:mixed;dominant-baseline:auto;baseline-shift:baseline;text-anchor:start;white-space:normal;shape-padding:0;clip-rule:nonzero;display:inline;overflow:visible;visibility:visible;opacity:1;isolation:auto;mix-blend-mode:normal;color-interpolation:sRGB;color-interpolation-filters:linearRGB;solid-color:#000000;solid-opacity:1;vector-effect:none;fill:#ffffff;fill-opacity:1;fill-rule:nonzero;stroke:none;stroke-width:0.5291667;stroke-linecap:round;stroke-linejoin:round;stroke-miterlimit:4;stroke-dasharray:none;stroke-dashoffset:0;stroke-opacity:1;paint-order:markers fill stroke;color-rendering:auto;image-rendering:auto;shape-rendering:auto;text-rendering:auto;enable-background:accumulate"/><path d="m 3.1757812,1.3222655 c -0.5813668,10e-8 -1.0585937,0.4772269 -1.0585937,1.0585938 0,0.5813669 0.4772269,1.0585937 1.0585937,1.0585937 0.581367,0 1.0566407,-0.4772268 1.0566407,-1.0585937 0,-0.5813669 -0.4752737,-1.0585938 -1.0566407,-1.0585938 z m 0,0.5292969 c 0.295384,0 0.529297,0.2339129 0.529297,0.5292969 0,0.295384 -0.233913,0.5292969 -0.529297,0.5292969 -0.2953839,0 -0.5292968,-0.233913 -0.5292968,-0.5292969 0,-0.295384 0.2339129,-0.5292969 0.5292968,-0.5292969 z" id="path1995" style="color:#000000;font-style:normal;font-variant:normal;font-weight:normal;font-stretch:normal;font-size:medium;line-height:normal;font-family:sans-serif;font-variant-ligatures:normal;font-variant-position:normal;font-variant-caps:normal;font-variant-numeric:normal;font-variant-alternates:normal;font-feature-settings:normal;text-indent:0;text-align:start;text-decoration:none;text-decoration-line:none;text-decoration-style:solid;text-decoration-color:#000000;letter-spacing:normal;word-spacing:normal;text-transform:none;writing-mode:lr-tb;direction:ltr;text-orientation:mixed;dominant-baseline:auto;baseline-shift:baseline;text-anchor:start;white-space:normal;shape-padding:0;clip-rule:nonzero;display:inline;overflow:visible;visibility:visible;opacity:1;isolation:auto;mix-blend-mode:normal;color-interpolation:sRGB;color-interpolation-filters:linearRGB;solid-color:#000000;solid-opacity:1;vector-effect:none;fill:#ff2876;fill-opacity:1;fill-rule:nonzero;stroke:none;stroke-width:0.5291667;stroke-linecap:round;stroke-linejoin:round;stroke-miterlimit:4;stroke-dasharray:none;stroke-dashoffset:0;stroke-opacity:1;paint-order:markers fill stroke;color-rendering:auto;image-rendering:auto;shape-rendering:auto;text-rendering:auto;enable-background:accumulate"/></svg>