<?xml version="1.0" ?><!-- Uploaded to: SVG Repo, www.svgrepo.com, Generator: SVG Repo Mixer Tools -->
<svg width="800px" height="800px" viewBox="0 0 6.3499998 6.3499998" id="svg8" version="1.1" xmlns="http://www.w3.org/2000/svg" xmlns:cc="http://creativecommons.org/ns#" xmlns:dc="http://purl.org/dc/elements/1.1/" xmlns:rdf="http://www.w3.org/1999/02/22-rdf-syntax-ns#" xmlns:svg="http://www.w3.org/2000/svg"><defs id="defs2"/><path d="m 2.1835938,0.72070302 c -0.4271174,0 -0.8546461,0.16323989 -1.1796876,0.48828128 -0.65008277,0.6500828 -0.65008277,1.707339 0,2.3574219 l 1.984375,1.9843749 a 0.26460976,0.26460976 0 0 0 0.373047,0 L 5.3457031,3.5664062 c 0.6500828,-0.6500829 0.6500828,-1.7073391 0,-2.3574219 C 4.7473328,0.61061415 3.8291869,0.62768703 3.1757812,1.1308593 2.8770626,0.90036497 2.5432669,0.72070302 2.1835938,0.72070302 Z m 0,0.52539068 c 0.2902341,-1e-7 0.5800571,0.1113071 0.8046874,0.3359374 a 0.26460976,0.26460976 0 0 0 0.373047,0 c 0.4492606,-0.4492607 1.1620671,-0.4492608 1.611328,0 0.4492609,0.4492608 0.4492609,1.1620674 0,1.6113282 L 3.1757812,4.9902344 1.3769531,3.1933593 c -0.44926078,-0.4492608 -0.44926078,-1.1620674 0,-1.6113282 C 1.6015836,1.3574007 1.8933596,1.2460937 2.1835938,1.2460937 Z" id="rect2507" style="color:#000000;font-style:normal;font-variant:normal;font-weight:normal;font-stretch:normal;font-size:medium;line-height:normal;font-family:sans-serif;font-variant-ligatures:normal;font-variant-position:normal;font-variant-caps:normal;font-variant-numeric:normal;font-variant-alternates:normal;font-feature-settings:normal;text-indent:0;text-align:start;text-decoration:none;text-decoration-line:none;text-decoration-style:solid;text-decoration-color:#000000;letter-spacing:normal;word-spacing:normal;text-transform:none;writing-mode:lr-tb;direction:ltr;text-orientation:mixed;dominant-baseline:auto;baseline-shift:baseline;text-anchor:start;white-space:normal;shape-padding:0;clip-rule:nonzero;display:inline;overflow:visible;visibility:visible;opacity:1;isolation:auto;mix-blend-mode:normal;color-interpolation:sRGB;color-interpolation-filters:linearRGB;solid-color:#000000;solid-opacity:1;vector-effect:none;fill:#ffffff;fill-opacity:1;fill-rule:nonzero;stroke:none;stroke-width:0.52916658;stroke-linecap:round;stroke-linejoin:round;stroke-miterlimit:4;stroke-dasharray:none;stroke-dashoffset:0;stroke-opacity:1;paint-order:markers fill stroke;color-rendering:auto;image-rendering:auto;shape-rendering:auto;text-rendering:auto;enable-background:accumulate"/></svg>