<?xml version="1.0" ?><!-- Uploaded to: SVG Repo, www.svgrepo.com, Generator: SVG Repo Mixer Tools -->
<svg width="800px" height="800px" viewBox="0 0 6.3499998 6.3499998" id="svg8" version="1.1" xmlns="http://www.w3.org/2000/svg" xmlns:cc="http://creativecommons.org/ns#" xmlns:dc="http://purl.org/dc/elements/1.1/" xmlns:rdf="http://www.w3.org/1999/02/22-rdf-syntax-ns#" xmlns:svg="http://www.w3.org/2000/svg"><defs id="defs2"/><path d="m 3.1757812,1.3222655 c -1.652881,0 -2.85937495,1.6953125 -2.85937495,1.6953125 a 0.26460978,0.26460978 0 0 0 0,0.3164063 c 0,0 1.20649385,1.6933595 2.85937495,1.6933595 1.6528812,0 2.8574219,-1.6933595 2.8574219,-1.6933595 a 0.26460978,0.26460978 0 0 0 0,-0.3164063 c 0,0 -1.2045407,-1.6953125 -2.8574219,-1.6953125 z m 0,0.5292969 c 1.1343097,0 2.0644334,1.0722119 2.2753907,1.3242187 -0.2111875,0.2522593 -1.141259,1.3222656 -2.2753907,1.3222656 -1.1339525,0 -2.0639717,-1.0697528 -2.27539057,-1.3222656 C 1.1115781,2.9235219 2.0416498,1.8515624 3.1757812,1.8515624 Z" id="path1998" style="color:#000000;font-style:normal;font-variant:normal;font-weight:normal;font-stretch:normal;font-size:medium;line-height:normal;font-family:sans-serif;font-variant-ligatures:normal;font-variant-position:normal;font-variant-caps:normal;font-variant-numeric:normal;font-variant-alternates:normal;font-feature-settings:normal;text-indent:0;text-align:start;text-decoration:none;text-decoration-line:none;text-decoration-style:solid;text-decoration-color:#000000;letter-spacing:normal;word-spacing:normal;text-transform:none;writing-mode:lr-tb;direction:ltr;text-orientation:mixed;dominant-baseline:auto;baseline-shift:baseline;text-anchor:start;white-space:normal;shape-padding:0;clip-rule:nonzero;display:inline;overflow:visible;visibility:visible;opacity:1;isolation:auto;mix-blend-mode:normal;color-interpolation:sRGB;color-interpolation-filters:linearRGB;solid-color:#000000;solid-opacity:1;vector-effect:none;fill:#ffffff;fill-opacity:1;fill-rule:nonzero;stroke:none;stroke-width:0.52916664;stroke-linecap:round;stroke-linejoin:round;stroke-miterlimit:4;stroke-dasharray:none;stroke-dashoffset:0;stroke-opacity:1;paint-order:markers fill stroke;color-rendering:auto;image-rendering:auto;shape-rendering:auto;text-rendering:auto;enable-background:accumulate"/><path d="m 3.1757812,2.1171874 c -0.5813674,0 -1.0585937,0.4772262 -1.0585937,1.0585937 0,0.5813675 0.4772263,1.0566406 1.0585937,1.0566406 0.5813676,0 1.0566408,-0.4752731 1.0566408,-1.0566406 0,-0.5813674 -0.4752732,-1.0585937 -1.0566408,-1.0585937 z m 0,0.5292969 c 0.2953848,0 0.5292968,0.2339122 0.5292968,0.5292968 0,0.2953846 -0.2339123,0.5292969 -0.5292968,0.5292969 -0.2953845,0 -0.5292968,-0.2339122 -0.5292968,-0.5292969 0,-0.2953846 0.2339123,-0.5292968 0.5292968,-0.5292968 z" id="path2001" style="color:#000000;font-style:normal;font-variant:normal;font-weight:normal;font-stretch:normal;font-size:medium;line-height:normal;font-family:sans-serif;font-variant-ligatures:normal;font-variant-position:normal;font-variant-caps:normal;font-variant-numeric:normal;font-variant-alternates:normal;font-feature-settings:normal;text-indent:0;text-align:start;text-decoration:none;text-decoration-line:none;text-decoration-style:solid;text-decoration-color:#000000;letter-spacing:normal;word-spacing:normal;text-transform:none;writing-mode:lr-tb;direction:ltr;text-orientation:mixed;dominant-baseline:auto;baseline-shift:baseline;text-anchor:start;white-space:normal;shape-padding:0;clip-rule:nonzero;display:inline;overflow:visible;visibility:visible;opacity:1;isolation:auto;mix-blend-mode:normal;color-interpolation:sRGB;color-interpolation-filters:linearRGB;solid-color:#000000;solid-opacity:1;vector-effect:none;fill:#ff2876;fill-opacity:1;fill-rule:nonzero;stroke:none;stroke-width:0.52916664;stroke-linecap:round;stroke-linejoin:round;stroke-miterlimit:4;stroke-dasharray:none;stroke-dashoffset:0;stroke-opacity:1;paint-order:markers fill stroke;color-rendering:auto;image-rendering:auto;shape-rendering:auto;text-rendering:auto;enable-background:accumulate"/></svg>