<?xml version="1.0" ?><!-- Uploaded to: SVG Repo, www.svgrepo.com, Generator: SVG Repo Mixer Tools -->
<svg width="800px" height="800px" viewBox="0 0 6.3499998 6.3499998" id="svg8" version="1.1" xmlns="http://www.w3.org/2000/svg" xmlns:cc="http://creativecommons.org/ns#" xmlns:dc="http://purl.org/dc/elements/1.1/" xmlns:rdf="http://www.w3.org/1999/02/22-rdf-syntax-ns#" xmlns:svg="http://www.w3.org/2000/svg"><defs id="defs2"/><path d="M 2.3808594,0.52929682 C 2.0922776,0.52929681 1.8515625,0.770012 1.8515625,1.0585938 v 1.0585936 c 0,0.2885817 0.2407151,0.5292969 0.5292969,0.5292969 h 1.5878905 c 0.2885818,0 0.5292971,-0.2407152 0.5292971,-0.5292969 V 1.0585938 c 0,-0.2885818 -0.2407153,-0.52929698 -0.5292971,-0.52929698 z m 0,0.52929698 H 3.9687499 V 2.1171874 H 2.3808594 Z" id="rect2342" style="color:#000000;font-style:normal;font-variant:normal;font-weight:normal;font-stretch:normal;font-size:medium;line-height:normal;font-family:sans-serif;font-variant-ligatures:normal;font-variant-position:normal;font-variant-caps:normal;font-variant-numeric:normal;font-variant-alternates:normal;font-feature-settings:normal;text-indent:0;text-align:start;text-decoration:none;text-decoration-line:none;text-decoration-style:solid;text-decoration-color:#000000;letter-spacing:normal;word-spacing:normal;text-transform:none;writing-mode:lr-tb;direction:ltr;text-orientation:mixed;dominant-baseline:auto;baseline-shift:baseline;text-anchor:start;white-space:normal;shape-padding:0;clip-rule:nonzero;display:inline;overflow:visible;visibility:visible;opacity:1;isolation:auto;mix-blend-mode:normal;color-interpolation:sRGB;color-interpolation-filters:linearRGB;solid-color:#000000;solid-opacity:1;vector-effect:none;fill:#ffffff;fill-opacity:1;fill-rule:nonzero;stroke:none;stroke-width:0.52916664;stroke-linecap:round;stroke-linejoin:round;stroke-miterlimit:4;stroke-dasharray:none;stroke-dashoffset:0;stroke-opacity:1;paint-order:markers fill stroke;color-rendering:auto;image-rendering:auto;shape-rendering:auto;text-rendering:auto;enable-background:accumulate"/><path d="m 1.3559896,2.1166665 c -0.3069042,0 -0.5622396,0.2553354 -0.5622396,0.5622396 v 1.7859375 c 0,0.3069042 0.2553354,0.5622396 0.5622396,0.5622396 h 0.760677 A 0.26460978,0.26460978 0 0 0 2.38125,4.7624998 V 4.2333332 h 1.5874999 v 0.5291666 a 0.26460978,0.26460978 0 0 0 0.2645833,0.2645834 h 0.7606773 c 0.306904,0 0.5622393,-0.2553354 0.5622393,-0.5622396 V 2.6789061 c 0,-0.3069042 -0.2553353,-0.5622396 -0.5622393,-0.5622396 z m 0,0.5291667 h 3.6380209 c 0.0229,0 0.033073,0.010174 0.033073,0.033073 v 1.7859376 c 0,0.0229 -0.010173,0.033073 -0.033073,0.033073 H 4.4979165 V 4.2333332 c 0,-0.2885819 -0.2405848,-0.5291667 -0.5291666,-0.5291667 H 2.38125 c -0.2885818,0 -0.5291667,0.2405848 -0.5291667,0.5291667 V 4.4979165 H 1.3559896 c -0.022899,0 -0.033073,-0.010173 -0.033073,-0.033073 V 2.6789061 c 0,-0.022899 0.010174,-0.033073 0.033073,-0.033073 z" id="rect2338" style="color:#000000;font-style:normal;font-variant:normal;font-weight:normal;font-stretch:normal;font-size:medium;line-height:normal;font-family:sans-serif;font-variant-ligatures:normal;font-variant-position:normal;font-variant-caps:normal;font-variant-numeric:normal;font-variant-alternates:normal;font-feature-settings:normal;text-indent:0;text-align:start;text-decoration:none;text-decoration-line:none;text-decoration-style:solid;text-decoration-color:#000000;letter-spacing:normal;word-spacing:normal;text-transform:none;writing-mode:lr-tb;direction:ltr;text-orientation:mixed;dominant-baseline:auto;baseline-shift:baseline;text-anchor:start;white-space:normal;shape-padding:0;clip-rule:nonzero;display:inline;overflow:visible;visibility:visible;opacity:1;isolation:auto;mix-blend-mode:normal;color-interpolation:sRGB;color-interpolation-filters:linearRGB;solid-color:#000000;solid-opacity:1;vector-effect:none;fill:#ff2876;fill-opacity:1;fill-rule:nonzero;stroke:none;stroke-width:0.52916664;stroke-linecap:round;stroke-linejoin:round;stroke-miterlimit:4;stroke-dasharray:none;stroke-dashoffset:0;stroke-opacity:1;paint-order:markers fill stroke;color-rendering:auto;image-rendering:auto;shape-rendering:auto;text-rendering:auto;enable-background:accumulate"/><path d="m 2.3808594,3.705078 c -0.2885818,0 -0.5292969,0.2387621 -0.5292969,0.527344 v 1.0585936 c 0,0.2885816 0.2407151,0.5292968 0.5292969,0.5292968 h 1.5878905 c 0.2885818,0 0.5292971,-0.2407152 0.5292971,-0.5292968 V 4.232422 c 0,-0.2885819 -0.2407153,-0.527344 -0.5292971,-0.527344 z m 0,0.527344 H 3.9687499 V 5.2910156 H 2.3808594 Z" id="rect2340" style="color:#000000;font-style:normal;font-variant:normal;font-weight:normal;font-stretch:normal;font-size:medium;line-height:normal;font-family:sans-serif;font-variant-ligatures:normal;font-variant-position:normal;font-variant-caps:normal;font-variant-numeric:normal;font-variant-alternates:normal;font-feature-settings:normal;text-indent:0;text-align:start;text-decoration:none;text-decoration-line:none;text-decoration-style:solid;text-decoration-color:#000000;letter-spacing:normal;word-spacing:normal;text-transform:none;writing-mode:lr-tb;direction:ltr;text-orientation:mixed;dominant-baseline:auto;baseline-shift:baseline;text-anchor:start;white-space:normal;shape-padding:0;clip-rule:nonzero;display:inline;overflow:visible;visibility:visible;opacity:1;isolation:auto;mix-blend-mode:normal;color-interpolation:sRGB;color-interpolation-filters:linearRGB;solid-color:#000000;solid-opacity:1;vector-effect:none;fill:#ffffff;fill-opacity:1;fill-rule:nonzero;stroke:none;stroke-width:0.52916664;stroke-linecap:round;stroke-linejoin:round;stroke-miterlimit:4;stroke-dasharray:none;stroke-dashoffset:0;stroke-opacity:1;paint-order:markers fill stroke;color-rendering:auto;image-rendering:auto;shape-rendering:auto;text-rendering:auto;enable-background:accumulate"/></svg>