<?xml version="1.0" ?><!-- Uploaded to: SVG Repo, www.svgrepo.com, Generator: SVG Repo Mixer Tools -->
<svg width="800px" height="800px" viewBox="0 0 6.3499998 6.3499998" id="svg8" version="1.1" xmlns="http://www.w3.org/2000/svg" xmlns:cc="http://creativecommons.org/ns#" xmlns:dc="http://purl.org/dc/elements/1.1/" xmlns:rdf="http://www.w3.org/1999/02/22-rdf-syntax-ns#" xmlns:svg="http://www.w3.org/2000/svg"><defs id="defs2"/><path d="M 3.1744831,1.3229166 C 2.4545638,1.3239626 1.8225991,1.7542808 1.5198038,2.3952026 0.82519335,2.4326675 0.26457008,3.0006488 0.26458333,3.7041666 0.26456964,4.4316675 0.8599991,5.0270969 1.5875,5.0270834 H 3.1749999 4.7624998 C 5.4900008,5.0270969 6.0854302,4.4316675 6.0854167,3.7041666 6.0854297,3.0010002 5.5253552,2.4331905 4.8312296,2.3952026 4.5283788,1.7539897 3.8957217,1.3237286 3.1755166,1.3229166 a 0.26460981,0.26460981 0 0 0 -0.00103,0 z m 0,0.5291667 h 0.00103 c 0.5621166,0.00107 1.0606871,0.3551109 1.2464357,0.885734 A 0.26460981,0.26460981 0 0 0 4.6963521,2.914034 c 0.021992,-0.00208 0.044058,-0.00338 0.066146,-0.00362 0.441511,-8.2e-6 0.7937582,0.352239 0.79375,0.79375 8.2e-6,0.4415109 -0.352239,0.7937583 -0.79375,0.7937501 H 3.1749999 1.5875 C 1.1459891,4.4979223 0.79374167,4.1456749 0.79375001,3.704164 0.79374167,3.262653 1.1459891,2.9104058 1.5875,2.910414 c 0.022218,2.249e-4 0.044541,0.00153 0.066663,0.00362 A 0.26460981,0.26460981 0 0 0 1.9285644,2.7378173 C 2.1142602,2.2073445 2.6125262,1.853333 3.1744831,1.8520833 Z" id="path2173" style="color:#000000;font-style:normal;font-variant:normal;font-weight:normal;font-stretch:normal;font-size:medium;line-height:normal;font-family:sans-serif;font-variant-ligatures:normal;font-variant-position:normal;font-variant-caps:normal;font-variant-numeric:normal;font-variant-alternates:normal;font-feature-settings:normal;text-indent:0;text-align:start;text-decoration:none;text-decoration-line:none;text-decoration-style:solid;text-decoration-color:#000000;letter-spacing:normal;word-spacing:normal;text-transform:none;writing-mode:lr-tb;direction:ltr;text-orientation:mixed;dominant-baseline:auto;baseline-shift:baseline;text-anchor:start;white-space:normal;shape-padding:0;clip-rule:nonzero;display:inline;overflow:visible;visibility:visible;opacity:1;isolation:auto;mix-blend-mode:normal;color-interpolation:sRGB;color-interpolation-filters:linearRGB;solid-color:#000000;solid-opacity:1;vector-effect:none;fill:#ffffff;fill-opacity:1;fill-rule:nonzero;stroke:none;stroke-width:0.5291667;stroke-linecap:round;stroke-linejoin:round;stroke-miterlimit:4;stroke-dasharray:none;stroke-dashoffset:0;stroke-opacity:1;paint-order:markers fill stroke;color-rendering:auto;image-rendering:auto;shape-rendering:auto;text-rendering:auto;enable-background:accumulate"/><path d="m 1.3213664,1.3249837 a 0.26460978,0.26460978 0 0 0 -0.018604,0.00103 C 0.75182344,1.3684358 0.31024684,1.8096511 0.26768393,2.3605794 a 0.26460978,0.26460978 0 1 0 0.52761638,0.040824 C 0.81805603,2.1068566 1.049034,1.8763122 1.3435872,1.8536336 A 0.26460978,0.26460978 0 0 0 1.3213664,1.3249837 Z" id="path2182" style="color:#000000;font-style:normal;font-variant:normal;font-weight:normal;font-stretch:normal;font-size:medium;line-height:normal;font-family:sans-serif;font-variant-ligatures:normal;font-variant-position:normal;font-variant-caps:normal;font-variant-numeric:normal;font-variant-alternates:normal;font-feature-settings:normal;text-indent:0;text-align:start;text-decoration:none;text-decoration-line:none;text-decoration-style:solid;text-decoration-color:#000000;letter-spacing:normal;word-spacing:normal;text-transform:none;writing-mode:lr-tb;direction:ltr;text-orientation:mixed;dominant-baseline:auto;baseline-shift:baseline;text-anchor:start;white-space:normal;shape-padding:0;clip-rule:nonzero;display:inline;overflow:visible;visibility:visible;opacity:1;isolation:auto;mix-blend-mode:normal;color-interpolation:sRGB;color-interpolation-filters:linearRGB;solid-color:#000000;solid-opacity:1;vector-effect:none;fill:#ff2876;fill-opacity:1;fill-rule:nonzero;stroke:none;stroke-width:0.52916664;stroke-linecap:round;stroke-linejoin:round;stroke-miterlimit:4;stroke-dasharray:none;stroke-dashoffset:0;stroke-opacity:1;paint-order:markers fill stroke;color-rendering:auto;image-rendering:auto;shape-rendering:auto;text-rendering:auto;enable-background:accumulate"/></svg>