<?xml version="1.0" ?><!-- Uploaded to: SVG Repo, www.svgrepo.com, Generator: SVG Repo Mixer Tools -->
<svg width="800px" height="800px" viewBox="0 0 6.3499998 6.3499998" id="svg8" version="1.1" xmlns="http://www.w3.org/2000/svg" xmlns:cc="http://creativecommons.org/ns#" xmlns:dc="http://purl.org/dc/elements/1.1/" xmlns:rdf="http://www.w3.org/1999/02/22-rdf-syntax-ns#" xmlns:svg="http://www.w3.org/2000/svg"><defs id="defs2"/><path d="m 3.1757813,2.1171875 c -0.5813565,0 -1.0585938,0.4772372 -1.0585938,1.0585938 0,0.5813565 0.4772373,1.0566406 1.0585938,1.0566406 0.5813565,-1e-7 1.0566406,-0.4752841 1.0566406,-1.0566406 -2e-7,-0.5813565 -0.4752841,-1.0585938 -1.0566406,-1.0585938 z m 0,0.5292968 c 0.2953736,0 0.5292968,0.2339233 0.5292968,0.5292969 0,0.2953736 -0.2339232,0.5292968 -0.5292968,0.5292968 -0.2953736,0 -0.5292969,-0.2339232 -0.5292969,-0.5292968 0,-0.2953736 0.2339233,-0.5292969 0.5292969,-0.5292969 z" id="path1863" style="color:#000000;font-style:normal;font-variant:normal;font-weight:normal;font-stretch:normal;font-size:medium;line-height:normal;font-family:sans-serif;font-variant-ligatures:normal;font-variant-position:normal;font-variant-caps:normal;font-variant-numeric:normal;font-variant-alternates:normal;font-feature-settings:normal;text-indent:0;text-align:start;text-decoration:none;text-decoration-line:none;text-decoration-style:solid;text-decoration-color:#000000;letter-spacing:normal;word-spacing:normal;text-transform:none;writing-mode:lr-tb;direction:ltr;text-orientation:mixed;dominant-baseline:auto;baseline-shift:baseline;text-anchor:start;white-space:normal;shape-padding:0;clip-rule:nonzero;display:inline;overflow:visible;visibility:visible;opacity:1;isolation:auto;mix-blend-mode:normal;color-interpolation:sRGB;color-interpolation-filters:linearRGB;solid-color:#000000;solid-opacity:1;vector-effect:none;fill:#ff2876;fill-opacity:1;fill-rule:nonzero;stroke:none;stroke-width:0.52916664;stroke-linecap:round;stroke-linejoin:round;stroke-miterlimit:4;stroke-dasharray:none;stroke-dashoffset:204.09448242;stroke-opacity:1;paint-order:stroke fill markers;color-rendering:auto;image-rendering:auto;shape-rendering:auto;text-rendering:auto;enable-background:accumulate"/><path d="m 3.0576947,0.52916665 c -0.366361,0 -0.6282933,0.2735658 -0.7260541,0.61029865 C 2.0244302,0.97049867 1.6460313,0.96207812 1.3869954,1.2211141 L 1.2211141,1.3869954 C 0.96207812,1.6460313 0.97049867,2.0244301 1.1394653,2.3316406 0.80273245,2.4294014 0.52916665,2.6913336 0.52916665,3.0576946 v 0.2346106 c 0,0.3663609 0.2735658,0.6282931 0.61029865,0.726054 -0.16886958,0.30719 -0.17734508,0.6856513 0.081649,0.9446453 l 0.1658813,0.1658813 c 0.2590359,0.2590361 0.6374347,0.2506157 0.9446452,0.081649 0.097761,0.3367331 0.3596932,0.6102987 0.726054,0.6102987 h 0.2346108 c 0.3663609,0 0.6282931,-0.2735656 0.7260539,-0.6102986 0.3071899,0.1688698 0.6856512,0.1773454 0.944645,-0.081649 L 5.1288858,4.9630045 c 0.258994,-0.258994 0.2505186,-0.6374553 0.081649,-0.9446453 0.3367333,-0.097761 0.610299,-0.359693 0.610299,-0.7260539 V 3.0576946 c 0,-0.366361 -0.2735657,-0.6282932 -0.610299,-0.726054 C 5.3795015,2.0244301 5.3879219,1.6460312 5.1288858,1.3869954 L 4.9630045,1.2211141 C 4.7039687,0.96207812 4.3255698,0.97049875 4.0183592,1.1394653 3.9205984,0.80273245 3.6586662,0.52916665 3.2923053,0.52916665 Z m 0,0.52916665 h 0.2346106 c 0.1596094,0 0.2795696,0.1199602 0.2795696,0.2795695 v 0.109554 a 0.26460978,0.26460978 0 0 0 0.1720827,0.2480469 c 0.026864,0.010056 0.053302,0.020543 0.079582,0.032039 A 0.26460978,0.26460978 0 0 0 4.116545,1.6722486 l 0.076998,-0.076998 c 0.1128866,-0.1128863 0.2824387,-0.1128861 0.3953248,0 l 0.1658813,0.1658812 c 0.1128863,0.1128862 0.1128863,0.2824386 0,0.3953249 l -0.077515,0.077515 a 0.26460978,0.26460978 0 0 0 -0.053227,0.2981734 c 0.012086,0.026115 0.023458,0.052332 0.034107,0.079065 A 0.26460978,0.26460978 0 0 0 4.9040933,2.7781249 H 5.012097 c 0.1596096,0 0.2795695,0.1199602 0.2795695,0.2795697 v 0.2346106 c 0,0.1596094 -0.1199599,0.2795696 -0.2795695,0.2795696 H 4.902543 A 0.26460978,0.26460978 0 0 0 4.6544961,3.7439575 c -0.010057,0.026864 -0.020542,0.053302 -0.032039,0.079582 a 0.26460978,0.26460978 0 0 0 0.055294,0.2930054 l 0.076998,0.076998 c 0.1128866,0.1128861 0.1128866,0.2824387 0,0.3953248 L 4.588867,4.7547483 c -0.1128858,0.1128866 -0.2824387,0.1128866 -0.3953248,0 L 4.1160278,4.6772336 A 0.26460978,0.26460978 0 0 0 3.8178549,4.6240066 c -0.026114,0.012086 -0.052332,0.023458 -0.079065,0.034107 a 0.26460978,0.26460978 0 0 0 -0.166915,0.2459796 v 0.1080037 c 0,0.1596096 -0.1199602,0.2795695 -0.2795696,0.2795695 H 3.0576947 c -0.1596095,0 -0.2795697,-0.1199599 -0.2795697,-0.2795695 V 4.902543 A 0.26460978,0.26460978 0 0 0 2.6060426,4.6544961 c -0.026864,-0.010056 -0.053302,-0.020543 -0.079582,-0.032039 a 0.26460978,0.26460978 0 0 0 -0.2930054,0.055294 l -0.076998,0.076998 c -0.1128862,0.1128866 -0.2824386,0.1128866 -0.3953249,0 L 1.5952515,4.588867 c -0.112886,-0.1128858 -0.112886,-0.2824387 0,-0.3953248 l 0.077515,-0.077514 a 0.26460978,0.26460978 0 0 0 0.053227,-0.298173 C 1.7139075,3.7917409 1.7025344,3.7655228 1.6918865,3.7387896 A 0.26460978,0.26460978 0 0 0 1.4459066,3.5718748 H 1.3379028 c -0.1596093,0 -0.2795695,-0.1199602 -0.2795695,-0.2795696 V 3.0576946 c 0,-0.1596095 0.1199602,-0.2795697 0.2795695,-0.2795697 h 0.109554 A 0.26460978,0.26460978 0 0 0 1.6955037,2.6060425 c 0.010056,-0.026864 0.020543,-0.053302 0.032039,-0.079582 A 0.26460978,0.26460978 0 0 0 1.6722493,2.2334553 l -0.076998,-0.076998 c -0.112886,-0.112886 -0.112886,-0.2824387 0,-0.3953246 L 1.7611328,1.5952515 c 0.1128859,-0.1128861 0.2824387,-0.1128861 0.3953247,0 l 0.077515,0.077515 a 0.26460978,0.26460978 0 0 0 0.2992065,0.05271 c 0.02611,-0.012235 0.052844,-0.023829 0.079582,-0.034623 A 0.26460978,0.26460978 0 0 0 2.778125,1.4453898 v -0.107487 c 0,-0.1596093 0.1199602,-0.2795695 0.2795697,-0.2795695 z" id="circle1865" style="color:#000000;font-style:normal;font-variant:normal;font-weight:normal;font-stretch:normal;font-size:medium;line-height:normal;font-family:sans-serif;font-variant-ligatures:normal;font-variant-position:normal;font-variant-caps:normal;font-variant-numeric:normal;font-variant-alternates:normal;font-feature-settings:normal;text-indent:0;text-align:start;text-decoration:none;text-decoration-line:none;text-decoration-style:solid;text-decoration-color:#000000;letter-spacing:normal;word-spacing:normal;text-transform:none;writing-mode:lr-tb;direction:ltr;text-orientation:mixed;dominant-baseline:auto;baseline-shift:baseline;text-anchor:start;white-space:normal;shape-padding:0;clip-rule:nonzero;display:inline;overflow:visible;visibility:visible;opacity:1;isolation:auto;mix-blend-mode:normal;color-interpolation:sRGB;color-interpolation-filters:linearRGB;solid-color:#000000;solid-opacity:1;vector-effect:none;fill:#ffffff;fill-opacity:1;fill-rule:nonzero;stroke:none;stroke-width:0.52916664;stroke-linecap:round;stroke-linejoin:round;stroke-miterlimit:4;stroke-dasharray:none;stroke-dashoffset:204.09448242;stroke-opacity:1;paint-order:stroke fill markers;color-rendering:auto;image-rendering:auto;shape-rendering:auto;text-rendering:auto;enable-background:accumulate"/></svg>