<?xml version="1.0" ?><!-- Uploaded to: SVG Repo, www.svgrepo.com, Generator: SVG Repo Mixer Tools -->
<svg width="800px" height="800px" viewBox="0 0 6.3499998 6.3499998" id="svg8" version="1.1" xmlns="http://www.w3.org/2000/svg" xmlns:cc="http://creativecommons.org/ns#" xmlns:dc="http://purl.org/dc/elements/1.1/" xmlns:rdf="http://www.w3.org/1999/02/22-rdf-syntax-ns#" xmlns:svg="http://www.w3.org/2000/svg"><defs id="defs2"/><path d="m 1.0644531,2.513672 c -0.26356803,0 -0.53515622,0.1829507 -0.53515622,0.4804687 v 0.3613282 c 0,0.2975179 0.27158843,0.4804687 0.53515622,0.4804687 h 0.3671875 c 0.03731,0 0.052174,-0.0027 0.041016,-0.00195 A 0.26460981,0.26460981 0 0 0 1.7207031,3.5703126 V 2.779297 A 0.26460981,0.26460981 0 0 0 1.4726562,2.5156251 c 0.011281,7.541e-4 -0.00365,-0.00195 -0.041016,-0.00195 z m -0.00586,0.4804687 c 0,0.057661 -0.030394,0.048828 0.00586,0.048828 h 0.1269531 v 0.263672 H 1.0644531 c -0.036253,0 -0.00586,-0.00883 -0.00586,0.048828 z" id="rect1082" style="color:#000000;font-style:normal;font-variant:normal;font-weight:normal;font-stretch:normal;font-size:medium;line-height:normal;font-family:sans-serif;font-variant-ligatures:normal;font-variant-position:normal;font-variant-caps:normal;font-variant-numeric:normal;font-variant-alternates:normal;font-feature-settings:normal;text-indent:0;text-align:start;text-decoration:none;text-decoration-line:none;text-decoration-style:solid;text-decoration-color:#000000;letter-spacing:normal;word-spacing:normal;text-transform:none;writing-mode:lr-tb;direction:ltr;text-orientation:mixed;dominant-baseline:auto;baseline-shift:baseline;text-anchor:start;white-space:normal;shape-padding:0;clip-rule:nonzero;display:inline;overflow:visible;visibility:visible;opacity:1;isolation:auto;mix-blend-mode:normal;color-interpolation:sRGB;color-interpolation-filters:linearRGB;solid-color:#000000;solid-opacity:1;vector-effect:none;fill:#ffffff;fill-opacity:1;fill-rule:nonzero;stroke:none;stroke-width:0.5291667;stroke-linecap:round;stroke-linejoin:round;stroke-miterlimit:4;stroke-dasharray:none;stroke-dashoffset:204.09448242;stroke-opacity:1;paint-order:stroke fill markers;color-rendering:auto;image-rendering:auto;shape-rendering:auto;text-rendering:auto;enable-background:accumulate"/><path d="m 3.1679688,1.3925782 a 0.26460981,0.26460981 0 0 0 -0.050781,0.00781 L 2.3007812,1.5839845 2.2500002,1.5957032 C 2.1069002,1.6280812 1.9744174,1.6848954 1.8535156,1.7597657 1.7328257,1.8345049 1.6245205,1.9256661 1.5332031,2.0312501 1.4418238,2.136905 1.3674462,2.2562181 1.3144531,2.3847657 1.2614418,2.513358 1.2304689,2.6518496 1.2304688,2.794922 v 0.7597656 c 1e-7,0.1430732 0.030977,0.2815668 0.083984,0.4101563 0.052995,0.1285559 0.1273794,0.2478658 0.21875,0.3535155 0.091324,0.105595 0.1996367,0.1967489 0.3203125,0.2714845 C 1.9744293,4.6647259 2.1069188,4.721527 2.25,4.7539062 l 0.050781,0.011718 0.8164063,0.1855467 A 0.26460981,0.26460981 0 0 0 3.4394531,4.6914063 V 3.9335939 2.4160157 1.6582032 A 0.26460981,0.26460981 0 0 0 3.1679688,1.3925782 Z M 2.9101562,1.9882813 V 2.4160157 3.9335939 4.3613283 L 2.4179688,4.2500001 2.3671875,4.2382812 C 2.2855155,4.219799 2.2047237,4.1863694 2.1308594,4.140625 2.0564548,4.0945457 1.9898101,4.0376576 1.9335938,3.9726563 1.8774258,3.9077106 1.8322515,3.8352753 1.8027344,3.763672 1.7732319,3.6921028 1.7597657,3.6211184 1.7597656,3.5546876 V 2.794922 c 1e-7,-0.066432 0.013467,-0.1374211 0.042969,-0.2089844 0.02952,-0.071608 0.074698,-0.142096 0.1308594,-0.2070313 0.056223,-0.065006 0.1228729,-0.123853 0.1972656,-0.1699218 0.073877,-0.045749 0.1546727,-0.079181 0.2363281,-0.097656 l 0.050781,-0.011719 z" id="path1618" style="color:#000000;font-style:normal;font-variant:normal;font-weight:normal;font-stretch:normal;font-size:medium;line-height:normal;font-family:sans-serif;font-variant-ligatures:normal;font-variant-position:normal;font-variant-caps:normal;font-variant-numeric:normal;font-variant-alternates:normal;font-feature-settings:normal;text-indent:0;text-align:start;text-decoration:none;text-decoration-line:none;text-decoration-style:solid;text-decoration-color:#000000;letter-spacing:normal;word-spacing:normal;text-transform:none;writing-mode:lr-tb;direction:ltr;text-orientation:mixed;dominant-baseline:auto;baseline-shift:baseline;text-anchor:start;white-space:normal;shape-padding:0;clip-rule:nonzero;display:inline;overflow:visible;visibility:visible;opacity:1;isolation:auto;mix-blend-mode:normal;color-interpolation:sRGB;color-interpolation-filters:linearRGB;solid-color:#000000;solid-opacity:1;vector-effect:none;fill:#ffffff;fill-opacity:1;fill-rule:nonzero;stroke:none;stroke-width:0.5291667;stroke-linecap:round;stroke-linejoin:round;stroke-miterlimit:4;stroke-dasharray:none;stroke-dashoffset:204.09448242;stroke-opacity:1;paint-order:stroke fill markers;color-rendering:auto;image-rendering:auto;shape-rendering:auto;text-rendering:auto;enable-background:accumulate"/><path d="m 3.9589844,2.248047 a 0.26460978,0.26460978 0 0 0 -0.070312,0.5097656 c 0.1697799,0.06963 0.2792968,0.2344653 0.2792968,0.4179687 0,0.1836201 -0.1113137,0.3464602 -0.28125,0.4160157 A 0.26495271,0.26495271 0 1 0 4.087891,4.0820312 C 4.4552232,3.9316814 4.6972661,3.5726917 4.6972661,3.1757813 c 0,-0.3966638 -0.242376,-0.7557375 -0.6093751,-0.90625 A 0.26460978,0.26460978 0 0 0 3.9589844,2.248047 Z" id="path1058-3" style="color:#000000;font-style:normal;font-variant:normal;font-weight:normal;font-stretch:normal;font-size:medium;line-height:normal;font-family:sans-serif;font-variant-ligatures:normal;font-variant-position:normal;font-variant-caps:normal;font-variant-numeric:normal;font-variant-alternates:normal;font-feature-settings:normal;text-indent:0;text-align:start;text-decoration:none;text-decoration-line:none;text-decoration-style:solid;text-decoration-color:#000000;letter-spacing:normal;word-spacing:normal;text-transform:none;writing-mode:lr-tb;direction:ltr;text-orientation:mixed;dominant-baseline:auto;baseline-shift:baseline;text-anchor:start;white-space:normal;shape-padding:0;clip-rule:nonzero;display:inline;overflow:visible;visibility:visible;opacity:1;isolation:auto;mix-blend-mode:normal;color-interpolation:sRGB;color-interpolation-filters:linearRGB;solid-color:#000000;solid-opacity:1;vector-effect:none;fill:#ff2876;fill-opacity:1;fill-rule:nonzero;stroke:none;stroke-width:0.52916664;stroke-linecap:round;stroke-linejoin:round;stroke-miterlimit:4;stroke-dasharray:none;stroke-dashoffset:204.09448242;stroke-opacity:1;paint-order:stroke fill markers;color-rendering:auto;image-rendering:auto;shape-rendering:auto;text-rendering:auto;enable-background:accumulate"/><path d="m 4.763672,1.732422 a 0.26460978,0.26460978 0 0 0 -0.097656,0.5117187 c 0.3787021,0.155312 0.6250001,0.5223278 0.6250001,0.9316406 0,0.4095708 -0.2459511,0.776495 -0.6250001,0.9316407 A 0.26460978,0.26460978 0 1 0 4.8671876,4.5957031 C 5.4436319,4.359763 5.8203125,3.7986425 5.8203125,3.1757813 c 0,-0.6224733 -0.3772037,-1.1856802 -0.9531249,-1.421875 A 0.26460978,0.26460978 0 0 0 4.763672,1.732422 Z" id="path1661" style="color:#000000;font-style:normal;font-variant:normal;font-weight:normal;font-stretch:normal;font-size:medium;line-height:normal;font-family:sans-serif;font-variant-ligatures:normal;font-variant-position:normal;font-variant-caps:normal;font-variant-numeric:normal;font-variant-alternates:normal;font-feature-settings:normal;text-indent:0;text-align:start;text-decoration:none;text-decoration-line:none;text-decoration-style:solid;text-decoration-color:#000000;letter-spacing:normal;word-spacing:normal;text-transform:none;writing-mode:lr-tb;direction:ltr;text-orientation:mixed;dominant-baseline:auto;baseline-shift:baseline;text-anchor:start;white-space:normal;shape-padding:0;clip-rule:nonzero;display:inline;overflow:visible;visibility:visible;opacity:1;isolation:auto;mix-blend-mode:normal;color-interpolation:sRGB;color-interpolation-filters:linearRGB;solid-color:#000000;solid-opacity:1;vector-effect:none;fill:#ff2876;fill-opacity:1;fill-rule:nonzero;stroke:none;stroke-width:0.52916664;stroke-linecap:round;stroke-linejoin:round;stroke-miterlimit:4;stroke-dasharray:none;stroke-dashoffset:204.09448242;stroke-opacity:1;paint-order:stroke fill markers;color-rendering:auto;image-rendering:auto;shape-rendering:auto;text-rendering:auto;enable-background:accumulate"/></svg>