<?xml version="1.0" encoding="UTF-8"?>
<!DOCTYPE svg PUBLIC "-//W3C//DTD SVG 1.1//EN" "http://www.w3.org/Graphics/SVG/1.1/DTD/svg11.dtd">
<svg xmlns="http://www.w3.org/2000/svg" version="1.1" width="298px" height="298px" style="shape-rendering:geometricPrecision; text-rendering:geometricPrecision; image-rendering:optimizeQuality; fill-rule:evenodd; clip-rule:evenodd" xmlns:xlink="http://www.w3.org/1999/xlink">
<g><path style="opacity:0.994" fill="#a42935" d="M 21.5,-0.5 C 36.1667,-0.5 50.8333,-0.5 65.5,-0.5C 66.1974,4.64034 65.1974,9.30701 62.5,13.5C 50.0954,15.681 37.762,16.0143 25.5,14.5C 23.9096,12.7662 21.9096,11.5995 19.5,11C 16.7956,9.14006 15.1289,6.64006 14.5,3.5C 16.7026,1.89984 19.036,0.56651 21.5,-0.5 Z"/></g>
<g><path style="opacity:1" fill="#120c10" d="M 65.5,-0.5 C 67.1667,-0.5 68.8333,-0.5 70.5,-0.5C 72.264,7.90312 69.9307,14.7365 63.5,20C 49.4787,20.7425 35.4787,20.5758 21.5,19.5C 21.9175,18.7784 22.5842,18.2784 23.5,18C 34.8333,17.6667 46.1667,17.3333 57.5,17C 59.5844,16.3028 61.2511,15.1361 62.5,13.5C 65.1974,9.30701 66.1974,4.64034 65.5,-0.5 Z"/></g>
<g><path style="opacity:1" fill="#393950" d="M 70.5,-0.5 C 110.833,-0.5 151.167,-0.5 191.5,-0.5C 190.213,2.69802 189.547,6.03136 189.5,9.5C 182.039,11.7451 179.206,16.7451 181,24.5C 185.817,35.658 193.65,38.4914 204.5,33C 208.842,29.1486 211.176,24.3153 211.5,18.5C 216.376,16.2976 219.376,12.6309 220.5,7.5C 219.807,2.84874 217.141,1.34874 212.5,3C 208.472,5.34941 204.806,8.18274 201.5,11.5C 201.167,11 200.833,10.5 200.5,10C 201.726,6.59813 202.393,3.09813 202.5,-0.5C 209.833,-0.5 217.167,-0.5 224.5,-0.5C 224.19,3.69952 224.857,7.69952 226.5,11.5C 226.523,13.9267 227.023,16.26 228,18.5C 231.615,20.3067 235.115,21.9734 238.5,23.5C 237.279,24.0283 236.113,24.695 235,25.5C 234.333,28.5 234.333,31.5 235,34.5C 237,37.8333 239,41.1667 241,44.5C 242.313,45.5728 243.813,46.2395 245.5,46.5C 252.286,44.7151 256.286,40.3818 257.5,33.5C 257.101,27.4193 254.101,25.4193 248.5,27.5C 247.702,27.0431 247.369,26.3764 247.5,25.5C 254.942,23.5363 262.775,22.203 271,21.5C 272.764,21.5445 274.431,21.8778 276,22.5C 281.302,31.1463 286.635,39.813 292,48.5C 292.171,56.6772 292.671,64.6772 293.5,72.5C 293.667,76.6734 295,80.3401 297.5,83.5C 297.5,97.1667 297.5,110.833 297.5,124.5C 293.721,116.367 289.054,108.7 283.5,101.5C 283.167,102.167 282.833,102.833 282.5,103.5C 285.949,112.626 288.783,121.959 291,131.5C 291.499,136.823 291.666,142.156 291.5,147.5C 292.024,157.586 289.691,166.919 284.5,175.5C 280.377,165.923 275.21,156.923 269,148.5C 261.864,142.365 255.031,135.865 248.5,129C 228.543,113.861 208.209,99.3606 187.5,85.5C 185.768,82.6076 183.268,80.6076 180,79.5C 179.53,78.4232 179.697,77.4232 180.5,76.5C 189.438,71.6953 198.438,66.862 207.5,62C 208.337,60.9887 208.67,59.8221 208.5,58.5C 196.273,62.4442 184.606,67.7775 173.5,74.5C 170.399,72.9016 167.732,70.7349 165.5,68C 178.459,60.5701 191.793,53.9034 205.5,48C 206.38,46.6439 206.714,45.1439 206.5,43.5C 192.52,47.3294 179.187,52.8294 166.5,60C 164.63,62.0396 162.63,63.8729 160.5,65.5C 154.423,58.0965 148.756,50.4298 143.5,42.5C 150.768,41.3954 154.935,37.062 156,29.5C 156.667,26.1667 156.667,22.8333 156,19.5C 154.491,17.1191 152.325,16.1191 149.5,16.5C 144.68,17.2081 140.013,18.2081 135.5,19.5C 133.129,12.3086 128.129,9.14192 120.5,10C 111.721,16.9307 110.388,24.9307 116.5,34C 120.853,34.245 125.187,34.245 129.5,34C 133.628,36.6234 137.628,39.4568 141.5,42.5C 145.008,50.1884 149.008,57.5217 153.5,64.5C 161.336,76.1593 169.669,87.4926 178.5,98.5C 172.193,99.6639 165.859,99.8306 159.5,99C 153.442,97.5362 147.442,95.8696 141.5,94C 132.73,89.6149 123.73,85.7815 114.5,82.5C 113.5,80.8333 112.167,79.5 110.5,78.5C 104.344,71.5069 98.3444,64.3402 92.5,57C 96.9781,53.8553 100.811,50.0219 104,45.5C 105.91,31.9029 100.41,27.2362 87.5,31.5C 85.5451,23.0685 80.2118,19.5685 71.5,21C 69.9782,22.5218 68.4782,24.0218 67,25.5C 59.1932,24.6972 51.3599,24.0306 43.5,23.5C 41.5711,23.5396 39.7378,23.8729 38,24.5C 37.245,27.3033 37.5783,29.9699 39,32.5C 41.1667,34.6667 43.3333,36.8333 45.5,39C 53.5297,44.3439 61.5297,49.6773 69.5,55C 67.0546,60.192 64.7212,65.3587 62.5,70.5C 50.4611,70.1918 38.4611,70.6918 26.5,72C 21.8972,76.6627 22.5638,80.1627 28.5,82.5C 34.8223,87.1603 41.8223,90.4936 49.5,92.5C 50.3142,94.9515 49.8142,97.2849 48,99.5C 46.8904,101.037 45.3904,101.703 43.5,101.5C 38.057,99.742 32.557,98.0754 27,96.5C 22.649,97.7236 22.4824,99.3903 26.5,101.5C 26.3335,112.838 26.5001,124.172 27,135.5C 27.6804,140.336 28.5138,145.003 29.5,149.5C 29.543,157.054 30.2097,164.554 31.5,172C 31.1667,172.833 30.8333,173.667 30.5,174.5C 16.8124,161.196 6.47908,145.863 -0.5,128.5C -0.5,114.167 -0.5,99.8333 -0.5,85.5C 0.314913,84.5707 1.14825,83.5707 2,82.5C 2.9829,76.8802 3.4829,71.2135 3.5,65.5C 2.65701,57.1563 1.82368,48.823 1,40.5C 8.75167,34.5846 15.2517,27.5846 20.5,19.5C 20.8333,19.5 21.1667,19.5 21.5,19.5C 35.4787,20.5758 49.4787,20.7425 63.5,20C 69.9307,14.7365 72.264,7.90312 70.5,-0.5 Z"/></g>
<g><path style="opacity:1" fill="#4e1419" d="M 228.5,-0.5 C 228.833,-0.5 229.167,-0.5 229.5,-0.5C 229.46,2.88055 229.793,6.21389 230.5,9.5C 229.778,9.08247 229.278,8.4158 229,7.5C 228.503,4.85397 228.336,2.1873 228.5,-0.5 Z"/></g>
<g><path style="opacity:1" fill="#a52a36" d="M 229.5,-0.5 C 243.167,-0.5 256.833,-0.5 270.5,-0.5C 274.138,0.390059 277.471,2.05673 280.5,4.5C 279.088,8.04763 276.421,9.88096 272.5,10C 271.663,11.0113 271.33,12.1779 271.5,13.5C 259.848,14.2327 248.181,14.566 236.5,14.5C 233.31,14.3129 231.31,12.6462 230.5,9.5C 229.793,6.21389 229.46,2.88055 229.5,-0.5 Z"/></g>
<g><path style="opacity:0.93" fill="#721b23" d="M 283.5,3.5 C 285.389,4.60398 287.055,5.93731 288.5,7.5C 287.891,9.94333 286.391,11.61 284,12.5C 283.398,15.2205 283.565,17.8872 284.5,20.5C 282.566,18.2405 280.899,15.7405 279.5,13C 278.207,12.51 276.873,12.3433 275.5,12.5C 278.851,10.1463 281.518,7.14626 283.5,3.5 Z"/></g>
<g><path style="opacity:0.977" fill="#6e1a22" d="M 14.5,3.5 C 15.1289,6.64006 16.7956,9.14006 19.5,11C 21.9096,11.5995 23.9096,12.7662 25.5,14.5C 24.1667,14.5 22.8333,14.5 21.5,14.5C 18.4143,14.5989 16.081,15.9322 14.5,18.5C 15.1053,13.4329 13.1053,9.7662 8.5,7.5C 10.1475,5.6736 12.1475,4.34026 14.5,3.5 Z"/></g>
<g><path style="opacity:0.965" fill="#a32934" d="M 288.5,7.5 C 292.51,11.5204 295.51,16.1871 297.5,21.5C 297.5,25.5 297.5,29.5 297.5,33.5C 295.427,31.4202 293.093,29.7536 290.5,28.5C 288.984,25.4669 286.984,22.8003 284.5,20.5C 283.565,17.8872 283.398,15.2205 284,12.5C 286.391,11.61 287.891,9.94333 288.5,7.5 Z"/></g>
<g><path style="opacity:0.956" fill="#a22935" d="M 8.5,7.5 C 13.1053,9.7662 15.1053,13.4329 14.5,18.5C 13.8333,18.5 13.5,18.8333 13.5,19.5C 9.1977,23.793 4.53103,27.793 -0.5,31.5C -0.5,28.1667 -0.5,24.8333 -0.5,21.5C 1.49009,16.1871 4.49009,11.5204 8.5,7.5 Z"/></g>
<g><path style="opacity:1" fill="#82212a" d="M 270.5,-0.5 C 272.167,-0.5 273.833,-0.5 275.5,-0.5C 278.101,0.800671 280.768,2.134 283.5,3.5C 281.518,7.14626 278.851,10.1463 275.5,12.5C 275.389,13.1174 275.056,13.6174 274.5,14C 261.699,15.6901 249.032,15.8568 236.5,14.5C 248.181,14.566 259.848,14.2327 271.5,13.5C 271.33,12.1779 271.663,11.0113 272.5,10C 276.421,9.88096 279.088,8.04763 280.5,4.5C 277.471,2.05673 274.138,0.390059 270.5,-0.5 Z"/></g>
<g><path style="opacity:1" fill="#0f1015" d="M 143.5,42.5 C 142.833,42.5 142.167,42.5 141.5,42.5C 137.628,39.4568 133.628,36.6234 129.5,34C 125.187,34.245 120.853,34.245 116.5,34C 110.388,24.9307 111.721,16.9307 120.5,10C 128.129,9.14192 133.129,12.3086 135.5,19.5C 140.013,18.2081 144.68,17.2081 149.5,16.5C 152.325,16.1191 154.491,17.1191 156,19.5C 156.667,22.8333 156.667,26.1667 156,29.5C 154.935,37.062 150.768,41.3954 143.5,42.5 Z"/></g>
<g><path style="opacity:1" fill="#0b0508" d="M 224.5,-0.5 C 225.833,-0.5 227.167,-0.5 228.5,-0.5C 228.336,2.1873 228.503,4.85397 229,7.5C 229.278,8.4158 229.778,9.08247 230.5,9.5C 231.31,12.6462 233.31,14.3129 236.5,14.5C 249.032,15.8568 261.699,15.6901 274.5,14C 275.056,13.6174 275.389,13.1174 275.5,12.5C 276.873,12.3433 278.207,12.51 279.5,13C 280.899,15.7405 282.566,18.2405 284.5,20.5C 284.562,24.5684 286.562,27.235 290.5,28.5C 291.134,32.467 293.467,34.8003 297.5,35.5C 297.5,51.5 297.5,67.5 297.5,83.5C 295,80.3401 293.667,76.6734 293.5,72.5C 293.742,62.8199 293.909,53.1532 294,43.5C 288.409,34.5793 282.076,26.2459 275,18.5C 273.775,18.8623 272.609,19.3623 271.5,20C 259.5,20.6667 247.5,20.6667 235.5,20C 230.985,18.6487 227.985,15.8154 226.5,11.5C 224.857,7.69952 224.19,3.69952 224.5,-0.5 Z"/></g>
<g><path style="opacity:1" fill="#6d8bb4" d="M 129.5,18.5 C 127.654,21.8806 126.654,25.5473 126.5,29.5C 123.629,30.6787 120.796,30.6787 118,29.5C 116.959,24.5602 117.626,19.8935 120,15.5C 120.893,14.9186 121.893,14.5852 123,14.5C 125.542,15.2054 127.708,16.5387 129.5,18.5 Z"/></g>
<g><path style="opacity:1" fill="#3f1116" d="M 62.5,13.5 C 61.2511,15.1361 59.5844,16.3028 57.5,17C 46.1667,17.3333 34.8333,17.6667 23.5,18C 22.5842,18.2784 21.9175,18.7784 21.5,19.5C 21.1667,19.5 20.8333,19.5 20.5,19.5C 19.9569,19.44 19.6236,19.1067 19.5,18.5C 20.6302,17.3777 21.2969,16.0443 21.5,14.5C 22.8333,14.5 24.1667,14.5 25.5,14.5C 37.762,16.0143 50.0954,15.681 62.5,13.5 Z"/></g>
<g><path style="opacity:1" fill="#0e0b0f" d="M 110.5,78.5 C 107.991,77.0787 105.657,75.4121 103.5,73.5C 99.0036,68.8356 94.6703,64.0023 90.5,59C 88.2884,58.2109 86.2884,58.3775 84.5,59.5C 83.8333,59.5 83.5,59.8333 83.5,60.5C 81.0213,61.6227 78.688,61.6227 76.5,60.5C 75.4583,59.2089 74.2917,59.2089 73,60.5C 72.2109,62.7116 72.3775,64.7116 73.5,66.5C 75.0461,68.8825 75.7128,71.5491 75.5,74.5C 74.7784,74.0825 74.2784,73.4158 74,72.5C 73.5045,74.4727 73.3379,76.4727 73.5,78.5C 74.791,78.2627 75.791,78.596 76.5,79.5C 75.1667,79.5 73.8333,79.5 72.5,79.5C 72.7947,77.2646 72.4614,75.2646 71.5,73.5C 69.8333,70.8333 68.1667,70.8333 66.5,73.5C 62.7967,74.9439 58.9634,75.9439 55,76.5C 55.2358,79.6462 56.0691,82.6462 57.5,85.5C 56.8333,85.5 56.5,85.8333 56.5,86.5C 55.5655,87.5676 55.2322,88.901 55.5,90.5C 54.5489,89.0813 54.2155,87.4147 54.5,85.5C 53.2407,82.634 52.2407,79.634 51.5,76.5C 45.1579,76.3338 38.8246,76.5005 32.5,77C 31.6919,77.3076 31.0253,77.8076 30.5,78.5C 36.9601,84.9083 44.6267,87.575 53.5,86.5C 52.008,91.3371 50.8413,96.3371 50,101.5C 47.7265,102.811 45.5598,102.811 43.5,101.5C 45.3904,101.703 46.8904,101.037 48,99.5C 49.8142,97.2849 50.3142,94.9515 49.5,92.5C 41.8223,90.4936 34.8223,87.1603 28.5,82.5C 25.6344,78.995 25.9678,75.8284 29.5,73C 40.6338,71.9822 51.6338,71.1489 62.5,70.5C 64.7212,65.3587 67.0546,60.192 69.5,55C 61.5297,49.6773 53.5297,44.3439 45.5,39C 43.3333,36.8333 41.1667,34.6667 39,32.5C 37.5783,29.9699 37.245,27.3033 38,24.5C 39.7378,23.8729 41.5711,23.5396 43.5,23.5C 51.3599,24.0306 59.1932,24.6972 67,25.5C 68.4782,24.0218 69.9782,22.5218 71.5,21C 80.2118,19.5685 85.5451,23.0685 87.5,31.5C 100.41,27.2362 105.91,31.9029 104,45.5C 100.811,50.0219 96.9781,53.8553 92.5,57C 98.3444,64.3402 104.344,71.5069 110.5,78.5 Z"/></g>
<g><path style="opacity:1" fill="#141315" d="M 191.5,-0.5 C 192.5,-0.5 193.5,-0.5 194.5,-0.5C 193.352,4.09527 192.519,8.76194 192,13.5C 185.391,15.1787 183.725,19.1787 187,25.5C 188.376,26.7051 189.542,28.0384 190.5,29.5C 192.29,30.9973 194.456,31.664 197,31.5C 198.707,31.4915 200.207,31.1582 201.5,30.5C 205.487,28.6946 206.987,25.6946 206,21.5C 205.617,20.944 205.117,20.6107 204.5,20.5C 204.859,18.629 205.859,17.129 207.5,16C 212.363,14.9396 215.363,12.1063 216.5,7.5C 214.784,7.62867 213.117,7.962 211.5,8.5C 208.911,9.41938 206.911,11.086 205.5,13.5C 203.858,15.0808 201.858,15.7475 199.5,15.5C 197.11,15.3152 196.11,13.9818 196.5,11.5C 198.002,7.65654 198.669,3.65654 198.5,-0.5C 199.833,-0.5 201.167,-0.5 202.5,-0.5C 202.393,3.09813 201.726,6.59813 200.5,10C 200.833,10.5 201.167,11 201.5,11.5C 204.806,8.18274 208.472,5.34941 212.5,3C 217.141,1.34874 219.807,2.84874 220.5,7.5C 219.376,12.6309 216.376,16.2976 211.5,18.5C 211.176,24.3153 208.842,29.1486 204.5,33C 193.65,38.4914 185.817,35.658 181,24.5C 179.206,16.7451 182.039,11.7451 189.5,9.5C 189.547,6.03136 190.213,2.69802 191.5,-0.5 Z"/></g>
<g><path style="opacity:1" fill="#f2f0f0" d="M 194.5,-0.5 C 195.833,-0.5 197.167,-0.5 198.5,-0.5C 198.669,3.65654 198.002,7.65654 196.5,11.5C 196.11,13.9818 197.11,15.3152 199.5,15.5C 200.263,16.2679 201.263,16.7679 202.5,17C 203.085,18.3024 203.751,19.469 204.5,20.5C 205.117,20.6107 205.617,20.944 206,21.5C 206.987,25.6946 205.487,28.6946 201.5,30.5C 197.802,30.4476 194.135,30.1143 190.5,29.5C 189.542,28.0384 188.376,26.7051 187,25.5C 183.725,19.1787 185.391,15.1787 192,13.5C 192.519,8.76194 193.352,4.09527 194.5,-0.5 Z"/></g>
<g><path style="opacity:1" fill="#e6ac9b" d="M 188.5,17.5 C 189.833,17.5 191.167,17.5 192.5,17.5C 192.5,18.8333 192.5,20.1667 192.5,21.5C 191.167,21.5 189.833,21.5 188.5,21.5C 188.5,20.1667 188.5,18.8333 188.5,17.5 Z"/></g>
<g><path style="opacity:1" fill="#8d8d8d" d="M 211.5,8.5 C 210.089,10.914 208.089,12.5806 205.5,13.5C 206.911,11.086 208.911,9.41938 211.5,8.5 Z"/></g>
<g><path style="opacity:1" fill="#dbdbdb" d="M 204.5,20.5 C 203.751,19.469 203.085,18.3024 202.5,17C 201.263,16.7679 200.263,16.2679 199.5,15.5C 201.858,15.7475 203.858,15.0808 205.5,13.5C 208.089,12.5806 210.089,10.914 211.5,8.5C 213.117,7.962 214.784,7.62867 216.5,7.5C 215.363,12.1063 212.363,14.9396 207.5,16C 205.859,17.129 204.859,18.629 204.5,20.5 Z"/></g>
<g><path style="opacity:1" fill="#6e8cb5" d="M 143.5,21.5 C 144.167,21.5 144.833,21.5 145.5,21.5C 147.144,21.2865 148.644,21.6198 150,22.5C 150.667,24.8333 150.667,27.1667 150,29.5C 148.333,32.1667 146.667,34.8333 145,37.5C 143.989,38.3366 142.822,38.67 141.5,38.5C 140.599,37.7095 139.932,36.7095 139.5,35.5C 140.2,31.2022 140.533,26.8689 140.5,22.5C 141.791,22.7373 142.791,22.404 143.5,21.5 Z"/></g>
<g><path style="opacity:1" fill="#2a3646" d="M 129.5,18.5 C 130.022,20.2191 131.022,21.5525 132.5,22.5C 130.832,24.4786 130.166,26.812 130.5,29.5C 129.167,28.1667 127.833,28.1667 126.5,29.5C 126.654,25.5473 127.654,21.8806 129.5,18.5 Z"/></g>
<g><path style="opacity:1" fill="#6b89b1" d="M 132.5,22.5 C 134.292,22.366 135.958,22.6993 137.5,23.5C 137.5,26.1667 137.5,28.8333 137.5,31.5C 136.167,31.5 134.833,31.5 133.5,31.5C 131.973,31.573 130.973,30.9063 130.5,29.5C 130.166,26.812 130.832,24.4786 132.5,22.5 Z"/></g>
<g><path style="opacity:1" fill="#eab0a0" d="M 198.5,22.5 C 199.833,22.5 201.167,22.5 202.5,22.5C 202.833,25.5 201.5,26.8333 198.5,26.5C 198.5,25.1667 198.5,23.8333 198.5,22.5 Z"/></g>
<g><path style="opacity:1" fill="#3a1114" d="M 284.5,20.5 C 286.984,22.8003 288.984,25.4669 290.5,28.5C 286.562,27.235 284.562,24.5684 284.5,20.5 Z"/></g>
<g><path style="opacity:1" fill="#39495f" d="M 143.5,21.5 C 142.791,22.404 141.791,22.7373 140.5,22.5C 140.533,26.8689 140.2,31.2022 139.5,35.5C 138.071,33.3095 136.071,31.9762 133.5,31.5C 134.833,31.5 136.167,31.5 137.5,31.5C 137.5,28.8333 137.5,26.1667 137.5,23.5C 139.282,22.2804 141.282,21.6138 143.5,21.5 Z"/></g>
<g><path style="opacity:1" fill="#62181f" d="M 13.5,19.5 C 9.48291,25.1811 4.81624,30.1811 -0.5,34.5C -0.5,33.5 -0.5,32.5 -0.5,31.5C 4.53103,27.793 9.1977,23.793 13.5,19.5 Z"/></g>
<g><path style="opacity:1" fill="#303043" d="M 226.5,11.5 C 227.985,15.8154 230.985,18.6487 235.5,20C 247.5,20.6667 259.5,20.6667 271.5,20C 272.609,19.3623 273.775,18.8623 275,18.5C 282.076,26.2459 288.409,34.5793 294,43.5C 293.909,53.1532 293.742,62.8199 293.5,72.5C 292.671,64.6772 292.171,56.6772 292,48.5C 286.635,39.813 281.302,31.1463 276,22.5C 274.431,21.8778 272.764,21.5445 271,21.5C 262.775,22.203 254.942,23.5363 247.5,25.5C 245.013,22.536 242.013,21.8693 238.5,23.5C 235.115,21.9734 231.615,20.3067 228,18.5C 227.023,16.26 226.523,13.9267 226.5,11.5 Z"/></g>
<g><path style="opacity:1" fill="#804a65" d="M 73.5,26.5 C 80.1539,25.8127 83.4872,29.1461 83.5,36.5C 82.534,30.8673 79.2007,27.534 73.5,26.5 Z"/></g>
<g><path style="opacity:1" fill="#140f14" d="M 247.5,25.5 C 247.369,26.3764 247.702,27.0431 248.5,27.5C 254.101,25.4193 257.101,27.4193 257.5,33.5C 256.286,40.3818 252.286,44.7151 245.5,46.5C 243.813,46.2395 242.313,45.5728 241,44.5C 239,41.1667 237,37.8333 235,34.5C 234.333,31.5 234.333,28.5 235,25.5C 236.113,24.695 237.279,24.0283 238.5,23.5C 242.013,21.8693 245.013,22.536 247.5,25.5 Z"/></g>
<g><path style="opacity:1" fill="#9d597a" d="M 247.5,32.5 C 247.179,34.0481 246.179,34.7148 244.5,34.5C 244.981,30.6509 243.314,28.6509 239.5,28.5C 239.5,29.8333 239.5,31.1667 239.5,32.5C 238.387,31.0536 238.22,29.3869 239,27.5C 239.561,26.9781 240.228,26.6448 241,26.5C 243.678,28.014 245.845,30.014 247.5,32.5 Z"/></g>
<g><path style="opacity:1" fill="#d87ba8" d="M 247.5,32.5 C 249.142,30.9192 251.142,30.2525 253.5,30.5C 253.644,37.8596 250.144,41.1929 243,40.5C 241.519,37.89 240.352,35.2234 239.5,32.5C 239.5,31.1667 239.5,29.8333 239.5,28.5C 243.314,28.6509 244.981,30.6509 244.5,34.5C 246.179,34.7148 247.179,34.0481 247.5,32.5 Z"/></g>
<g><path style="opacity:1" fill="#989899" d="M 190.5,29.5 C 194.135,30.1143 197.802,30.4476 201.5,30.5C 200.207,31.1582 198.707,31.4915 197,31.5C 194.456,31.664 192.29,30.9973 190.5,29.5 Z"/></g>
<g><path style="opacity:1" fill="#370e13" d="M 290.5,28.5 C 293.093,29.7536 295.427,31.4202 297.5,33.5C 297.5,34.1667 297.5,34.8333 297.5,35.5C 293.467,34.8003 291.134,32.467 290.5,28.5 Z"/></g>
<g><path style="opacity:1" fill="#36364b" d="M 47.5,30.5 C 50.8499,30.335 54.1832,30.5017 57.5,31C 60.298,32.3962 63.298,33.2295 66.5,33.5C 66.7262,37.9641 66.7262,42.2974 66.5,46.5C 61.0272,42.8605 55.6938,39.0271 50.5,35C 48.8588,33.871 47.8588,32.371 47.5,30.5 Z"/></g>
<g><path style="opacity:1" fill="#303d4f" d="M 145.5,21.5 C 147.607,20.5318 149.941,20.1984 152.5,20.5C 153.394,27.651 151.394,33.8176 146.5,39C 144.613,39.7796 142.946,39.6129 141.5,38.5C 142.822,38.67 143.989,38.3366 145,37.5C 146.667,34.8333 148.333,32.1667 150,29.5C 150.667,27.1667 150.667,24.8333 150,22.5C 148.644,21.6198 147.144,21.2865 145.5,21.5 Z"/></g>
<g><path style="opacity:1" fill="#dc7eac" d="M 73.5,26.5 C 79.2007,27.534 82.534,30.8673 83.5,36.5C 83.5,37.5 83.5,38.5 83.5,39.5C 86.1398,39.046 88.4732,37.8793 90.5,36C 93.6965,35.1955 96.6965,35.3622 99.5,36.5C 99.7088,40.8606 98.7088,44.8606 96.5,48.5C 93.2867,51.2744 89.62,53.2744 85.5,54.5C 82.6802,54.7525 80.0135,54.2525 77.5,53C 76.3685,50.6257 74.7019,48.7924 72.5,47.5C 71.7803,41.8623 71.447,36.1956 71.5,30.5C 71.2291,28.6203 71.8958,27.287 73.5,26.5 Z"/></g>
<g><path style="opacity:1" fill="#4f2d3e" d="M 99.5,36.5 C 100.634,38.9664 100.801,41.633 100,44.5C 99.34,46.3237 98.1733,47.657 96.5,48.5C 98.7088,44.8606 99.7088,40.8606 99.5,36.5 Z"/></g>
<g><path style="opacity:1" fill="#6b3d54" d="M 71.5,30.5 C 71.447,36.1956 71.7803,41.8623 72.5,47.5C 71.0458,44.2822 70.3791,40.7822 70.5,37C 70.5039,34.6392 70.8373,32.4726 71.5,30.5 Z"/></g>
<g><path style="opacity:1" fill="#9c5979" d="M 72.5,47.5 C 74.7019,48.7924 76.3685,50.6257 77.5,53C 80.0135,54.2525 82.6802,54.7525 85.5,54.5C 83.7407,57.1897 81.4074,57.8564 78.5,56.5C 75.7349,53.9583 73.7349,50.9583 72.5,47.5 Z"/></g>
<g><path style="opacity:1" fill="#272533" d="M 141.5,42.5 C 142.167,42.5 142.833,42.5 143.5,42.5C 148.756,50.4298 154.423,58.0965 160.5,65.5C 158.634,64.9862 156.8,64.3195 155,63.5C 154.235,63.5699 153.735,63.9033 153.5,64.5C 149.008,57.5217 145.008,50.1884 141.5,42.5 Z"/></g>
<g><path style="opacity:1" fill="#100e12" d="M 37.5,46.5 C 39.8568,46.3367 42.1902,46.5034 44.5,47C 47.33,55.0317 45.33,61.865 38.5,67.5C 29.6567,65.5136 25.1567,60.1802 25,51.5C 27.4649,47.607 30.7982,46.607 35,48.5C 36.301,48.3613 37.1344,47.6946 37.5,46.5 Z"/></g>
<g><path style="opacity:1" fill="#ddaec5" d="M 39.5,49.5 C 41.9477,49.0847 43.2811,50.0847 43.5,52.5C 40.2489,64.8838 35.2489,65.5505 28.5,54.5C 28.6082,53.5581 28.9415,52.7247 29.5,52C 31.5269,51.5022 33.5269,51.6689 35.5,52.5C 37.4172,52.2462 38.7505,51.2462 39.5,49.5 Z"/></g>
<g><path style="opacity:1" fill="#0e0d11" d="M 180.5,76.5 C 177.516,76.7868 176.183,78.4535 176.5,81.5C 175.5,81.5 174.5,81.5 173.5,81.5C 172.257,80.2625 171.257,80.5959 170.5,82.5C 172.245,86.4081 174.578,89.9081 177.5,93C 181.276,94.9474 184.61,97.4474 187.5,100.5C 189.69,101.374 190.69,103.041 190.5,105.5C 186.534,106.162 182.534,106.495 178.5,106.5C 170.121,106.044 161.788,104.711 153.5,102.5C 154.263,101.732 155.263,101.232 156.5,101C 152.167,100.667 147.833,100.333 143.5,100C 139.489,96.4964 134.823,94.9964 129.5,95.5C 128.167,95.1667 126.833,94.8333 125.5,94.5C 122.711,91.2307 119.211,88.8974 115,87.5C 113.97,87.8361 113.47,88.5028 113.5,89.5C 113.672,90.4916 113.338,91.1583 112.5,91.5C 112.558,88.3356 113.224,85.3356 114.5,82.5C 123.73,85.7815 132.73,89.6149 141.5,94C 147.442,95.8696 153.442,97.5362 159.5,99C 165.859,99.8306 172.193,99.6639 178.5,98.5C 169.669,87.4926 161.336,76.1593 153.5,64.5C 153.735,63.9033 154.235,63.5699 155,63.5C 156.8,64.3195 158.634,64.9862 160.5,65.5C 162.63,63.8729 164.63,62.0396 166.5,60C 179.187,52.8294 192.52,47.3294 206.5,43.5C 206.714,45.1439 206.38,46.6439 205.5,48C 191.793,53.9034 178.459,60.5701 165.5,68C 167.732,70.7349 170.399,72.9016 173.5,74.5C 184.606,67.7775 196.273,62.4442 208.5,58.5C 208.67,59.8221 208.337,60.9887 207.5,62C 198.438,66.862 189.438,71.6953 180.5,76.5 Z"/></g>
<g><path style="opacity:1" fill="#69625a" d="M 83.5,60.5 C 83.5,59.8333 83.8333,59.5 84.5,59.5C 88.7584,60.4246 91.425,63.0913 92.5,67.5C 90.4002,65.502 88.4002,63.3353 86.5,61C 85.552,60.5172 84.552,60.3505 83.5,60.5 Z"/></g>
<g><path style="opacity:1" fill="#f4e3d1" d="M 76.5,60.5 C 78.688,61.6227 81.0213,61.6227 83.5,60.5C 84.552,60.3505 85.552,60.5172 86.5,61C 88.4002,63.3353 90.4002,65.502 92.5,67.5C 95.2281,71.7372 98.5615,75.5706 102.5,79C 97.6486,79.1745 92.9819,79.6745 88.5,80.5C 83.9661,80.6085 80.2994,78.9418 77.5,75.5C 78.0391,71.5843 76.7058,68.5843 73.5,66.5C 73.3398,64.8008 73.5065,63.1341 74,61.5C 74.6708,60.7476 75.5041,60.4142 76.5,60.5 Z"/></g>
<g><path style="opacity:1" fill="#8e847a" d="M 76.5,60.5 C 75.5041,60.4142 74.6708,60.7476 74,61.5C 73.5065,63.1341 73.3398,64.8008 73.5,66.5C 72.3775,64.7116 72.2109,62.7116 73,60.5C 74.2917,59.2089 75.4583,59.2089 76.5,60.5 Z"/></g>
<g><path style="opacity:1" fill="#0a0609" d="M 21.5,14.5 C 21.2969,16.0443 20.6302,17.3777 19.5,18.5C 19.6236,19.1067 19.9569,19.44 20.5,19.5C 15.2517,27.5846 8.75167,34.5846 1,40.5C 1.82368,48.823 2.65701,57.1563 3.5,65.5C 3.4829,71.2135 2.9829,76.8802 2,82.5C 1.14825,83.5707 0.314913,84.5707 -0.5,85.5C -0.5,68.5 -0.5,51.5 -0.5,34.5C 4.81624,30.1811 9.48291,25.1811 13.5,19.5C 13.5,18.8333 13.8333,18.5 14.5,18.5C 16.081,15.9322 18.4143,14.5989 21.5,14.5 Z"/></g>
<g><path style="opacity:1" fill="#1f1f2c" d="M 62.5,70.5 C 51.6338,71.1489 40.6338,71.9822 29.5,73C 25.9678,75.8284 25.6344,78.995 28.5,82.5C 22.5638,80.1627 21.8972,76.6627 26.5,72C 38.4611,70.6918 50.4611,70.1918 62.5,70.5 Z"/></g>
<g><path style="opacity:1" fill="#2b2825" d="M 84.5,59.5 C 86.2884,58.3775 88.2884,58.2109 90.5,59C 94.6703,64.0023 99.0036,68.8356 103.5,73.5C 102.167,75.8333 102.167,78.1667 103.5,80.5C 98.5,80.5 93.5,80.5 88.5,80.5C 92.9819,79.6745 97.6486,79.1745 102.5,79C 98.5615,75.5706 95.2281,71.7372 92.5,67.5C 91.425,63.0913 88.7584,60.4246 84.5,59.5 Z"/></g>
<g><path style="opacity:1" fill="#f7f8f8" d="M 71.5,73.5 C 71.5,75.8333 71.5,78.1667 71.5,80.5C 72.8333,80.5 74.1667,80.5 75.5,80.5C 75.627,83.245 74.4603,85.245 72,86.5C 71.5034,88.8098 71.3367,91.1432 71.5,93.5C 71.1344,94.6946 70.301,95.3613 69,95.5C 67.6494,93.9818 66.1494,92.6485 64.5,91.5C 62.0521,90.5269 59.3854,90.1936 56.5,90.5C 56.5,89.1667 56.5,87.8333 56.5,86.5C 56.5,85.8333 56.8333,85.5 57.5,85.5C 58.3764,85.6309 59.0431,85.2975 59.5,84.5C 56.0005,78.8123 57.6671,76.3123 64.5,77C 65.8228,76.1841 66.4894,75.0174 66.5,73.5C 68.1667,70.8333 69.8333,70.8333 71.5,73.5 Z"/></g>
<g><path style="opacity:1" fill="#4b4641" d="M 73.5,66.5 C 76.7058,68.5843 78.0391,71.5843 77.5,75.5C 76.5084,75.6716 75.8417,75.3382 75.5,74.5C 75.7128,71.5491 75.0461,68.8825 73.5,66.5 Z"/></g>
<g><path style="opacity:1" fill="#36364c" d="M 54.5,85.5 C 53.8333,85.5 53.5,85.8333 53.5,86.5C 44.6267,87.575 36.9601,84.9083 30.5,78.5C 31.0253,77.8076 31.6919,77.3076 32.5,77C 38.8246,76.5005 45.1579,76.3338 51.5,76.5C 52.2407,79.634 53.2407,82.634 54.5,85.5 Z"/></g>
<g><path style="opacity:1" fill="#d5d6d7" d="M 66.5,73.5 C 66.4894,75.0174 65.8228,76.1841 64.5,77C 57.6671,76.3123 56.0005,78.8123 59.5,84.5C 59.0431,85.2975 58.3764,85.6309 57.5,85.5C 56.0691,82.6462 55.2358,79.6462 55,76.5C 58.9634,75.9439 62.7967,74.9439 66.5,73.5 Z"/></g>
<g><path style="opacity:1" fill="#101217" d="M 238.5,61.5 C 244.347,60.8399 248.513,63.1733 251,68.5C 255.737,83.097 250.57,88.9303 235.5,86C 234.464,89.1706 233.13,92.1706 231.5,95C 222.919,96.9586 217.086,93.792 214,85.5C 211.926,75.9135 215.592,71.9135 225,73.5C 227.716,72.3163 230.549,71.3163 233.5,70.5C 234.728,67.2211 236.395,64.2211 238.5,61.5 Z"/></g>
<g><path style="opacity:1" fill="#6c89b2" d="M 226.5,77.5 C 227.066,81.5404 228.4,85.2071 230.5,88.5C 228.947,91.254 226.614,92.0874 223.5,91C 219.144,87.8033 217.477,83.6367 218.5,78.5C 221.084,77.6072 223.751,77.2739 226.5,77.5 Z"/></g>
<g><path style="opacity:1" fill="#6c87ae" d="M 234.5,82.5 C 232.833,82.5 231.167,82.5 229.5,82.5C 229.517,80.4352 229.85,78.4352 230.5,76.5C 232.265,75.5386 234.265,75.2053 236.5,75.5C 237.938,62.4995 241.771,61.4995 248,72.5C 250.036,75.8956 249.869,79.0622 247.5,82C 243.068,82.0556 238.735,82.2223 234.5,82.5 Z"/></g>
<g><path style="opacity:1" fill="#232226" d="M 180.5,76.5 C 179.697,77.4232 179.53,78.4232 180,79.5C 183.268,80.6076 185.768,82.6076 187.5,85.5C 184.78,84.0579 181.946,82.7246 179,81.5C 178.5,81.8333 178,82.1667 177.5,82.5C 181.869,84.869 185.202,88.2024 187.5,92.5C 186.508,92.6716 185.842,92.3382 185.5,91.5C 181.646,87.9928 177.646,84.6595 173.5,81.5C 174.5,81.5 175.5,81.5 176.5,81.5C 176.183,78.4535 177.516,76.7868 180.5,76.5 Z"/></g>
<g><path style="opacity:1" fill="#4c5d79" d="M 230.5,76.5 C 229.85,78.4352 229.517,80.4352 229.5,82.5C 231.167,82.5 232.833,82.5 234.5,82.5C 233.791,83.404 232.791,83.7373 231.5,83.5C 231.784,85.4147 231.451,87.0813 230.5,88.5C 228.4,85.2071 227.066,81.5404 226.5,77.5C 227.959,77.5674 229.292,77.2341 230.5,76.5 Z"/></g>
<g><path style="opacity:1" fill="#595a5a" d="M 78.5,80.5 C 79.1386,81.0968 79.472,81.9302 79.5,83C 79.3158,84.3756 78.6491,85.2089 77.5,85.5C 78.6491,85.2089 79.3158,84.3756 79.5,83C 79.472,81.9302 79.1386,81.0968 78.5,80.5 Z"/></g>
<g><path style="opacity:1" fill="#d4d5d5" d="M 71.5,73.5 C 72.4614,75.2646 72.7947,77.2646 72.5,79.5C 73.8333,79.5 75.1667,79.5 76.5,79.5C 76.8417,80.3382 77.5084,80.6716 78.5,80.5C 78.634,82.2915 78.3007,83.9582 77.5,85.5C 75.9557,85.7031 74.6223,86.3698 73.5,87.5C 72.8313,89.6309 72.1646,91.6309 71.5,93.5C 71.3367,91.1432 71.5034,88.8098 72,86.5C 74.4603,85.245 75.627,83.245 75.5,80.5C 74.1667,80.5 72.8333,80.5 71.5,80.5C 71.5,78.1667 71.5,75.8333 71.5,73.5 Z"/></g>
<g><path style="opacity:1" fill="#776f67" d="M 125.5,94.5 C 121.459,92.8093 117.459,91.1426 113.5,89.5C 113.47,88.5028 113.97,87.8361 115,87.5C 119.211,88.8974 122.711,91.2307 125.5,94.5 Z"/></g>
<g><path style="opacity:1" fill="#4b4642" d="M 173.5,81.5 C 173.504,84.7846 175.17,87.4513 178.5,89.5C 181.902,92.8953 184.902,96.562 187.5,100.5C 184.61,97.4474 181.276,94.9474 177.5,93C 174.578,89.9081 172.245,86.4081 170.5,82.5C 171.257,80.5959 172.257,80.2625 173.5,81.5 Z"/></g>
<g><path style="opacity:1" fill="#9f9489" d="M 173.5,81.5 C 177.646,84.6595 181.646,87.9928 185.5,91.5C 183.264,90.6109 181.264,89.2776 179.5,87.5C 178.702,87.9569 178.369,88.6236 178.5,89.5C 175.17,87.4513 173.504,84.7846 173.5,81.5 Z"/></g>
<g><path style="opacity:1" fill="#f9e5d4" d="M 113.5,89.5 C 117.459,91.1426 121.459,92.8093 125.5,94.5C 126.833,94.8333 128.167,95.1667 129.5,95.5C 135.893,99.1729 142.893,101.506 150.5,102.5C 155.05,105.084 160.05,106.417 165.5,106.5C 168.833,107.167 172.167,107.833 175.5,108.5C 172.77,113.404 169.436,117.904 165.5,122C 155.808,125.299 146.141,125.299 136.5,122C 133,117.167 129.5,112.333 126,107.5C 124.887,106.695 123.721,106.028 122.5,105.5C 114.851,101.162 106.518,98.495 97.5,97.5C 96.8333,96.8333 96.1667,96.1667 95.5,95.5C 99.0781,95.4512 102.411,94.7846 105.5,93.5C 108.079,93.6061 110.412,92.9395 112.5,91.5C 113.338,91.1583 113.672,90.4916 113.5,89.5 Z"/></g>
<g><path style="opacity:1" fill="#d8c7b8" d="M 185.5,91.5 C 185.842,92.3382 186.508,92.6716 187.5,92.5C 189.792,95.3048 192.459,97.6381 195.5,99.5C 192.833,99.8333 190.167,100.167 187.5,100.5C 184.902,96.562 181.902,92.8953 178.5,89.5C 178.369,88.6236 178.702,87.9569 179.5,87.5C 181.264,89.2776 183.264,90.6109 185.5,91.5 Z"/></g>
<g><path style="opacity:1" fill="#121215" d="M 271.5,70.5 C 277.505,70.9488 279.838,74.2822 278.5,80.5C 281.588,80.367 283.588,81.7003 284.5,84.5C 283.457,87.4207 281.79,89.9207 279.5,92C 278.101,100.385 274.601,101.552 269,95.5C 267.566,95.9304 266.399,96.7638 265.5,98C 264.207,98.49 262.873,98.6567 261.5,98.5C 261.666,94.1539 261.499,89.8206 261,85.5C 259.293,83.0912 258.46,80.4245 258.5,77.5C 261.518,77.6646 264.518,77.498 267.5,77C 269.058,74.9481 270.392,72.7815 271.5,70.5 Z"/></g>
<g><path style="opacity:1" fill="#46464c" d="M 275.5,82.5 C 280.526,82.217 281.693,84.217 279,88.5C 278.329,89.2524 277.496,89.5858 276.5,89.5C 277.72,87.7179 278.386,85.7179 278.5,83.5C 277.209,83.7373 276.209,83.404 275.5,82.5 Z"/></g>
<g><path style="opacity:1" fill="#e9e9e9" d="M 275.5,82.5 C 276.209,83.404 277.209,83.7373 278.5,83.5C 278.386,85.7179 277.72,87.7179 276.5,89.5C 275.837,91.0419 275.17,92.7086 274.5,94.5C 272.498,90.2204 269.664,89.5538 266,92.5C 265.502,90.4731 265.669,88.4731 266.5,86.5C 265.349,84.6746 264.682,82.6746 264.5,80.5C 266.527,80.6621 268.527,80.4955 270.5,80C 271.376,78.414 272.376,76.914 273.5,75.5C 274.275,77.8432 274.942,80.1766 275.5,82.5 Z"/></g>
<g><path style="opacity:1" fill="#3a3531" d="M 105.5,93.5 C 102.411,94.7846 99.0781,95.4512 95.5,95.5C 94.1667,95.5 92.8333,95.5 91.5,95.5C 91.1667,95.5 90.8333,95.5 90.5,95.5C 91.2625,94.7321 92.2625,94.2321 93.5,94C 97.4862,93.5012 101.486,93.3345 105.5,93.5 Z"/></g>
<g><path style="opacity:1" fill="#570c0c" d="M 90.5,95.5 C 90.8333,95.5 91.1667,95.5 91.5,95.5C 91.5,95.8333 91.5,96.1667 91.5,96.5C 89.8333,96.5 88.1667,96.5 86.5,96.5C 82.1018,96.2941 77.7685,96.6274 73.5,97.5C 73.6107,96.8826 73.944,96.3826 74.5,96C 79.8229,95.5006 85.1563,95.334 90.5,95.5 Z"/></g>
<g><path style="opacity:1" fill="#3a3531" d="M 187.5,92.5 C 189.693,93.6805 192.026,94.6805 194.5,95.5C 195.705,96.5769 196.372,97.9102 196.5,99.5C 196.167,99.5 195.833,99.5 195.5,99.5C 192.459,97.6381 189.792,95.3048 187.5,92.5 Z"/></g>
<g><path style="opacity:1" fill="#ac7067" d="M 91.5,96.5 C 91.5,96.1667 91.5,95.8333 91.5,95.5C 92.8333,95.5 94.1667,95.5 95.5,95.5C 96.1667,96.1667 96.8333,96.8333 97.5,97.5C 95.4352,97.4828 93.4352,97.1495 91.5,96.5 Z"/></g>
<g><path style="opacity:1" fill="#96322e" d="M 86.5,96.5 C 88.1667,96.5 89.8333,96.5 91.5,96.5C 93.4352,97.1495 95.4352,97.4828 97.5,97.5C 106.518,98.495 114.851,101.162 122.5,105.5C 117.029,106.788 112.029,105.621 107.5,102C 99.6457,99.8021 91.6457,98.4687 83.5,98C 84.7375,97.7679 85.7375,97.2679 86.5,96.5 Z"/></g>
<g><path style="opacity:1" fill="#302d2b" d="M 129.5,95.5 C 134.823,94.9964 139.489,96.4964 143.5,100C 147.833,100.333 152.167,100.667 156.5,101C 155.263,101.232 154.263,101.732 153.5,102.5C 152.5,102.5 151.5,102.5 150.5,102.5C 142.893,101.506 135.893,99.1729 129.5,95.5 Z"/></g>
<g><path style="opacity:1" fill="#23212e" d="M 26.5,101.5 C 28.6264,102.048 30.6264,102.715 32.5,103.5C 31.3065,103.97 30.6399,104.97 30.5,106.5C 30.9872,111.192 31.6538,115.859 32.5,120.5C 33.1835,120.137 33.8501,119.804 34.5,119.5C 31.8203,123.008 29.4869,126.841 27.5,131C 28.7828,137.096 29.4495,143.263 29.5,149.5C 28.5138,145.003 27.6804,140.336 27,135.5C 26.5001,124.172 26.3335,112.838 26.5,101.5 Z"/></g>
<g><path style="opacity:1" fill="#38384e" d="M 32.5,103.5 C 35.8938,104.632 39.2272,105.966 42.5,107.5C 39.8231,111.529 37.1565,115.529 34.5,119.5C 33.8501,119.804 33.1835,120.137 32.5,120.5C 31.6538,115.859 30.9872,111.192 30.5,106.5C 30.6399,104.97 31.3065,103.97 32.5,103.5 Z"/></g>
<g><path style="opacity:1" fill="#f7e5d4" d="M 83.5,106.5 C 81.337,107.469 79.0037,108.302 76.5,109C 75.0977,110.342 75.4311,111.176 77.5,111.5C 84.5349,109.997 91.5349,108.997 98.5,108.5C 103.224,109.63 107.891,110.964 112.5,112.5C 113.167,113.167 113.833,113.833 114.5,114.5C 114.5,115.833 113.833,116.5 112.5,116.5C 108.5,115.833 104.5,115.167 100.5,114.5C 97.8541,113.836 95.0208,113.502 92,113.5C 87.8673,113.286 84.034,113.952 80.5,115.5C 76.8355,115.502 73.8355,116.835 71.5,119.5C 69.9731,119.427 68.9731,120.094 68.5,121.5C 64.8998,123.43 61.8998,126.097 59.5,129.5C 57.4131,130.585 56.0798,132.251 55.5,134.5C 51.3487,137.8 49.0153,142.133 48.5,147.5C 47.6908,149.028 47.0241,150.694 46.5,152.5C 45.661,153.641 44.9943,154.974 44.5,156.5C 45.325,157.386 46.325,157.719 47.5,157.5C 47.0882,159.973 48.0882,161.306 50.5,161.5C 50.9256,163.285 52.0922,164.285 54,164.5C 55.3756,164.316 56.2089,163.649 56.5,162.5C 59.8303,167.498 63.1637,172.498 66.5,177.5C 64.8561,177.714 63.3561,177.38 62,176.5C 58.6219,178.435 54.9552,179.768 51,180.5C 49.0434,179.116 48.0434,179.783 48,182.5C 46.6439,181.62 45.1439,181.286 43.5,181.5C 43.1667,181.5 42.8333,181.5 42.5,181.5C 41.6586,179.621 41.3253,177.621 41.5,175.5C 41.2676,166.983 40.6009,158.65 39.5,150.5C 39.5,141.5 39.5,132.5 39.5,123.5C 43.1777,118.794 46.8444,114.128 50.5,109.5C 53.0821,109.975 55.0821,109.308 56.5,107.5C 57.5676,106.566 58.901,106.232 60.5,106.5C 68.217,105.272 75.8836,105.272 83.5,106.5 Z"/></g>
<g><path style="opacity:1" fill="#504742" d="M 83.5,106.5 C 85.8333,106.5 88.1667,106.5 90.5,106.5C 92.2646,107.461 94.2646,107.795 96.5,107.5C 96.8417,108.338 97.5084,108.672 98.5,108.5C 91.5349,108.997 84.5349,109.997 77.5,111.5C 75.4311,111.176 75.0977,110.342 76.5,109C 79.0037,108.302 81.337,107.469 83.5,106.5 Z"/></g>
<g><path style="opacity:1" fill="#800d0b" d="M 73.5,97.5 C 77.7685,96.6274 82.1018,96.2941 86.5,96.5C 85.7375,97.2679 84.7375,97.7679 83.5,98C 91.6457,98.4687 99.6457,99.8021 107.5,102C 112.029,105.621 117.029,106.788 122.5,105.5C 123.721,106.028 124.887,106.695 126,107.5C 129.5,112.333 133,117.167 136.5,122C 146.141,125.299 155.808,125.299 165.5,122C 169.436,117.904 172.77,113.404 175.5,108.5C 176.167,108.5 176.5,108.167 176.5,107.5C 177.167,107.167 177.833,106.833 178.5,106.5C 182.534,106.495 186.534,106.162 190.5,105.5C 190.69,103.041 189.69,101.374 187.5,100.5C 190.167,100.167 192.833,99.8333 195.5,99.5C 195.833,99.5 196.167,99.5 196.5,99.5C 199.932,101.752 203.266,104.252 206.5,107C 205.207,107.49 203.873,107.657 202.5,107.5C 198.049,107.01 194.383,108.344 191.5,111.5C 189.251,112.08 187.585,113.413 186.5,115.5C 183.907,117.008 182.574,119.341 182.5,122.5C 180.528,125.084 179.528,128.084 179.5,131.5C 178.207,132.842 177.374,134.509 177,136.5C 176.178,144.012 176.345,151.345 177.5,158.5C 177.655,169.478 181.989,178.145 190.5,184.5C 190.973,185.906 191.973,186.573 193.5,186.5C 193.833,187.167 194.167,187.833 194.5,188.5C 194.5,189.833 194.5,191.167 194.5,192.5C 192.167,192.5 189.833,192.5 187.5,192.5C 177.695,184.986 172.028,174.986 170.5,162.5C 169.951,156.626 168.951,150.959 167.5,145.5C 167.5,144.833 167.5,144.167 167.5,143.5C 167.741,141.102 167.074,139.102 165.5,137.5C 156.161,137.334 146.827,137.5 137.5,138C 135.984,139.897 135.317,142.064 135.5,144.5C 134.778,144.918 134.278,145.584 134,146.5C 133.502,149.482 133.335,152.482 133.5,155.5C 132.751,160.911 131.751,166.245 130.5,171.5C 128.597,174.979 126.93,178.646 125.5,182.5C 122.484,186.515 118.817,189.848 114.5,192.5C 112.076,192.808 109.743,192.474 107.5,191.5C 108.18,190.14 108.847,188.807 109.5,187.5C 109.5,187.167 109.5,186.833 109.5,186.5C 118.766,181.64 123.766,173.973 124.5,163.5C 125.222,163.082 125.722,162.416 126,161.5C 126.667,152.167 126.667,142.833 126,133.5C 124.761,128.117 122.928,122.95 120.5,118C 119.644,116.405 118.311,115.572 116.5,115.5C 115.833,115.167 115.167,114.833 114.5,114.5C 113.833,113.833 113.167,113.167 112.5,112.5C 111.229,110.066 109.229,108.566 106.5,108C 103.183,107.502 99.8499,107.335 96.5,107.5C 94.2646,107.795 92.2646,107.461 90.5,106.5C 81.3937,104.565 72.0604,104.065 62.5,105C 61.5842,105.278 60.9175,105.778 60.5,106.5C 58.901,106.232 57.5676,106.566 56.5,107.5C 56.1667,107.5 55.8333,107.5 55.5,107.5C 53.9036,101.281 56.0702,97.2807 62,95.5C 64.1461,97.4753 66.6461,98.8087 69.5,99.5C 71.3545,99.6598 72.6879,98.9931 73.5,97.5 Z"/></g>
<g><path style="opacity:1" fill="#9d9186" d="M 165.5,106.5 C 169.371,106.185 173.038,106.518 176.5,107.5C 176.5,108.167 176.167,108.5 175.5,108.5C 172.167,107.833 168.833,107.167 165.5,106.5 Z"/></g>
<g><path style="opacity:1" fill="#a95750" d="M 90.5,106.5 C 88.1667,106.5 85.8333,106.5 83.5,106.5C 75.8836,105.272 68.217,105.272 60.5,106.5C 60.9175,105.778 61.5842,105.278 62.5,105C 72.0604,104.065 81.3937,104.565 90.5,106.5 Z"/></g>
<g><path style="opacity:1" fill="#5a534d" d="M 150.5,102.5 C 151.5,102.5 152.5,102.5 153.5,102.5C 161.788,104.711 170.121,106.044 178.5,106.5C 177.833,106.833 177.167,107.167 176.5,107.5C 173.038,106.518 169.371,106.185 165.5,106.5C 160.05,106.417 155.05,105.084 150.5,102.5 Z"/></g>
<g><path style="opacity:1" fill="#9d3e38" d="M 202.5,107.5 C 202.5,107.833 202.5,108.167 202.5,108.5C 198.941,109.641 195.274,110.641 191.5,111.5C 194.383,108.344 198.049,107.01 202.5,107.5 Z"/></g>
<g><path style="opacity:1" fill="#b9a599" d="M 55.5,107.5 C 55.8333,107.5 56.1667,107.5 56.5,107.5C 55.0821,109.308 53.0821,109.975 50.5,109.5C 52.0276,108.691 53.6943,108.024 55.5,107.5 Z"/></g>
<g><path style="opacity:1" fill="#a24840" d="M 96.5,107.5 C 99.8499,107.335 103.183,107.502 106.5,108C 109.229,108.566 111.229,110.066 112.5,112.5C 107.891,110.964 103.224,109.63 98.5,108.5C 97.5084,108.672 96.8417,108.338 96.5,107.5 Z"/></g>
<g><path style="opacity:1" fill="#e5cfc0" d="M 202.5,108.5 C 207.271,107.742 211.271,109.075 214.5,112.5C 208.681,113.328 202.681,113.828 196.5,114C 195.584,114.278 194.918,114.778 194.5,115.5C 191.673,115.584 189.006,116.25 186.5,117.5C 186.5,116.833 186.5,116.167 186.5,115.5C 187.585,113.413 189.251,112.08 191.5,111.5C 195.274,110.641 198.941,109.641 202.5,108.5 Z"/></g>
<g><path style="opacity:1" fill="#080506" d="M 75.5,74.5 C 75.8417,75.3382 76.5084,75.6716 77.5,75.5C 80.2994,78.9418 83.9661,80.6085 88.5,80.5C 93.5,80.5 98.5,80.5 103.5,80.5C 102.167,78.1667 102.167,75.8333 103.5,73.5C 105.657,75.4121 107.991,77.0787 110.5,78.5C 112.167,79.5 113.5,80.8333 114.5,82.5C 113.224,85.3356 112.558,88.3356 112.5,91.5C 110.412,92.9395 108.079,93.6061 105.5,93.5C 101.486,93.3345 97.4862,93.5012 93.5,94C 92.2625,94.2321 91.2625,94.7321 90.5,95.5C 85.1563,95.334 79.8229,95.5006 74.5,96C 73.944,96.3826 73.6107,96.8826 73.5,97.5C 72.6879,98.9931 71.3545,99.6598 69.5,99.5C 66.6461,98.8087 64.1461,97.4753 62,95.5C 56.0702,97.2807 53.9036,101.281 55.5,107.5C 53.6943,108.024 52.0276,108.691 50.5,109.5C 46.8444,114.128 43.1777,118.794 39.5,123.5C 38.8826,123.611 38.3826,123.944 38,124.5C 36.9834,143.726 37.4834,162.893 39.5,182C 39.3333,183.833 39.1667,185.667 39,187.5C 37.6703,186.418 36.1703,185.751 34.5,185.5C 29.5297,182.525 25.1963,178.858 21.5,174.5C 17.2085,168.208 12.5419,162.208 7.5,156.5C 7.5,156.167 7.5,155.833 7.5,155.5C 5.95484,152.891 4.28817,152.891 2.5,155.5C 1.26501,154.66 0.265012,153.66 -0.5,152.5C -0.5,144.5 -0.5,136.5 -0.5,128.5C 6.47908,145.863 16.8124,161.196 30.5,174.5C 30.8333,173.667 31.1667,172.833 31.5,172C 30.2097,164.554 29.543,157.054 29.5,149.5C 29.4495,143.263 28.7828,137.096 27.5,131C 29.4869,126.841 31.8203,123.008 34.5,119.5C 37.1565,115.529 39.8231,111.529 42.5,107.5C 39.2272,105.966 35.8938,104.632 32.5,103.5C 30.6264,102.715 28.6264,102.048 26.5,101.5C 22.4824,99.3903 22.649,97.7236 27,96.5C 32.557,98.0754 38.057,99.742 43.5,101.5C 45.5598,102.811 47.7265,102.811 50,101.5C 50.8413,96.3371 52.008,91.3371 53.5,86.5C 53.5,85.8333 53.8333,85.5 54.5,85.5C 54.2155,87.4147 54.5489,89.0813 55.5,90.5C 55.9623,91.8799 56.9623,92.5466 58.5,92.5C 60.4534,91.8444 62.4534,91.5111 64.5,91.5C 66.1494,92.6485 67.6494,93.9818 69,95.5C 70.301,95.3613 71.1344,94.6946 71.5,93.5C 72.1646,91.6309 72.8313,89.6309 73.5,87.5C 74.6223,86.3698 75.9557,85.7031 77.5,85.5C 78.3007,83.9582 78.634,82.2915 78.5,80.5C 77.5084,80.6716 76.8417,80.3382 76.5,79.5C 75.791,78.596 74.791,78.2627 73.5,78.5C 73.3379,76.4727 73.5045,74.4727 74,72.5C 74.2784,73.4158 74.7784,74.0825 75.5,74.5 Z"/></g>
<g><path style="opacity:1" fill="#868788" d="M 56.5,86.5 C 56.5,87.8333 56.5,89.1667 56.5,90.5C 59.3854,90.1936 62.0521,90.5269 64.5,91.5C 62.4534,91.5111 60.4534,91.8444 58.5,92.5C 56.9623,92.5466 55.9623,91.8799 55.5,90.5C 55.2322,88.901 55.5655,87.5676 56.5,86.5 Z"/></g>
<g><path style="opacity:1" fill="#686159" d="M 214.5,112.5 C 215.289,112.783 215.956,113.283 216.5,114C 209.142,114.316 201.809,114.816 194.5,115.5C 194.918,114.778 195.584,114.278 196.5,114C 202.681,113.828 208.681,113.328 214.5,112.5 Z"/></g>
<g><path style="opacity:1" fill="#6e665e" d="M 100.5,114.5 C 93.7978,114.336 87.1311,114.669 80.5,115.5C 84.034,113.952 87.8673,113.286 92,113.5C 95.0208,113.502 97.8541,113.836 100.5,114.5 Z"/></g>
<g><path style="opacity:1" fill="#0c0b0a" d="M 100.5,114.5 C 104.5,115.167 108.5,115.833 112.5,116.5C 112.833,117.5 113.5,118.167 114.5,118.5C 114.532,121.076 113.865,123.409 112.5,125.5C 107.014,124.781 101.514,124.114 96,123.5C 90.6958,123.953 85.5291,124.953 80.5,126.5C 78.1475,127.34 76.1475,128.674 74.5,130.5C 73.8333,130.5 73.5,130.833 73.5,131.5C 70.8333,132.167 69.1667,133.833 68.5,136.5C 64.3375,140.001 61.3375,144.335 59.5,149.5C 57.6567,151.853 56.3234,154.52 55.5,157.5C 53.7704,160.108 51.937,160.108 50,157.5C 48.8011,154.274 48.3011,150.941 48.5,147.5C 51.2607,143.404 53.594,139.07 55.5,134.5C 57.5869,133.415 58.9202,131.749 59.5,129.5C 63.1002,127.57 66.1002,124.903 68.5,121.5C 68.9731,120.094 69.9731,119.427 71.5,119.5C 74.9181,119.076 77.9181,117.742 80.5,115.5C 87.1311,114.669 93.7978,114.336 100.5,114.5 Z"/></g>
<g><path style="opacity:1" fill="#272534" d="M 297.5,124.5 C 297.5,125.5 297.5,126.5 297.5,127.5C 296.883,127.611 296.383,127.944 296,128.5C 294.547,134.987 293.047,141.321 291.5,147.5C 291.666,142.156 291.499,136.823 291,131.5C 288.783,121.959 285.949,112.626 282.5,103.5C 282.833,102.833 283.167,102.167 283.5,101.5C 289.054,108.7 293.721,116.367 297.5,124.5 Z"/></g>
<g><path style="opacity:1" fill="#4b4641" d="M 80.5,115.5 C 77.9181,117.742 74.9181,119.076 71.5,119.5C 73.8355,116.835 76.8355,115.502 80.5,115.5 Z"/></g>
<g><path style="opacity:1" fill="#b3867a" d="M 186.5,115.5 C 186.5,116.167 186.5,116.833 186.5,117.5C 184.919,119.142 184.253,121.142 184.5,123.5C 183.833,123.167 183.167,122.833 182.5,122.5C 182.574,119.341 183.907,117.008 186.5,115.5 Z"/></g>
<g><path style="opacity:1" fill="#f5dbcc" d="M 114.5,114.5 C 115.167,114.833 115.833,115.167 116.5,115.5C 119.838,119.178 121.838,123.511 122.5,128.5C 122.41,131.152 123.076,133.485 124.5,135.5C 125.775,144.814 125.775,154.147 124.5,163.5C 123.766,173.973 118.766,181.64 109.5,186.5C 108.833,186.5 108.5,186.167 108.5,185.5C 114.549,179.735 118.216,172.735 119.5,164.5C 120.434,163.432 120.768,162.099 120.5,160.5C 121.653,154.681 121.819,148.681 121,142.5C 120.434,140.277 119.6,138.277 118.5,136.5C 118.149,132.137 116.482,128.47 113.5,125.5C 115.443,124.709 116.443,123.209 116.5,121C 116.316,119.624 115.649,118.791 114.5,118.5C 113.5,118.167 112.833,117.5 112.5,116.5C 113.833,116.5 114.5,115.833 114.5,114.5 Z"/></g>
<g><path style="opacity:1" fill="#403b37" d="M 114.5,118.5 C 115.649,118.791 116.316,119.624 116.5,121C 116.443,123.209 115.443,124.709 113.5,125.5C 113.167,125.5 112.833,125.5 112.5,125.5C 113.865,123.409 114.532,121.076 114.5,118.5 Z"/></g>
<g><path style="opacity:1" fill="#9f266e" d="M 112.5,125.5 C 112.833,125.5 113.167,125.5 113.5,125.5C 116.482,128.47 118.149,132.137 118.5,136.5C 120.219,144.381 120.886,152.381 120.5,160.5C 120.768,162.099 120.434,163.432 119.5,164.5C 115.48,160.49 110.813,157.49 105.5,155.5C 105.817,151.298 105.483,147.298 104.5,143.5C 103.842,138.001 100.842,135.835 95.5,137C 93.5359,138.451 92.2026,140.284 91.5,142.5C 88.9645,146.355 87.9645,150.688 88.5,155.5C 87.0783,155.709 85.745,156.209 84.5,157C 81.2365,160.773 77.5698,163.94 73.5,166.5C 73.7845,164.585 73.4511,162.919 72.5,161.5C 70.1125,150.745 71.7791,140.745 77.5,131.5C 78.8897,130.101 79.8897,128.434 80.5,126.5C 85.5291,124.953 90.6958,123.953 96,123.5C 101.514,124.114 107.014,124.781 112.5,125.5 Z"/></g>
<g><path style="opacity:1" fill="#144991" d="M 221.5,127.5 C 220.957,127.56 220.624,127.893 220.5,128.5C 221.952,129.94 222.952,131.606 223.5,133.5C 223.41,136.152 224.076,138.485 225.5,140.5C 226.277,147.819 226.943,155.153 227.5,162.5C 227.5,163.833 227.5,165.167 227.5,166.5C 222.543,162.349 217.21,158.683 211.5,155.5C 211.991,148.473 209.991,142.306 205.5,137C 203.613,136.22 201.946,136.387 200.5,137.5C 198.215,138.957 196.382,140.957 195,143.5C 194.501,147.152 194.335,150.818 194.5,154.5C 192.821,154.892 191.154,155.392 189.5,156C 186.603,158.41 183.603,160.577 180.5,162.5C 179.492,155.528 179.325,148.528 180,141.5C 181.562,135.912 183.729,130.579 186.5,125.5C 198.589,122.192 210.256,122.858 221.5,127.5 Z"/></g>
<g><path style="opacity:1" fill="#3a3632" d="M 68.5,121.5 C 66.1002,124.903 63.1002,127.57 59.5,129.5C 61.8998,126.097 64.8998,123.43 68.5,121.5 Z"/></g>
<g><path style="opacity:1" fill="#bcabb3" d="M 80.5,126.5 C 79.8897,128.434 78.8897,130.101 77.5,131.5C 77.631,130.761 77.4643,130.094 77,129.5C 76.3292,130.252 75.4959,130.586 74.5,130.5C 76.1475,128.674 78.1475,127.34 80.5,126.5 Z"/></g>
<g><path style="opacity:1" fill="#9d3d37" d="M 116.5,115.5 C 118.311,115.572 119.644,116.405 120.5,118C 122.928,122.95 124.761,128.117 126,133.5C 126.667,142.833 126.667,152.167 126,161.5C 125.722,162.416 125.222,163.082 124.5,163.5C 125.775,154.147 125.775,144.814 124.5,135.5C 124.59,132.848 123.924,130.515 122.5,128.5C 121.838,123.511 119.838,119.178 116.5,115.5 Z"/></g>
<g><path style="opacity:1" fill="#0d0a0c" d="M 187.5,85.5 C 208.209,99.3606 228.543,113.861 248.5,129C 255.031,135.865 261.864,142.365 269,148.5C 275.21,156.923 280.377,165.923 284.5,175.5C 289.691,166.919 292.024,157.586 291.5,147.5C 293.047,141.321 294.547,134.987 296,128.5C 296.383,127.944 296.883,127.611 297.5,127.5C 297.5,146.167 297.5,164.833 297.5,183.5C 296.596,184.209 296.263,185.209 296.5,186.5C 295.778,186.918 295.278,187.584 295,188.5C 294.667,188.167 294.333,187.833 294,187.5C 293.827,183.459 293.327,179.459 292.5,175.5C 291.702,175.957 291.369,176.624 291.5,177.5C 290.89,178.391 290.557,179.391 290.5,180.5C 288.078,184.344 285.411,188.01 282.5,191.5C 281.178,191.67 280.011,191.337 279,190.5C 278.503,187.854 278.336,185.187 278.5,182.5C 278.585,179.351 277.585,176.684 275.5,174.5C 273.153,169.807 270.82,165.14 268.5,160.5C 268.573,158.973 267.906,157.973 266.5,157.5C 266.288,155.616 265.288,154.283 263.5,153.5C 262.52,156.086 262.187,158.753 262.5,161.5C 261.677,158.023 261.177,154.356 261,150.5C 260.148,149.429 259.315,148.429 258.5,147.5C 256.737,143.948 254.07,141.281 250.5,139.5C 249.86,137.668 248.86,137.335 247.5,138.5C 249.469,143.446 251.802,148.113 254.5,152.5C 253.77,157.55 250.77,159.884 245.5,159.5C 245.737,158.209 245.404,157.209 244.5,156.5C 244.293,153.759 243.293,151.426 241.5,149.5C 237.276,139.943 230.61,132.61 221.5,127.5C 210.256,122.858 198.589,122.192 186.5,125.5C 185.833,124.833 185.167,124.167 184.5,123.5C 184.253,121.142 184.919,119.142 186.5,117.5C 189.006,116.25 191.673,115.584 194.5,115.5C 201.809,114.816 209.142,114.316 216.5,114C 215.956,113.283 215.289,112.783 214.5,112.5C 211.271,109.075 207.271,107.742 202.5,108.5C 202.5,108.167 202.5,107.833 202.5,107.5C 203.873,107.657 205.207,107.49 206.5,107C 203.266,104.252 199.932,101.752 196.5,99.5C 196.372,97.9102 195.705,96.5769 194.5,95.5C 192.026,94.6805 189.693,93.6805 187.5,92.5C 185.202,88.2024 181.869,84.869 177.5,82.5C 178,82.1667 178.5,81.8333 179,81.5C 181.946,82.7246 184.78,84.0579 187.5,85.5 Z"/></g>
<g><path style="opacity:1" fill="#fbf8f8" d="M 77.5,131.5 C 71.7791,140.745 70.1125,150.745 72.5,161.5C 71.7011,169.473 74.3678,175.806 80.5,180.5C 82.1394,182.806 84.1394,184.806 86.5,186.5C 86.2648,187.097 85.7648,187.43 85,187.5C 77.9056,185.87 71.739,182.536 66.5,177.5C 63.1637,172.498 59.8303,167.498 56.5,162.5C 57.2044,158.094 58.2044,153.76 59.5,149.5C 61.3375,144.335 64.3375,140.001 68.5,136.5C 70.5,135.167 72.1667,133.5 73.5,131.5C 73.5,130.833 73.8333,130.5 74.5,130.5C 75.4959,130.586 76.3292,130.252 77,129.5C 77.4643,130.094 77.631,130.761 77.5,131.5 Z"/></g>
<g><path style="opacity:1" fill="#f7f8f9" d="M 221.5,127.5 C 230.61,132.61 237.276,139.943 241.5,149.5C 242.761,153.374 243.428,157.374 243.5,161.5C 241.427,167.583 238.094,172.916 233.5,177.5C 228.853,182.325 223.186,185.325 216.5,186.5C 220.009,182.145 223.009,177.478 225.5,172.5C 226.167,170.5 226.833,168.5 227.5,166.5C 227.5,165.167 227.5,163.833 227.5,162.5C 228.645,158.689 228.812,154.689 228,150.5C 227.851,146.867 227.018,143.534 225.5,140.5C 225.59,137.848 224.924,135.515 223.5,133.5C 222.952,131.606 221.952,129.94 220.5,128.5C 220.624,127.893 220.957,127.56 221.5,127.5 Z"/></g>
<g><path style="opacity:1" fill="#5b544e" d="M 59.5,129.5 C 58.9202,131.749 57.5869,133.415 55.5,134.5C 56.0798,132.251 57.4131,130.585 59.5,129.5 Z"/></g>
<g><path style="opacity:1" fill="#a4a4a3" d="M 73.5,131.5 C 72.1667,133.5 70.5,135.167 68.5,136.5C 69.1667,133.833 70.8333,132.167 73.5,131.5 Z"/></g>
<g><path style="opacity:1" fill="#cb8f84" d="M 122.5,128.5 C 123.924,130.515 124.59,132.848 124.5,135.5C 123.076,133.485 122.41,131.152 122.5,128.5 Z"/></g>
<g><path style="opacity:1" fill="#6c8cbb" d="M 223.5,133.5 C 224.924,135.515 225.59,137.848 225.5,140.5C 224.076,138.485 223.41,136.152 223.5,133.5 Z"/></g>
<g><path style="opacity:1" fill="#fdebd9" d="M 165.5,137.5 C 165.259,139.898 165.926,141.898 167.5,143.5C 167.5,144.167 167.5,144.833 167.5,145.5C 167.333,151.503 168.333,157.17 170.5,162.5C 172.028,174.986 177.695,184.986 187.5,192.5C 190.833,194.833 194.167,197.167 197.5,199.5C 197.552,203.198 197.886,206.865 198.5,210.5C 199.675,210.281 200.675,210.614 201.5,211.5C 205.178,218.322 210.678,222.656 218,224.5C 224.732,224.515 231.565,224.348 238.5,224C 242.628,221.428 246.628,218.595 250.5,215.5C 251.484,218.428 251.817,221.428 251.5,224.5C 251.5,225.833 251.5,227.167 251.5,228.5C 249.833,231.833 248.167,235.167 246.5,238.5C 235.93,250.743 223.596,260.743 209.5,268.5C 205.849,269.659 202.515,271.326 199.5,273.5C 192.191,276.379 184.857,279.046 177.5,281.5C 160.218,284.992 142.884,285.325 125.5,282.5C 125.5,281.833 125.167,281.5 124.5,281.5C 120.767,279.589 116.767,278.256 112.5,277.5C 85.6688,268.648 64.3355,252.648 48.5,229.5C 48.3404,227.847 47.6737,226.514 46.5,225.5C 46.5,223.167 46.5,220.833 46.5,218.5C 46.3433,217.127 46.51,215.793 47,214.5C 48.0113,215.337 49.1779,215.67 50.5,215.5C 50.2965,217.39 50.9632,218.89 52.5,220C 59.1302,223.62 66.2969,225.787 74,226.5C 85.0886,226.902 94.4219,223.236 102,215.5C 103.178,211.102 105.011,207.102 107.5,203.5C 107.291,202.914 106.957,202.414 106.5,202C 108.037,200.89 108.703,199.39 108.5,197.5C 110.179,197.715 111.179,197.048 111.5,195.5C 112.306,194.272 113.306,193.272 114.5,192.5C 118.817,189.848 122.484,186.515 125.5,182.5C 126.75,182.423 127.583,181.756 128,180.5C 129.43,177.647 130.263,174.647 130.5,171.5C 131.751,166.245 132.751,160.911 133.5,155.5C 134.525,152.026 135.192,148.36 135.5,144.5C 135.317,142.064 135.984,139.897 137.5,138C 146.827,137.5 156.161,137.334 165.5,137.5 Z"/></g>
<g><path style="opacity:1" fill="#f4f7f9" d="M 211.5,155.5 C 211.14,161.119 208.807,165.619 204.5,169C 199.355,170.03 196.688,167.863 196.5,162.5C 196.334,155.825 196.5,149.158 197,142.5C 198.669,141.154 199.836,139.487 200.5,137.5C 201.946,136.387 203.613,136.22 205.5,137C 209.991,142.306 211.991,148.473 211.5,155.5 Z"/></g>
<g><path style="opacity:1" fill="#fcf8fa" d="M 104.5,143.5 C 104.666,148.844 104.499,154.177 104,159.5C 102.117,160.653 101.284,162.319 101.5,164.5C 95.8357,166.58 92.3357,164.58 91,158.5C 90.3914,153.139 90.5581,147.805 91.5,142.5C 92.2026,140.284 93.5359,138.451 95.5,137C 100.842,135.835 103.842,138.001 104.5,143.5 Z"/></g>
<g><path style="opacity:1" fill="#655e57" d="M 55.5,134.5 C 53.594,139.07 51.2607,143.404 48.5,147.5C 49.0153,142.133 51.3487,137.8 55.5,134.5 Z"/></g>
<g><path style="opacity:1" fill="#c07c72" d="M 165.5,137.5 C 167.074,139.102 167.741,141.102 167.5,143.5C 165.926,141.898 165.259,139.898 165.5,137.5 Z"/></g>
<g><path style="opacity:1" fill="#544e48" d="M 250.5,139.5 C 249.957,139.56 249.624,139.893 249.5,140.5C 251.945,144.166 253.611,148.166 254.5,152.5C 251.802,148.113 249.469,143.446 247.5,138.5C 248.86,137.335 249.86,137.668 250.5,139.5 Z"/></g>
<g><path style="opacity:1" fill="#b66961" d="M 179.5,131.5 C 177.897,140.418 177.23,149.418 177.5,158.5C 176.345,151.345 176.178,144.012 177,136.5C 177.374,134.509 178.207,132.842 179.5,131.5 Z"/></g>
<g><path style="opacity:1" fill="#cd83a1" d="M 118.5,136.5 C 119.6,138.277 120.434,140.277 121,142.5C 121.819,148.681 121.653,154.681 120.5,160.5C 120.886,152.381 120.219,144.381 118.5,136.5 Z"/></g>
<g><path style="opacity:1" fill="#b96f65" d="M 135.5,144.5 C 135.192,148.36 134.525,152.026 133.5,155.5C 133.335,152.482 133.502,149.482 134,146.5C 134.278,145.584 134.778,144.918 135.5,144.5 Z"/></g>
<g><path style="opacity:1" fill="#d9c9ba" d="M 250.5,139.5 C 254.07,141.281 256.737,143.948 258.5,147.5C 258.423,160.225 257.756,172.892 256.5,185.5C 256.167,185.5 255.833,185.5 255.5,185.5C 255.5,184.833 255.5,184.167 255.5,183.5C 256.773,175.195 256.773,166.861 255.5,158.5C 254.817,158.863 254.15,159.196 253.5,159.5C 254.26,158.107 254.926,156.607 255.5,155C 255.472,153.93 255.139,153.097 254.5,152.5C 253.611,148.166 251.945,144.166 249.5,140.5C 249.624,139.893 249.957,139.56 250.5,139.5 Z"/></g>
<g><path style="opacity:1" fill="#d29c8f" d="M 167.5,145.5 C 168.951,150.959 169.951,156.626 170.5,162.5C 168.333,157.17 167.333,151.503 167.5,145.5 Z"/></g>
<g><path style="opacity:1" fill="#bbcddc" d="M 200.5,137.5 C 199.836,139.487 198.669,141.154 197,142.5C 196.5,149.158 196.334,155.825 196.5,162.5C 194.837,160.562 194.171,158.228 194.5,155.5C 194.5,155.167 194.5,154.833 194.5,154.5C 194.335,150.818 194.501,147.152 195,143.5C 196.382,140.957 198.215,138.957 200.5,137.5 Z"/></g>
<g><path style="opacity:1" fill="#81786e" d="M 46.5,152.5 C 46.366,154.292 46.6993,155.958 47.5,157.5C 46.325,157.719 45.325,157.386 44.5,156.5C 44.9943,154.974 45.661,153.641 46.5,152.5 Z"/></g>
<g><path style="opacity:1" fill="#6387b8" d="M 225.5,140.5 C 227.018,143.534 227.851,146.867 228,150.5C 228.812,154.689 228.645,158.689 227.5,162.5C 226.943,155.153 226.277,147.819 225.5,140.5 Z"/></g>
<g><path style="opacity:1" fill="#43181b" d="M 7.5,155.5 C 7.5,155.833 7.5,156.167 7.5,156.5C 6.50797,163.982 6.17464,171.648 6.5,179.5C 5.83443,175.681 5.5011,171.681 5.5,167.5C 5.5093,163.107 6.17596,159.107 7.5,155.5 Z"/></g>
<g><path style="opacity:1" fill="#fb6f82" d="M 88.5,155.5 C 89.5876,159.429 91.2542,163.096 93.5,166.5C 97.3185,169.391 100.818,169.057 104,165.5C 105.199,162.274 105.699,158.941 105.5,155.5C 110.813,157.49 115.48,160.49 119.5,164.5C 118.216,172.735 114.549,179.735 108.5,185.5C 101.289,189.004 93.9554,189.337 86.5,186.5C 84.1394,184.806 82.1394,182.806 80.5,180.5C 78.6783,175.523 76.345,170.857 73.5,166.5C 77.5698,163.94 81.2365,160.773 84.5,157C 85.745,156.209 87.0783,155.709 88.5,155.5 Z"/></g>
<g><path style="opacity:1" fill="#77252d" d="M 7.5,156.5 C 12.5419,162.208 17.2085,168.208 21.5,174.5C 15.8308,170.997 11.3308,166.33 8,160.5C 7.50019,170.494 7.33352,180.494 7.5,190.5C 6.51836,187.038 6.18503,183.371 6.5,179.5C 6.17464,171.648 6.50797,163.982 7.5,156.5 Z"/></g>
<g><path style="opacity:1" fill="#9d9287" d="M 47.5,157.5 C 49.2624,158.262 50.2624,159.596 50.5,161.5C 48.0882,161.306 47.0882,159.973 47.5,157.5 Z"/></g>
<g><path style="opacity:1" fill="#35312e" d="M 48.5,147.5 C 48.3011,150.941 48.8011,154.274 50,157.5C 51.937,160.108 53.7704,160.108 55.5,157.5C 55.5,158.833 55.5,160.167 55.5,161.5C 53.8333,161.5 52.1667,161.5 50.5,161.5C 50.2624,159.596 49.2624,158.262 47.5,157.5C 46.6993,155.958 46.366,154.292 46.5,152.5C 47.0241,150.694 47.6908,149.028 48.5,147.5 Z"/></g>
<g><path style="opacity:1" fill="#6d98a8" d="M 194.5,155.5 C 194.171,158.228 194.837,160.562 196.5,162.5C 196.688,167.863 199.355,170.03 204.5,169C 208.807,165.619 211.14,161.119 211.5,155.5C 217.21,158.683 222.543,162.349 227.5,166.5C 226.833,168.5 226.167,170.5 225.5,172.5C 223.265,173.228 221.432,174.561 220,176.5C 218.199,179.647 216.366,182.813 214.5,186C 207.533,187.79 200.533,187.956 193.5,186.5C 191.973,186.573 190.973,185.906 190.5,184.5C 186.169,178.865 183.169,172.531 181.5,165.5C 185.845,162.152 190.178,158.818 194.5,155.5 Z"/></g>
<g><path style="opacity:1" fill="#feecda" d="M 255.5,183.5 C 254.36,182.199 253.027,181.032 251.5,180C 246.964,178.575 242.464,177.075 238,175.5C 236.594,176.414 235.094,177.08 233.5,177.5C 238.094,172.916 241.427,167.583 243.5,161.5C 244.089,164.734 246.089,166.067 249.5,165.5C 249.433,164.041 249.766,162.708 250.5,161.5C 251.5,160.833 252.5,160.167 253.5,159.5C 254.15,159.196 254.817,158.863 255.5,158.5C 256.773,166.861 256.773,175.195 255.5,183.5 Z"/></g>
<g><path style="opacity:1" fill="#bb3946" d="M 21.5,174.5 C 21.6854,176.196 22.5187,177.529 24,178.5C 25.042,195.302 27.042,211.969 30,228.5C 30.2734,226.899 30.7734,225.399 31.5,224C 30.1367,222.055 29.3034,219.888 29,217.5C 27.6073,209.817 27.2739,202.15 28,194.5C 27.6667,195.167 27.3333,195.833 27,196.5C 26.8333,195.167 26.6667,193.833 26.5,192.5C 27.3624,189.441 27.3624,186.441 26.5,183.5C 26.8333,183.167 27.1667,182.833 27.5,182.5C 30.6549,201.395 32.8216,220.395 34,239.5C 34.8632,246.46 37.0299,252.96 40.5,259C 41.9961,259.507 43.1627,259.007 44,257.5C 45.8473,260.535 47.6807,263.535 49.5,266.5C 53.5039,278.158 59.8372,288.491 68.5,297.5C 65.1667,297.5 61.8333,297.5 58.5,297.5C 46.792,283.084 37.9586,267.084 32,249.5C 31.4823,253.551 31.8157,257.551 33,261.5C 35.3661,268.216 37.6995,274.883 40,281.5C 41.8822,286.044 44.5489,290.044 48,293.5C 49.4998,295.469 51.3331,296.802 53.5,297.5C 50.8333,297.5 48.1667,297.5 45.5,297.5C 43.1051,294.139 40.1051,291.472 36.5,289.5C 33.4974,285.491 30.4974,281.491 27.5,277.5C 24.7749,272.32 22.4416,266.987 20.5,261.5C 19.871,258.603 18.871,255.936 17.5,253.5C 12.3545,232.775 9.02117,211.775 7.5,190.5C 7.33352,180.494 7.50019,170.494 8,160.5C 11.3308,166.33 15.8308,170.997 21.5,174.5 Z"/></g>
<g><path style="opacity:1" fill="#5b554f" d="M 254.5,152.5 C 255.139,153.097 255.472,153.93 255.5,155C 254.926,156.607 254.26,158.107 253.5,159.5C 252.5,160.167 251.5,160.833 250.5,161.5C 246.062,162.575 244.062,160.908 244.5,156.5C 245.404,157.209 245.737,158.209 245.5,159.5C 250.77,159.884 253.77,157.55 254.5,152.5 Z"/></g>
<g><path style="opacity:1" fill="#5180a1" d="M 194.5,154.5 C 194.5,154.833 194.5,155.167 194.5,155.5C 190.178,158.818 185.845,162.152 181.5,165.5C 180.89,164.609 180.557,163.609 180.5,162.5C 183.603,160.577 186.603,158.41 189.5,156C 191.154,155.392 192.821,154.892 194.5,154.5 Z"/></g>
<g><path style="opacity:1" fill="#c8bfb5" d="M 59.5,149.5 C 58.2044,153.76 57.2044,158.094 56.5,162.5C 56.2089,163.649 55.3756,164.316 54,164.5C 52.0922,164.285 50.9256,163.285 50.5,161.5C 52.1667,161.5 53.8333,161.5 55.5,161.5C 55.5,160.167 55.5,158.833 55.5,157.5C 56.3234,154.52 57.6567,151.853 59.5,149.5 Z"/></g>
<g><path style="opacity:1" fill="#d7ccc1" d="M 241.5,149.5 C 243.293,151.426 244.293,153.759 244.5,156.5C 244.062,160.908 246.062,162.575 250.5,161.5C 249.766,162.708 249.433,164.041 249.5,165.5C 246.089,166.067 244.089,164.734 243.5,161.5C 243.428,157.374 242.761,153.374 241.5,149.5 Z"/></g>
<g><path style="opacity:1" fill="#f9d7df" d="M 91.5,142.5 C 90.5581,147.805 90.3914,153.139 91,158.5C 92.3357,164.58 95.8357,166.58 101.5,164.5C 101.284,162.319 102.117,160.653 104,159.5C 104.499,154.177 104.666,148.844 104.5,143.5C 105.483,147.298 105.817,151.298 105.5,155.5C 105.699,158.941 105.199,162.274 104,165.5C 100.818,169.057 97.3185,169.391 93.5,166.5C 91.2542,163.096 89.5876,159.429 88.5,155.5C 87.9645,150.688 88.9645,146.355 91.5,142.5 Z"/></g>
<g><path style="opacity:1" fill="#69625a" d="M 39.5,150.5 C 40.6009,158.65 41.2676,166.983 41.5,175.5C 39.824,167.395 39.1573,159.062 39.5,150.5 Z"/></g>
<g><path style="opacity:1" fill="#e6d3c8" d="M 182.5,122.5 C 183.167,122.833 183.833,123.167 184.5,123.5C 185.167,124.167 185.833,124.833 186.5,125.5C 183.729,130.579 181.562,135.912 180,141.5C 179.325,148.528 179.492,155.528 180.5,162.5C 180.557,163.609 180.89,164.609 181.5,165.5C 183.169,172.531 186.169,178.865 190.5,184.5C 181.989,178.145 177.655,169.478 177.5,158.5C 177.23,149.418 177.897,140.418 179.5,131.5C 179.528,128.084 180.528,125.084 182.5,122.5 Z"/></g>
<g><path style="opacity:1" fill="#fac7d0" d="M 72.5,161.5 C 73.4511,162.919 73.7845,164.585 73.5,166.5C 76.345,170.857 78.6783,175.523 80.5,180.5C 74.3678,175.806 71.7011,169.473 72.5,161.5 Z"/></g>
<g><path style="opacity:1" fill="#f6d3c0" d="M 66.5,177.5 C 71.739,182.536 77.9056,185.87 85,187.5C 85.7648,187.43 86.2648,187.097 86.5,186.5C 93.9554,189.337 101.289,189.004 108.5,185.5C 108.5,186.167 108.833,186.5 109.5,186.5C 109.5,186.833 109.5,187.167 109.5,187.5C 103.834,189.339 98.5002,191.673 93.5,194.5C 81.6867,197.491 70.02,197.158 58.5,193.5C 52.9229,190.26 47.9229,186.26 43.5,181.5C 45.1439,181.286 46.6439,181.62 48,182.5C 48.0434,179.783 49.0434,179.116 51,180.5C 54.9552,179.768 58.6219,178.435 62,176.5C 63.3561,177.38 64.8561,177.714 66.5,177.5 Z"/></g>
<g><path style="opacity:1" fill="#581b22" d="M 275.5,174.5 C 277.585,176.684 278.585,179.351 278.5,182.5C 276.415,180.316 275.415,177.649 275.5,174.5 Z"/></g>
<g><path style="opacity:1" fill="#f6d4c1" d="M 255.5,183.5 C 255.5,184.167 255.5,184.833 255.5,185.5C 252.477,187.533 249.477,189.533 246.5,191.5C 243.053,192.083 240.053,193.416 237.5,195.5C 231.196,196.26 224.863,196.593 218.5,196.5C 215.097,196.149 211.763,195.482 208.5,194.5C 204.263,193.048 200.263,191.048 196.5,188.5C 203.351,188.991 210.018,188.324 216.5,186.5C 223.186,185.325 228.853,182.325 233.5,177.5C 235.094,177.08 236.594,176.414 238,175.5C 242.464,177.075 246.964,178.575 251.5,180C 253.027,181.032 254.36,182.199 255.5,183.5 Z"/></g>
<g><path style="opacity:1" fill="#e0b3a5" d="M 130.5,171.5 C 130.263,174.647 129.43,177.647 128,180.5C 127.583,181.756 126.75,182.423 125.5,182.5C 126.93,178.646 128.597,174.979 130.5,171.5 Z"/></g>
<g><path style="opacity:1" fill="#93aeb7" d="M 225.5,172.5 C 223.009,177.478 220.009,182.145 216.5,186.5C 210.018,188.324 203.351,188.991 196.5,188.5C 195.833,188.5 195.167,188.5 194.5,188.5C 194.167,187.833 193.833,187.167 193.5,186.5C 200.533,187.956 207.533,187.79 214.5,186C 216.366,182.813 218.199,179.647 220,176.5C 221.432,174.561 223.265,173.228 225.5,172.5 Z"/></g>
<g><path style="opacity:1" fill="#786f67" d="M -0.5,180.5 C 0.586173,180.62 1.25284,181.287 1.5,182.5C 1.25284,183.713 0.586173,184.38 -0.5,184.5C -0.5,183.167 -0.5,181.833 -0.5,180.5 Z"/></g>
<g><path style="opacity:1" fill="#af3641" d="M 21.5,174.5 C 25.1963,178.858 29.5297,182.525 34.5,185.5C 35.1667,186.5 35.8333,187.5 36.5,188.5C 36.9068,194.161 37.2401,199.828 37.5,205.5C 37.4443,210.731 38.111,215.731 39.5,220.5C 39.8969,226.402 40.8969,232.069 42.5,237.5C 42.5,238.167 42.5,238.833 42.5,239.5C 42.9633,245.18 44.2966,250.514 46.5,255.5C 48.0743,258.907 49.0743,262.573 49.5,266.5C 47.6807,263.535 45.8473,260.535 44,257.5C 43.1627,259.007 41.9961,259.507 40.5,259C 37.0299,252.96 34.8632,246.46 34,239.5C 32.8216,220.395 30.6549,201.395 27.5,182.5C 27.1667,182.833 26.8333,183.167 26.5,183.5C 27.3624,186.441 27.3624,189.441 26.5,192.5C 26.6667,193.833 26.8333,195.167 27,196.5C 27.3333,195.833 27.6667,195.167 28,194.5C 27.2739,202.15 27.6073,209.817 29,217.5C 29.3034,219.888 30.1367,222.055 31.5,224C 30.7734,225.399 30.2734,226.899 30,228.5C 27.042,211.969 25.042,195.302 24,178.5C 22.5187,177.529 21.6854,176.196 21.5,174.5 Z"/></g>
<g><path style="opacity:1" fill="#bb3946" d="M 290.5,180.5 C 291.487,185.305 291.821,190.305 291.5,195.5C 291.023,205.601 290.023,215.601 288.5,225.5C 287.076,227.515 286.41,229.848 286.5,232.5C 285.44,240.623 283.773,248.623 281.5,256.5C 277.963,263.247 274.63,270.247 271.5,277.5C 268.914,280.979 266.081,284.312 263,287.5C 262.517,288.448 262.351,289.448 262.5,290.5C 259.833,292.833 257.167,295.167 254.5,297.5C 251.833,297.5 249.167,297.5 246.5,297.5C 250.99,291.196 255.49,284.863 260,278.5C 261.072,274.453 262.239,270.453 263.5,266.5C 265.846,260.985 267.513,255.152 268.5,249C 268.294,247.634 267.96,246.301 267.5,245C 270.495,226.89 273.995,209.057 278,191.5C 279.616,192.801 281.116,192.801 282.5,191.5C 285.411,188.01 288.078,184.344 290.5,180.5 Z"/></g>
<g><path style="opacity:1" fill="#9b3932" d="M 42.5,181.5 C 42.8333,181.5 43.1667,181.5 43.5,181.5C 47.9229,186.26 52.9229,190.26 58.5,193.5C 51.5151,192.681 46.1817,189.347 42.5,183.5C 42.5,182.833 42.5,182.167 42.5,181.5 Z"/></g>
<g><path style="opacity:1" fill="#802730" d="M 266.5,157.5 C 267.906,157.973 268.573,158.973 268.5,160.5C 267.542,160.047 266.708,159.381 266,158.5C 264.046,184.523 261.712,210.523 259,236.5C 256.845,241.802 255.011,247.135 253.5,252.5C 253.495,244.529 254.995,236.862 258,229.5C 259.082,219.848 259.915,210.182 260.5,200.5C 261.997,188.016 263.164,175.349 264,162.5C 264.333,160.5 264.667,158.5 265,156.5C 265.383,157.056 265.883,157.389 266.5,157.5 Z"/></g>
<g><path style="opacity:1" fill="#2b1819" d="M 296.5,186.5 C 296.186,193.361 296.186,200.028 296.5,206.5C 296.217,207.289 295.717,207.956 295,208.5C 294.667,204.833 294.333,201.167 294,197.5C 293.722,196.584 293.222,195.918 292.5,195.5C 292.823,189.31 292.49,183.31 291.5,177.5C 291.369,176.624 291.702,175.957 292.5,175.5C 293.327,179.459 293.827,183.459 294,187.5C 294.333,187.833 294.667,188.167 295,188.5C 295.278,187.584 295.778,186.918 296.5,186.5 Z"/></g>
<g><path style="opacity:1" fill="#421519" d="M 266.5,157.5 C 265.883,157.389 265.383,157.056 265,156.5C 264.667,158.5 264.333,160.5 264,162.5C 263.164,175.349 261.997,188.016 260.5,200.5C 260.407,187.456 261.073,174.456 262.5,161.5C 262.187,158.753 262.52,156.086 263.5,153.5C 265.288,154.283 266.288,155.616 266.5,157.5 Z"/></g>
<g><path style="opacity:1" fill="#52191f" d="M 291.5,177.5 C 292.49,183.31 292.823,189.31 292.5,195.5C 292.167,195.5 291.833,195.5 291.5,195.5C 291.821,190.305 291.487,185.305 290.5,180.5C 290.557,179.391 290.89,178.391 291.5,177.5 Z"/></g>
<g><path style="opacity:1" fill="#bc6e63" d="M 246.5,191.5 C 243.947,193.584 240.947,194.917 237.5,195.5C 240.053,193.416 243.053,192.083 246.5,191.5 Z"/></g>
<g><path style="opacity:1" fill="#9c3b33" d="M 255.5,185.5 C 255.833,185.5 256.167,185.5 256.5,185.5C 256.5,185.833 256.5,186.167 256.5,186.5C 248.372,194.441 238.372,198.107 226.5,197.5C 223.645,197.497 220.978,197.164 218.5,196.5C 224.863,196.593 231.196,196.26 237.5,195.5C 240.947,194.917 243.947,193.584 246.5,191.5C 249.477,189.533 252.477,187.533 255.5,185.5 Z"/></g>
<g><path style="opacity:1" fill="#6a625a" d="M 297.5,183.5 C 297.5,190.833 297.5,198.167 297.5,205.5C 296.833,205.5 296.5,205.833 296.5,206.5C 296.186,200.028 296.186,193.361 296.5,186.5C 296.263,185.209 296.596,184.209 297.5,183.5 Z"/></g>
<g><path style="opacity:1" fill="#beb0a3" d="M -0.5,192.5 C 0.725071,193.152 1.39174,194.319 1.5,196C 1.48572,197.385 1.15239,198.551 0.5,199.5C 0.67158,198.508 0.338246,197.842 -0.5,197.5C -0.5,195.833 -0.5,194.167 -0.5,192.5 Z"/></g>
<g><path style="opacity:1" fill="#f7d6c2" d="M 43.5,193.5 C 49.4763,197.819 56.143,200.486 63.5,201.5C 71.6037,203.395 79.9371,203.895 88.5,203C 96.5284,201.563 104.195,199.063 111.5,195.5C 111.179,197.048 110.179,197.715 108.5,197.5C 108.703,199.39 108.037,200.89 106.5,202C 106.957,202.414 107.291,202.914 107.5,203.5C 105.011,207.102 103.178,211.102 102,215.5C 94.4219,223.236 85.0886,226.902 74,226.5C 66.2969,225.787 59.1302,223.62 52.5,220C 50.9632,218.89 50.2965,217.39 50.5,215.5C 49.1779,215.67 48.0113,215.337 47,214.5C 46.51,215.793 46.3433,217.127 46.5,218.5C 44.7658,210.391 43.7658,202.058 43.5,193.5 Z"/></g>
<g><path style="opacity:1" fill="#861813" d="M 42.5,183.5 C 46.1817,189.347 51.5151,192.681 58.5,193.5C 70.02,197.158 81.6867,197.491 93.5,194.5C 96.5184,194.335 99.5184,194.502 102.5,195C 100.38,198.159 97.38,199.826 93.5,200C 83.5332,201.165 73.5332,201.665 63.5,201.5C 56.143,200.486 49.4763,197.819 43.5,193.5C 43.1667,192.833 42.8333,192.167 42.5,191.5C 42.5,188.833 42.5,186.167 42.5,183.5 Z"/></g>
<g><path style="opacity:1" fill="#f7d5c1" d="M 255.5,195.5 C 255.5,197.5 255.5,199.5 255.5,201.5C 254.028,205.919 253.362,210.586 253.5,215.5C 253.142,218.689 252.475,221.689 251.5,224.5C 251.817,221.428 251.484,218.428 250.5,215.5C 246.628,218.595 242.628,221.428 238.5,224C 231.565,224.348 224.732,224.515 218,224.5C 210.678,222.656 205.178,218.322 201.5,211.5C 200.675,210.614 199.675,210.281 198.5,210.5C 197.886,206.865 197.552,203.198 197.5,199.5C 199.806,199.993 202.139,200.326 204.5,200.5C 206.562,201.776 208.896,202.61 211.5,203C 218.014,203.82 224.347,203.653 230.5,202.5C 239.233,201.636 247.567,199.302 255.5,195.5 Z"/></g>
<g><path style="opacity:1" fill="#110a0b" d="M -0.5,152.5 C 0.265012,153.66 1.26501,154.66 2.5,155.5C 4.28817,152.891 5.95484,152.891 7.5,155.5C 6.17596,159.107 5.5093,163.107 5.5,167.5C 5.5011,171.681 5.83443,175.681 6.5,179.5C 6.18503,183.371 6.51836,187.038 7.5,190.5C 9.02117,211.775 12.3545,232.775 17.5,253.5C 17.3455,256.716 18.3455,259.383 20.5,261.5C 22.4416,266.987 24.7749,272.32 27.5,277.5C 28.5348,282.875 31.5348,286.875 36.5,289.5C 38.0908,292.431 40.0908,295.098 42.5,297.5C 39.5,297.5 36.5,297.5 33.5,297.5C 29.5448,292.373 25.3781,287.373 21,282.5C 19.9372,276.381 17.7705,270.714 14.5,265.5C 10.8305,249.785 7.49721,234.118 4.5,218.5C 2.82296,216.46 1.15629,214.46 -0.5,212.5C -0.5,207.5 -0.5,202.5 -0.5,197.5C 0.338246,197.842 0.67158,198.508 0.5,199.5C 1.12167,200.627 1.95501,201.627 3,202.5C 3.49863,198.848 3.6653,195.182 3.5,191.5C 2.16667,191.5 0.833333,191.5 -0.5,191.5C -0.5,189.167 -0.5,186.833 -0.5,184.5C 0.586173,184.38 1.25284,183.713 1.5,182.5C 1.25284,181.287 0.586173,180.62 -0.5,180.5C -0.5,171.167 -0.5,161.833 -0.5,152.5 Z"/></g>
<g><path style="opacity:1" fill="#57504a" d="M -0.5,192.5 C -0.5,192.167 -0.5,191.833 -0.5,191.5C 0.833333,191.5 2.16667,191.5 3.5,191.5C 3.6653,195.182 3.49863,198.848 3,202.5C 1.95501,201.627 1.12167,200.627 0.5,199.5C 1.15239,198.551 1.48572,197.385 1.5,196C 1.39174,194.319 0.725071,193.152 -0.5,192.5 Z"/></g>
<g><path style="opacity:1" fill="#96302a" d="M 194.5,188.5 C 195.167,188.5 195.833,188.5 196.5,188.5C 200.263,191.048 204.263,193.048 208.5,194.5C 205.813,194.336 203.146,194.503 200.5,195C 201.167,195.667 201.833,196.333 202.5,197C 207.373,198.237 212.04,199.737 216.5,201.5C 212.466,201.495 208.466,201.162 204.5,200.5C 202.139,200.326 199.806,199.993 197.5,199.5C 194.167,197.167 190.833,194.833 187.5,192.5C 189.833,192.5 192.167,192.5 194.5,192.5C 194.5,191.167 194.5,189.833 194.5,188.5 Z"/></g>
<g><path style="opacity:1" fill="#9a362f" d="M 109.5,187.5 C 108.847,188.807 108.18,190.14 107.5,191.5C 109.743,192.474 112.076,192.808 114.5,192.5C 113.306,193.272 112.306,194.272 111.5,195.5C 104.195,199.063 96.5284,201.563 88.5,203C 79.9371,203.895 71.6037,203.395 63.5,201.5C 73.5332,201.665 83.5332,201.165 93.5,200C 97.38,199.826 100.38,198.159 102.5,195C 99.5184,194.502 96.5184,194.335 93.5,194.5C 98.5002,191.673 103.834,189.339 109.5,187.5 Z"/></g>
<g><path style="opacity:1" fill="#810f0d" d="M 256.5,186.5 C 256.5,189.167 256.5,191.833 256.5,194.5C 255.833,194.5 255.5,194.833 255.5,195.5C 247.567,199.302 239.233,201.636 230.5,202.5C 225.797,202.563 221.13,202.229 216.5,201.5C 212.04,199.737 207.373,198.237 202.5,197C 201.833,196.333 201.167,195.667 200.5,195C 203.146,194.503 205.813,194.336 208.5,194.5C 211.763,195.482 215.097,196.149 218.5,196.5C 220.978,197.164 223.645,197.497 226.5,197.5C 238.372,198.107 248.372,194.441 256.5,186.5 Z"/></g>
<g><path style="opacity:1" fill="#ae574e" d="M 204.5,200.5 C 208.466,201.162 212.466,201.495 216.5,201.5C 221.13,202.229 225.797,202.563 230.5,202.5C 224.347,203.653 218.014,203.82 211.5,203C 208.896,202.61 206.562,201.776 204.5,200.5 Z"/></g>
<g><path style="opacity:1" fill="#403b37" d="M 143.5,198.5 C 146.038,199.677 148.371,201.344 150.5,203.5C 152.316,202.185 153.983,200.685 155.5,199C 156.483,198.409 157.15,198.743 157.5,200C 151.922,208.944 147.255,208.444 143.5,198.5 Z"/></g>
<g><path style="opacity:1" fill="#3a1216" d="M 36.5,188.5 C 37.7479,189.334 38.4146,190.667 38.5,192.5C 39.3317,199.141 39.6651,205.808 39.5,212.5C 38.8333,210.167 38.1667,207.833 37.5,205.5C 37.2401,199.828 36.9068,194.161 36.5,188.5 Z"/></g>
<g><path style="opacity:1" fill="#7c7066" d="M 255.5,201.5 C 255.638,206.414 254.972,211.081 253.5,215.5C 253.362,210.586 254.028,205.919 255.5,201.5 Z"/></g>
<g><path style="opacity:1" fill="#39322f" d="M 256.5,194.5 C 257.165,205.702 255.999,216.702 253,227.5C 252.617,228.056 252.117,228.389 251.5,228.5C 251.5,227.167 251.5,225.833 251.5,224.5C 252.475,221.689 253.142,218.689 253.5,215.5C 254.972,211.081 255.638,206.414 255.5,201.5C 255.5,199.5 255.5,197.5 255.5,195.5C 255.5,194.833 255.833,194.5 256.5,194.5 Z"/></g>
<g><path style="opacity:1" fill="#77242c" d="M 37.5,205.5 C 38.1667,207.833 38.8333,210.167 39.5,212.5C 39.5,214.5 39.5,216.5 39.5,218.5C 39.5,219.167 39.5,219.833 39.5,220.5C 38.111,215.731 37.4443,210.731 37.5,205.5 Z"/></g>
<g><path style="opacity:1" fill="#453f3a" d="M 42.5,191.5 C 42.8333,192.167 43.1667,192.833 43.5,193.5C 43.7658,202.058 44.7658,210.391 46.5,218.5C 46.5,220.833 46.5,223.167 46.5,225.5C 45.7677,224.192 44.9344,222.858 44,221.5C 43.1666,213.499 42.3332,205.499 41.5,197.5C 41.5046,195.304 41.838,193.304 42.5,191.5 Z"/></g>
<g><path style="opacity:1" fill="#47161b" d="M 39.5,218.5 C 41.5495,224.526 42.5495,230.859 42.5,237.5C 40.8969,232.069 39.8969,226.402 39.5,220.5C 39.5,219.833 39.5,219.167 39.5,218.5 Z"/></g>
<g><path style="opacity:0.986" fill="#38384f" d="M -0.5,212.5 C 1.15629,214.46 2.82296,216.46 4.5,218.5C 5.45494,229.898 6.95494,241.231 9,252.5C 9.79476,257.406 11.6281,261.74 14.5,265.5C 17.7705,270.714 19.9372,276.381 21,282.5C 25.3781,287.373 29.5448,292.373 33.5,297.5C 29.5,297.5 25.5,297.5 21.5,297.5C 10.5,293.833 3.16667,286.5 -0.5,275.5C -0.5,254.5 -0.5,233.5 -0.5,212.5 Z"/></g>
<g><path style="opacity:1" fill="#090809" d="M 48.5,229.5 C 64.3355,252.648 85.6688,268.648 112.5,277.5C 116.085,279.806 120.085,281.139 124.5,281.5C 125.167,281.5 125.5,281.833 125.5,282.5C 126.329,287.453 126.663,292.453 126.5,297.5C 124.5,297.5 122.5,297.5 120.5,297.5C 120.777,294.552 120.444,291.719 119.5,289C 93.3013,281.242 70.9679,267.409 52.5,247.5C 48.3486,241.904 46.5153,235.57 47,228.5C 47.3826,229.056 47.8826,229.389 48.5,229.5 Z"/></g>
<g><path style="opacity:1" fill="#120708" d="M 291.5,195.5 C 291.833,195.5 292.167,195.5 292.5,195.5C 293.222,195.918 293.722,196.584 294,197.5C 294.333,201.167 294.667,204.833 295,208.5C 295.717,207.956 296.217,207.289 296.5,206.5C 296.5,205.833 296.833,205.5 297.5,205.5C 297.5,208.833 297.5,212.167 297.5,215.5C 296.21,216.058 295.377,217.058 295,218.5C 293.389,235.73 289.556,252.396 283.5,268.5C 278.436,278.951 272.103,288.618 264.5,297.5C 261.167,297.5 257.833,297.5 254.5,297.5C 257.167,295.167 259.833,292.833 262.5,290.5C 272.554,281.426 278.887,270.092 281.5,256.5C 283.773,248.623 285.44,240.623 286.5,232.5C 287.924,230.485 288.59,228.152 288.5,225.5C 290.023,215.601 291.023,205.601 291.5,195.5 Z"/></g>
<g><path style="opacity:1" fill="#665f58" d="M 179.5,232.5 C 179.657,231.127 179.49,229.793 179,228.5C 178.578,230.426 177.411,231.426 175.5,231.5C 176.478,228.675 178.478,227.342 181.5,227.5C 181.88,229.698 181.213,231.365 179.5,232.5 Z"/></g>
<g><path style="opacity:1" fill="#211515" d="M 258.5,147.5 C 259.315,148.429 260.148,149.429 261,150.5C 261.177,154.356 261.677,158.023 262.5,161.5C 261.073,174.456 260.407,187.456 260.5,200.5C 259.915,210.182 259.082,219.848 258,229.5C 254.995,236.862 253.495,244.529 253.5,252.5C 251.145,258.156 249.312,264.156 248,270.5C 246.97,272.346 245.804,274.013 244.5,275.5C 247.036,268.513 249.036,261.346 250.5,254C 249.576,252.189 248.743,252.355 248,254.5C 247.764,252.236 247.264,250.069 246.5,248C 248.14,244.691 249.473,241.191 250.5,237.5C 250.167,237.167 249.833,236.833 249.5,236.5C 248.482,237.193 247.482,237.859 246.5,238.5C 248.167,235.167 249.833,231.833 251.5,228.5C 252.117,228.389 252.617,228.056 253,227.5C 255.999,216.702 257.165,205.702 256.5,194.5C 256.5,191.833 256.5,189.167 256.5,186.5C 256.5,186.167 256.5,185.833 256.5,185.5C 257.756,172.892 258.423,160.225 258.5,147.5 Z"/></g>
<g><path style="opacity:1" fill="#72232a" d="M 288.5,225.5 C 288.59,228.152 287.924,230.485 286.5,232.5C 286.41,229.848 287.076,227.515 288.5,225.5 Z"/></g>
<g><path style="opacity:1" fill="#2c2825" d="M 129.5,232.5 C 129.842,233.338 130.508,233.672 131.5,233.5C 133.969,234.317 136.635,234.817 139.5,235C 133.59,236.008 127.923,235.508 122.5,233.5C 121.058,232.18 120.392,230.514 120.5,228.5C 123.49,229.759 126.49,231.092 129.5,232.5 Z"/></g>
<g><path style="opacity:1" fill="#c2b5a7" d="M 145.5,231.5 C 141.119,233.211 136.453,233.877 131.5,233.5C 130.508,233.672 129.842,233.338 129.5,232.5C 134.854,232.431 140.187,232.098 145.5,231.5 Z"/></g>
<g><path style="opacity:1" fill="#514b46" d="M 157.5,232.5 C 157.082,233.222 156.416,233.722 155.5,234C 156.858,234.934 158.192,235.768 159.5,236.5C 155.989,235.942 152.489,235.276 149,234.5C 140.924,236.367 132.757,236.867 124.5,236C 123.619,235.292 122.953,234.458 122.5,233.5C 127.923,235.508 133.59,236.008 139.5,235C 136.635,234.817 133.969,234.317 131.5,233.5C 136.453,233.877 141.119,233.211 145.5,231.5C 149.486,230.299 153.486,230.633 157.5,232.5 Z"/></g>
<g><path style="opacity:1" fill="#45403c" d="M 179.5,232.5 C 173.308,235.739 166.641,237.072 159.5,236.5C 158.192,235.768 156.858,234.934 155.5,234C 156.416,233.722 157.082,233.222 157.5,232.5C 163.559,232.746 169.559,232.413 175.5,231.5C 177.411,231.426 178.578,230.426 179,228.5C 179.49,229.793 179.657,231.127 179.5,232.5 Z"/></g>
<g><path style="opacity:1" fill="#100d0f" d="M 244.5,275.5 C 240.327,283.674 234.994,291.007 228.5,297.5C 225.5,297.5 222.5,297.5 219.5,297.5C 226.119,292.042 231.952,285.708 237,278.5C 240.627,269.31 243.627,259.976 246,250.5C 227.432,268.043 205.932,280.876 181.5,289C 180.556,291.719 180.223,294.552 180.5,297.5C 178.5,297.5 176.5,297.5 174.5,297.5C 174.5,295.833 174.5,294.167 174.5,292.5C 175.386,288.917 176.386,285.25 177.5,281.5C 184.857,279.046 192.191,276.379 199.5,273.5C 203.748,273.376 207.082,271.71 209.5,268.5C 223.596,260.743 235.93,250.743 246.5,238.5C 247.482,237.859 248.482,237.193 249.5,236.5C 249.833,236.833 250.167,237.167 250.5,237.5C 249.473,241.191 248.14,244.691 246.5,248C 247.264,250.069 247.764,252.236 248,254.5C 248.743,252.355 249.576,252.189 250.5,254C 249.036,261.346 247.036,268.513 244.5,275.5 Z"/></g>
<g><path style="opacity:1" fill="#170d0f" d="M 39.5,123.5 C 39.5,132.5 39.5,141.5 39.5,150.5C 39.1573,159.062 39.824,167.395 41.5,175.5C 41.3253,177.621 41.6586,179.621 42.5,181.5C 42.5,182.167 42.5,182.833 42.5,183.5C 42.5,186.167 42.5,188.833 42.5,191.5C 41.838,193.304 41.5046,195.304 41.5,197.5C 42.3332,205.499 43.1666,213.499 44,221.5C 44.9344,222.858 45.7677,224.192 46.5,225.5C 47.6737,226.514 48.3404,227.847 48.5,229.5C 47.8826,229.389 47.3826,229.056 47,228.5C 46.5153,235.57 48.3486,241.904 52.5,247.5C 51.9033,247.735 51.5699,248.235 51.5,249C 53.5914,255.548 55.5914,262.048 57.5,268.5C 58.904,273.32 60.904,277.987 63.5,282.5C 63.9569,283.298 64.6236,283.631 65.5,283.5C 69.1642,288.158 72.8309,292.825 76.5,297.5C 73.8333,297.5 71.1667,297.5 68.5,297.5C 59.8372,288.491 53.5039,278.158 49.5,266.5C 49.0743,262.573 48.0743,258.907 46.5,255.5C 45.8846,250.474 45.0513,245.474 44,240.5C 43.6174,239.944 43.1174,239.611 42.5,239.5C 42.5,238.833 42.5,238.167 42.5,237.5C 42.5495,230.859 41.5495,224.526 39.5,218.5C 39.5,216.5 39.5,214.5 39.5,212.5C 39.6651,205.808 39.3317,199.141 38.5,192.5C 38.4146,190.667 37.7479,189.334 36.5,188.5C 35.8333,187.5 35.1667,186.5 34.5,185.5C 36.1703,185.751 37.6703,186.418 39,187.5C 39.1667,185.667 39.3333,183.833 39.5,182C 37.4834,162.893 36.9834,143.726 38,124.5C 38.3826,123.944 38.8826,123.611 39.5,123.5 Z"/></g>
<g><path style="opacity:0.98" fill="#38384e" d="M 297.5,215.5 C 297.5,235.5 297.5,255.5 297.5,275.5C 293.833,286.5 286.5,293.833 275.5,297.5C 272.5,297.5 269.5,297.5 266.5,297.5C 271.067,292.043 275.4,286.377 279.5,280.5C 281.444,276.669 282.777,272.669 283.5,268.5C 289.556,252.396 293.389,235.73 295,218.5C 295.377,217.058 296.21,216.058 297.5,215.5 Z"/></g>
<g><path style="opacity:1" fill="#591b22" d="M 42.5,239.5 C 43.1174,239.611 43.6174,239.944 44,240.5C 45.0513,245.474 45.8846,250.474 46.5,255.5C 44.2966,250.514 42.9633,245.18 42.5,239.5 Z"/></g>
<g><path style="opacity:1" fill="#b53744" d="M 268.5,160.5 C 270.82,165.14 273.153,169.807 275.5,174.5C 275.415,177.649 276.415,180.316 278.5,182.5C 278.336,185.187 278.503,187.854 279,190.5C 280.011,191.337 281.178,191.67 282.5,191.5C 281.116,192.801 279.616,192.801 278,191.5C 273.995,209.057 270.495,226.89 267.5,245C 267.96,246.301 268.294,247.634 268.5,249C 267.513,255.152 265.846,260.985 263.5,266.5C 263.741,263.001 262.908,262.668 261,265.5C 254.904,276.704 248.071,287.371 240.5,297.5C 236.5,297.5 232.5,297.5 228.5,297.5C 234.994,291.007 240.327,283.674 244.5,275.5C 245.804,274.013 246.97,272.346 248,270.5C 249.312,264.156 251.145,258.156 253.5,252.5C 255.011,247.135 256.845,241.802 259,236.5C 261.712,210.523 264.046,184.523 266,158.5C 266.708,159.381 267.542,160.047 268.5,160.5 Z"/></g>
<g><path style="opacity:1" fill="#232331" d="M 4.5,218.5 C 7.49721,234.118 10.8305,249.785 14.5,265.5C 11.6281,261.74 9.79476,257.406 9,252.5C 6.95494,241.231 5.45494,229.898 4.5,218.5 Z"/></g>
<g><path style="opacity:1" fill="#393950" d="M 52.5,247.5 C 70.9679,267.409 93.3013,281.242 119.5,289C 120.444,291.719 120.777,294.552 120.5,297.5C 105.833,297.5 91.1667,297.5 76.5,297.5C 72.8309,292.825 69.1642,288.158 65.5,283.5C 63.5932,278.016 60.9266,273.016 57.5,268.5C 55.5914,262.048 53.5914,255.548 51.5,249C 51.5699,248.235 51.9033,247.735 52.5,247.5 Z"/></g>
<g><path style="opacity:1" fill="#39394f" d="M 219.5,297.5 C 206.5,297.5 193.5,297.5 180.5,297.5C 180.223,294.552 180.556,291.719 181.5,289C 205.932,280.876 227.432,268.043 246,250.5C 243.627,259.976 240.627,269.31 237,278.5C 231.952,285.708 226.119,292.042 219.5,297.5 Z"/></g>
<g><path style="opacity:1" fill="#43161b" d="M 17.5,253.5 C 18.871,255.936 19.871,258.603 20.5,261.5C 18.3455,259.383 17.3455,256.716 17.5,253.5 Z"/></g>
<g><path style="opacity:1" fill="#8c2b34" d="M 281.5,256.5 C 278.887,270.092 272.554,281.426 262.5,290.5C 262.351,289.448 262.517,288.448 263,287.5C 266.081,284.312 268.914,280.979 271.5,277.5C 274.63,270.247 277.963,263.247 281.5,256.5 Z"/></g>
<g><path style="opacity:1" fill="#393531" d="M 209.5,268.5 C 207.082,271.71 203.748,273.376 199.5,273.5C 202.515,271.326 205.849,269.659 209.5,268.5 Z"/></g>
<g><path style="opacity:1" fill="#1f1f2b" d="M 57.5,268.5 C 60.9266,273.016 63.5932,278.016 65.5,283.5C 64.6236,283.631 63.9569,283.298 63.5,282.5C 60.904,277.987 58.904,273.32 57.5,268.5 Z"/></g>
<g><path style="opacity:1" fill="#bbaea1" d="M 112.5,277.5 C 116.767,278.256 120.767,279.589 124.5,281.5C 120.085,281.139 116.085,279.806 112.5,277.5 Z"/></g>
<g><path style="opacity:1" fill="#361316" d="M 27.5,277.5 C 30.4974,281.491 33.4974,285.491 36.5,289.5C 31.5348,286.875 28.5348,282.875 27.5,277.5 Z"/></g>
<g><path style="opacity:1" fill="#201f2c" d="M 283.5,268.5 C 282.777,272.669 281.444,276.669 279.5,280.5C 275.4,286.377 271.067,292.043 266.5,297.5C 265.833,297.5 265.167,297.5 264.5,297.5C 272.103,288.618 278.436,278.951 283.5,268.5 Z"/></g>
<g><path style="opacity:1" fill="#912a34" d="M 58.5,297.5 C 56.8333,297.5 55.1667,297.5 53.5,297.5C 51.3331,296.802 49.4998,295.469 48,293.5C 44.5489,290.044 41.8822,286.044 40,281.5C 37.6995,274.883 35.3661,268.216 33,261.5C 31.8157,257.551 31.4823,253.551 32,249.5C 37.9586,267.084 46.792,283.084 58.5,297.5 Z"/></g>
<g><path style="opacity:1" fill="#9f7f77" d="M 177.5,281.5 C 176.386,285.25 175.386,288.917 174.5,292.5C 172.952,291.206 170.952,290.539 168.5,290.5C 158.21,291.872 147.877,292.539 137.5,292.5C 134.272,291.586 130.939,291.253 127.5,291.5C 127.5,293.5 127.5,295.5 127.5,297.5C 127.167,297.5 126.833,297.5 126.5,297.5C 126.663,292.453 126.329,287.453 125.5,282.5C 142.884,285.325 160.218,284.992 177.5,281.5 Z"/></g>
<g><path style="opacity:1" fill="#8c2832" d="M 263.5,266.5 C 262.239,270.453 261.072,274.453 260,278.5C 255.49,284.863 250.99,291.196 246.5,297.5C 244.5,297.5 242.5,297.5 240.5,297.5C 248.071,287.371 254.904,276.704 261,265.5C 262.908,262.668 263.741,263.001 263.5,266.5 Z"/></g>
<g><path style="opacity:1" fill="#fcead8" d="M 137.5,292.5 C 141.486,293.166 145.653,293.499 150,293.5C 158.007,293.538 165.841,292.871 173.5,291.5C 173.5,293.5 173.5,295.5 173.5,297.5C 158.167,297.5 142.833,297.5 127.5,297.5C 127.5,295.5 127.5,293.5 127.5,291.5C 130.939,291.253 134.272,291.586 137.5,292.5 Z"/></g>
<g><path style="opacity:1" fill="#cfb6a9" d="M 174.5,292.5 C 174.5,294.167 174.5,295.833 174.5,297.5C 174.167,297.5 173.833,297.5 173.5,297.5C 173.5,295.5 173.5,293.5 173.5,291.5C 165.841,292.871 158.007,293.538 150,293.5C 145.653,293.499 141.486,293.166 137.5,292.5C 147.877,292.539 158.21,291.872 168.5,290.5C 170.952,290.539 172.952,291.206 174.5,292.5 Z"/></g>
<g><path style="opacity:1" fill="#581c22" d="M 36.5,289.5 C 40.1051,291.472 43.1051,294.139 45.5,297.5C 44.5,297.5 43.5,297.5 42.5,297.5C 40.0908,295.098 38.0908,292.431 36.5,289.5 Z"/></g>
</svg>
